<?xml version="1.0" encoding="UTF-8" standalone="no"?>
<svg
   xmlns:dc="http://purl.org/dc/elements/1.1/"
   xmlns:cc="http://creativecommons.org/ns#"
   xmlns:rdf="http://www.w3.org/1999/02/22-rdf-syntax-ns#"
   xmlns:svg="http://www.w3.org/2000/svg"
   xmlns="http://www.w3.org/2000/svg"
   xmlns:xlink="http://www.w3.org/1999/xlink"
   xmlns:sodipodi="http://sodipodi.sourceforge.net/DTD/sodipodi-0.dtd"
   xmlns:inkscape="http://www.inkscape.org/namespaces/inkscape"
   shape-rendering="auto"
   width="877"
   text-rendering="auto"
   contentScriptType="text/ecmascript"
   color-interpolation="auto"
   color-rendering="auto"
   preserveAspectRatio="xMidYMid meet"
   font-size="12"
   viewBox="0 0 877 777"
   image-rendering="auto"
   stroke-miterlimit="10"
   zoomAndPan="magnify"
   version="1.0"
   contentStyleType="text/css"
   font-style="normal"
   height="777"
   font-weight="normal"
   id="svg5667"
   inkscape:version="0.48.4 r9939"
   sodipodi:docname="AssignmentDecision.color.svg"
   font-family="'Dialog'"
   stroke-dashoffset="0"
   stroke-dasharray="none"
   stroke-opacity="1"
   stroke-linejoin="miter"
   stroke-linecap="square"
   stroke-width="1"
   stroke="black"
   fill-opacity="1"
   fill="black">
  <metadata
     id="metadata6047">
    <rdf:RDF>
      <cc:Work
         rdf:about="">
        <dc:format>image/svg+xml</dc:format>
        <dc:type
           rdf:resource="http://purl.org/dc/dcmitype/StillImage" />
        <dc:title />
      </cc:Work>
    </rdf:RDF>
  </metadata>
  <sodipodi:namedview
     pagecolor="#ffffff"
     bordercolor="#666666"
     borderopacity="1"
     objecttolerance="10"
     gridtolerance="10"
     guidetolerance="10"
     inkscape:pageopacity="0"
     inkscape:pageshadow="2"
     inkscape:window-width="1920"
     inkscape:window-height="1018"
     id="namedview6045"
     showgrid="false"
     inkscape:zoom="1.7181694"
     inkscape:cx="173.10063"
     inkscape:cy="524.52067"
     inkscape:window-x="-8"
     inkscape:window-y="-8"
     inkscape:window-maximized="1"
     inkscape:current-layer="g5670" />
  <!--Generated by the Batik Graphics2D SVG Generator-->
  <defs
     id="genericDefs">
    <linearGradient
       inkscape:collect="always"
       xlink:href="#linearGradient1"
       id="linearGradient6049"
       gradientUnits="userSpaceOnUse"
       spreadMethod="pad"
       x1="10"
       y1="17"
       x2="10"
       y2="759" />
    <linearGradient
       inkscape:collect="always"
       xlink:href="#linearGradient2"
       id="linearGradient6051"
       gradientUnits="userSpaceOnUse"
       spreadMethod="pad"
       x1="80"
       y1="179"
       x2="80"
       y2="190" />
    <linearGradient
       inkscape:collect="always"
       xlink:href="#linearGradient5"
       id="linearGradient6087"
       gradientUnits="userSpaceOnUse"
       spreadMethod="pad"
       x1="365"
       y1="155"
       x2="365"
       y2="201" />
    <linearGradient
       inkscape:collect="always"
       xlink:href="#linearGradient5"
       id="linearGradient6089"
       gradientUnits="userSpaceOnUse"
       spreadMethod="pad"
       x1="365"
       y1="155"
       x2="365"
       y2="201" />
    <linearGradient
       inkscape:collect="always"
       xlink:href="#linearGradient5"
       id="linearGradient6091"
       gradientUnits="userSpaceOnUse"
       spreadMethod="pad"
       x1="365"
       y1="155"
       x2="365"
       y2="201" />
  </defs>
  <g
     id="g5670">
    <defs
       id="defs1">
      <linearGradient
         x1="10"
         x2="10"
         y1="17"
         gradientUnits="userSpaceOnUse"
         y2="759"
         xlink:type="simple"
         xlink:actuate="onLoad"
         id="linearGradient1"
         xlink:show="other"
         spreadMethod="pad">
        <stop
           stop-opacity="1"
           stop-color="white"
           offset="0%"
           id="stop5674" />
        <stop
           stop-opacity="1"
           stop-color="rgb(195,209,213)"
           offset="100%"
           id="stop5676" />
      </linearGradient>
      <linearGradient
         x1="80"
         x2="80"
         y1="179"
         gradientUnits="userSpaceOnUse"
         y2="190"
         xlink:type="simple"
         xlink:actuate="onLoad"
         id="linearGradient2"
         xlink:show="other"
         spreadMethod="pad">
        <stop
           stop-opacity="1"
           stop-color="white"
           offset="0%"
           id="stop5679" />
        <stop
           stop-opacity="1"
           stop-color="rgb(195,209,213)"
           offset="100%"
           id="stop5681" />
      </linearGradient>
      <linearGradient
         x1="250"
         x2="250"
         y1="197"
         gradientUnits="userSpaceOnUse"
         y2="208"
         xlink:type="simple"
         xlink:actuate="onLoad"
         id="linearGradient3"
         xlink:show="other"
         spreadMethod="pad">
        <stop
           stop-opacity="1"
           stop-color="white"
           offset="0%"
           id="stop5684" />
        <stop
           stop-opacity="1"
           stop-color="rgb(195,209,213)"
           offset="100%"
           id="stop5686" />
      </linearGradient>
      <linearGradient
         x1="250"
         x2="250"
         y1="157"
         gradientUnits="userSpaceOnUse"
         y2="168"
         xlink:type="simple"
         xlink:actuate="onLoad"
         id="linearGradient4"
         xlink:show="other"
         spreadMethod="pad">
        <stop
           stop-opacity="1"
           stop-color="white"
           offset="0%"
           id="stop5689" />
        <stop
           stop-opacity="1"
           stop-color="rgb(195,209,213)"
           offset="100%"
           id="stop5691" />
      </linearGradient>
      <linearGradient
         x1="365"
         x2="365"
         y1="155"
         gradientUnits="userSpaceOnUse"
         y2="201"
         xlink:type="simple"
         xlink:actuate="onLoad"
         id="linearGradient5"
         xlink:show="other"
         spreadMethod="pad">
        <stop
           stop-opacity="1"
           stop-color="rgb(200,255,230)"
           offset="0%"
           id="stop5694" />
        <stop
           stop-opacity="1"
           stop-color="white"
           offset="100%"
           id="stop5696" />
      </linearGradient>
      <linearGradient
         x1="365"
         x2="365"
         y1="210"
         gradientUnits="userSpaceOnUse"
         y2="256"
         xlink:type="simple"
         xlink:actuate="onLoad"
         id="linearGradient6"
         xlink:show="other"
         spreadMethod="pad">
        <stop
           stop-opacity="1"
           stop-color="rgb(200,255,230)"
           offset="0%"
           id="stop5699" />
        <stop
           stop-opacity="1"
           stop-color="white"
           offset="100%"
           id="stop5701" />
      </linearGradient>
      <linearGradient
         x1="35"
         x2="35"
         y1="210"
         gradientUnits="userSpaceOnUse"
         y2="256"
         xlink:type="simple"
         xlink:actuate="onLoad"
         id="linearGradient7"
         xlink:show="other"
         spreadMethod="pad">
        <stop
           stop-opacity="1"
           stop-color="rgb(200,255,230)"
           offset="0%"
           id="stop5704" />
        <stop
           stop-opacity="1"
           stop-color="white"
           offset="100%"
           id="stop5706" />
      </linearGradient>
      <clipPath
         clipPathUnits="userSpaceOnUse"
         id="clipPath1">
        <path
           d="M9 9 L868 9 L868 768 L9 768 L9 9 Z"
           id="path5709" />
      </clipPath>
      <clipPath
         clipPathUnits="userSpaceOnUse"
         id="clipPath2">
        <path
           d="M19 14 L195 14 L195 33 L19 33 L19 14 Z"
           id="path5712" />
      </clipPath>
      <clipPath
         clipPathUnits="userSpaceOnUse"
         id="clipPath3">
        <path
           d="M79 171 L162 171 L162 199 L79 199 L79 171 Z"
           id="path5715" />
      </clipPath>
      <clipPath
         clipPathUnits="userSpaceOnUse"
         id="clipPath4">
        <path
           d="M85 175 L155 175 L155 194 L85 194 L85 175 Z"
           id="path5718" />
      </clipPath>
      <clipPath
         clipPathUnits="userSpaceOnUse"
         id="clipPath5">
        <path
           d="M174 169 L196 169 L196 201 L174 201 L174 169 Z"
           id="path5721" />
      </clipPath>
      <clipPath
         clipPathUnits="userSpaceOnUse"
         id="clipPath6">
        <path
           d="M249 189 L291 189 L291 217 L249 217 L249 189 Z"
           id="path5724" />
      </clipPath>
      <clipPath
         clipPathUnits="userSpaceOnUse"
         id="clipPath7">
        <path
           d="M257 193 L282 193 L282 212 L257 212 L257 193 Z"
           id="path5727" />
      </clipPath>
      <clipPath
         clipPathUnits="userSpaceOnUse"
         id="clipPath8">
        <path
           d="M249 149 L291 149 L291 177 L249 177 L249 149 Z"
           id="path5730" />
      </clipPath>
      <clipPath
         clipPathUnits="userSpaceOnUse"
         id="clipPath9">
        <path
           d="M254 153 L285 153 L285 172 L254 172 L254 153 Z"
           id="path5733" />
      </clipPath>
      <clipPath
         clipPathUnits="userSpaceOnUse"
         id="clipPath10">
        <path
           d="M305 169 L327 169 L327 201 L305 201 L305 169 Z"
           id="path5736" />
      </clipPath>
      <clipPath
         clipPathUnits="userSpaceOnUse"
         id="clipPath11">
        <path
           d="M339 174 L361 174 L361 196 L339 196 L339 174 Z"
           id="path5739" />
      </clipPath>
      <clipPath
         clipPathUnits="userSpaceOnUse"
         id="clipPath12">
        <path
           d="M34 174 L56 174 L56 196 L34 196 L34 174 Z"
           id="path5742" />
      </clipPath>
      <clipPath
         clipPathUnits="userSpaceOnUse"
         id="clipPath13">
        <path
           d="M365 155 L365 200 L500 200 L500 167 L488 155 Z"
           id="path5745" />
      </clipPath>
      <clipPath
         clipPathUnits="userSpaceOnUse"
         id="clipPath14">
        <path
           d="M370 160 L487 160 L487 179 L370 179 L370 160 Z"
           id="path5748" />
      </clipPath>
      <clipPath
         clipPathUnits="userSpaceOnUse"
         id="clipPath15">
        <path
           d="M370 177 L479 177 L479 196 L370 196 L370 177 Z"
           id="path5751" />
      </clipPath>
      <clipPath
         clipPathUnits="userSpaceOnUse"
         id="clipPath16">
        <path
           d="M364 154 L502 154 L502 202 L364 202 L364 154 Z"
           id="path5754" />
      </clipPath>
      <clipPath
         clipPathUnits="userSpaceOnUse"
         id="clipPath17">
        <path
           d="M365 210 L365 255 L500 255 L500 222 L488 210 Z"
           id="path5757" />
      </clipPath>
      <clipPath
         clipPathUnits="userSpaceOnUse"
         id="clipPath18">
        <path
           d="M370 215 L487 215 L487 234 L370 234 L370 215 Z"
           id="path5760" />
      </clipPath>
      <clipPath
         clipPathUnits="userSpaceOnUse"
         id="clipPath19">
        <path
           d="M370 232 L483 232 L483 251 L370 251 L370 232 Z"
           id="path5763" />
      </clipPath>
      <clipPath
         clipPathUnits="userSpaceOnUse"
         id="clipPath20">
        <path
           d="M364 209 L502 209 L502 257 L364 257 L364 209 Z"
           id="path5766" />
      </clipPath>
      <clipPath
         clipPathUnits="userSpaceOnUse"
         id="clipPath21">
        <path
           d="M35 210 L35 255 L215 255 L215 222 L203 210 Z"
           id="path5769" />
      </clipPath>
      <clipPath
         clipPathUnits="userSpaceOnUse"
         id="clipPath22">
        <path
           d="M40 215 L202 215 L202 234 L40 234 L40 215 Z"
           id="path5772" />
      </clipPath>
      <clipPath
         clipPathUnits="userSpaceOnUse"
         id="clipPath23">
        <path
           d="M40 232 L182 232 L182 251 L40 251 L40 232 Z"
           id="path5775" />
      </clipPath>
      <clipPath
         clipPathUnits="userSpaceOnUse"
         id="clipPath24">
        <path
           d="M34 209 L217 209 L217 257 L34 257 L34 209 Z"
           id="path5778" />
      </clipPath>
      <clipPath
         clipPathUnits="userSpaceOnUse"
         id="clipPath25">
        <path
           d="M38 32 L90 32 L90 49 L38 49 L38 32 Z"
           id="path5781" />
      </clipPath>
      <clipPath
         clipPathUnits="userSpaceOnUse"
         id="clipPath26">
        <path
           d="M24 47 L104 47 L104 64 L24 64 L24 47 Z"
           id="path5784" />
      </clipPath>
      <clipPath
         clipPathUnits="userSpaceOnUse"
         id="clipPath27">
        <path
           d="M-1 -1 L878 -1 L878 778 L-1 778 L-1 -1 Z"
           id="path5787" />
      </clipPath>
      <clipPath
         clipPathUnits="userSpaceOnUse"
         id="clipPath28">
        <path
           d="M329 180 L342 180 L342 191 L329 191 L329 180 Z"
           id="path5790" />
      </clipPath>
      <clipPath
         clipPathUnits="userSpaceOnUse"
         id="clipPath29">
        <path
           d="M325 196 L331 196 L331 215 L325 215 L325 196 Z"
           id="path5793" />
      </clipPath>
      <clipPath
         clipPathUnits="userSpaceOnUse"
         id="clipPath30">
        <path
           d="M69 180 L82 180 L82 191 L69 191 L69 180 Z"
           id="path5796" />
      </clipPath>
      <clipPath
         clipPathUnits="userSpaceOnUse"
         id="clipPath31">
        <path
           d="M56 196 L62 196 L62 215 L56 215 L56 196 Z"
           id="path5799" />
      </clipPath>
      <clipPath
         clipPathUnits="userSpaceOnUse"
         id="clipPath32">
        <path
           d="M296 187 L310 187 L310 197 L296 197 L296 187 Z"
           id="path5802" />
      </clipPath>
      <clipPath
         clipPathUnits="userSpaceOnUse"
         id="clipPath33">
        <path
           d="M297 203 L303 203 L303 222 L297 222 L297 203 Z"
           id="path5805" />
      </clipPath>
      <clipPath
         clipPathUnits="userSpaceOnUse"
         id="clipPath34">
        <path
           d="M239 158 L252 158 L252 169 L239 169 L239 158 Z"
           id="path5808" />
      </clipPath>
      <clipPath
         clipPathUnits="userSpaceOnUse"
         id="clipPath35">
        <path
           d="M182 142 L239 142 L239 161 L182 161 L182 142 Z"
           id="path5811" />
      </clipPath>
      <clipPath
         clipPathUnits="userSpaceOnUse"
         id="clipPath36">
        <path
           d="M164 180 L177 180 L177 191 L164 191 L164 180 Z"
           id="path5814" />
      </clipPath>
      <clipPath
         clipPathUnits="userSpaceOnUse"
         id="clipPath37">
        <path
           d="M160 196 L166 196 L166 215 L160 215 L160 196 Z"
           id="path5817" />
      </clipPath>
      <clipPath
         clipPathUnits="userSpaceOnUse"
         id="clipPath38">
        <path
           d="M296 172 L310 172 L310 183 L296 183 L296 172 Z"
           id="path5820" />
      </clipPath>
      <clipPath
         clipPathUnits="userSpaceOnUse"
         id="clipPath39">
        <path
           d="M282 181 L288 181 L288 200 L282 200 L282 181 Z"
           id="path5823" />
      </clipPath>
      <clipPath
         clipPathUnits="userSpaceOnUse"
         id="clipPath40">
        <path
           d="M239 198 L252 198 L252 209 L239 209 L239 198 Z"
           id="path5826" />
      </clipPath>
      <clipPath
         clipPathUnits="userSpaceOnUse"
         id="clipPath41">
        <path
           d="M193 184 L234 184 L234 203 L193 203 L193 184 Z"
           id="path5829" />
      </clipPath>
    </defs>
    <rect
       style="fill:#ffffff;stroke:none;font-family:Segoe UI"
       id="rect5841"
       height="15"
       ry="7.5"
       rx="7.5"
       width="81"
       clip-path="url(#clipPath3)"
       y="172"
       x="80" />
    <rect
       style="fill:#c3d1d5;stroke:none;font-family:Segoe UI"
       id="rect5843"
       height="15"
       ry="7.5"
       rx="7.5"
       width="81"
       clip-path="url(#clipPath3)"
       y="183"
       x="80" />
    <rect
       style="fill:url(#linearGradient6051);stroke:none;font-family:Segoe UI"
       id="rect5845"
       height="11"
       width="81"
       clip-path="url(#clipPath3)"
       y="179"
       x="80" />
    <text
       style="font-size:13px;fill:#000000;stroke:none;font-family:Segoe UI"
       id="text5847"
       xml:space="preserve"
       clip-path="url(#clipPath4)"
       y="190"
       x="86"
       font-size="13">Assignment</text>
    <rect
       style="fill:none;stroke-width:1.10000002;stroke-linecap:butt;font-family:Segoe UI"
       id="rect5851"
       height="25"
       ry="7.5"
       rx="7.5"
       width="80"
       clip-path="url(#clipPath3)"
       y="172"
       x="80" />
    <polygon
       style="fill:#ffffff;stroke:none;font-family:Segoe UI"
       id="polygon5853"
       points="184,199 175,184 184,170 194,184 "
       clip-path="url(#clipPath5)" />
    <polygon
       style="fill:none;stroke-width:0.1;stroke-linecap:butt;font-family:Segoe UI"
       id="polygon5855"
       points="184,199 175,184 184,170 194,184 "
       clip-path="url(#clipPath5)" />
    <polygon
       style="fill:#ffffff;stroke:none;font-family:Segoe UI"
       id="polygon5857"
       points="184,199 175,184 184,170 194,184 "
       clip-path="url(#clipPath5)" />
    <polygon
       style="fill:none;stroke-width:1.10000002;stroke-linecap:butt;font-family:Segoe UI"
       id="polygon5859"
       points="184,199 175,184 184,170 194,184 "
       clip-path="url(#clipPath5)" />
    <rect
       style="fill:#ffffff;stroke:none;font-family:Segoe UI"
       id="rect5861"
       height="15"
       ry="7.5"
       rx="7.5"
       width="40"
       clip-path="url(#clipPath6)"
       y="190"
       x="250" />
    <rect
       style="fill:#c3d1d5;stroke:none;font-family:Segoe UI"
       id="rect5863"
       height="15"
       ry="7.5"
       rx="7.5"
       width="40"
       clip-path="url(#clipPath6)"
       y="201"
       x="250" />
    <rect
       style="fill:url(#linearGradient3);stroke:none;font-family:Segoe UI"
       id="rect5865"
       height="11"
       width="40"
       clip-path="url(#clipPath6)"
       y="197"
       x="250" />
    <text
       style="font-size:13px;stroke:none;font-family:Segoe UI"
       id="text5867"
       xml:space="preserve"
       clip-path="url(#clipPath7)"
       y="208"
       x="258"
       font-size="13">Else</text>
    <rect
       style="fill:none;stroke-width:1.10000002;stroke-linecap:butt;font-family:Segoe UI"
       id="rect5869"
       height="25"
       ry="7.5"
       rx="7.5"
       width="39"
       clip-path="url(#clipPath6)"
       y="190"
       x="250" />
    <rect
       style="fill:#ffffff;stroke:none;font-family:Segoe UI"
       id="rect5871"
       height="15"
       ry="7.5"
       rx="7.5"
       width="40"
       clip-path="url(#clipPath8)"
       y="150"
       x="250" />
    <rect
       style="fill:#c3d1d5;stroke:none;font-family:Segoe UI"
       id="rect5873"
       height="15"
       ry="7.5"
       rx="7.5"
       width="40"
       clip-path="url(#clipPath8)"
       y="161"
       x="250" />
    <rect
       style="fill:url(#linearGradient4);stroke:none;font-family:Segoe UI"
       id="rect5875"
       height="11"
       width="40"
       clip-path="url(#clipPath8)"
       y="157"
       x="250" />
    <text
       style="font-size:13px;stroke:none;font-family:Segoe UI"
       id="text5877"
       xml:space="preserve"
       clip-path="url(#clipPath9)"
       y="168"
       x="255"
       font-size="13">Then</text>
    <rect
       style="fill:none;stroke-width:1.10000002;stroke-linecap:butt;font-family:Segoe UI"
       id="rect5879"
       height="25"
       ry="7.5"
       rx="7.5"
       width="39"
       clip-path="url(#clipPath8)"
       y="150"
       x="250" />
    <polygon
       style="fill:#ffffff;stroke:none;font-family:Segoe UI"
       id="polygon5881"
       points="315,199 306,184 315,170 325,184 "
       clip-path="url(#clipPath10)" />
    <polygon
       style="fill:none;stroke-width:0.1;stroke-linecap:butt;font-family:Segoe UI"
       id="polygon5883"
       points="315,199 306,184 315,170 325,184 "
       clip-path="url(#clipPath10)" />
    <polygon
       style="fill:#ffffff;stroke:none;font-family:Segoe UI"
       id="polygon5885"
       points="315,199 306,184 315,170 325,184 "
       clip-path="url(#clipPath10)" />
    <polygon
       style="fill:none;stroke-width:1.10000002;stroke-linecap:butt;font-family:Segoe UI"
       id="polygon5887"
       points="315,199 306,184 315,170 325,184 "
       clip-path="url(#clipPath10)" />
    <circle
       style="fill:#ffffff;stroke:none;font-family:Segoe UI"
       sodipodi:ry="9.5"
       sodipodi:rx="9.5"
       sodipodi:cy="184.5"
       sodipodi:cx="349.5"
       id="circle5889"
       cy="184.5"
       cx="349.5"
       r="9.5"
       clip-path="url(#clipPath11)"
       d="m 359,184.5 c 0,5.24671 -4.25329,9.5 -9.5,9.5 -5.24671,0 -9.5,-4.25329 -9.5,-9.5 0,-5.24671 4.25329,-9.5 9.5,-9.5 5.24671,0 9.5,4.25329 9.5,9.5 z" />
    <circle
       style="fill:none;stroke-width:0.1;stroke-linecap:butt;font-family:Segoe UI"
       sodipodi:ry="9.5"
       sodipodi:rx="9.5"
       sodipodi:cy="184.5"
       sodipodi:cx="349.5"
       id="circle5891"
       cy="184.5"
       cx="349.5"
       r="9.5"
       clip-path="url(#clipPath11)"
       d="m 359,184.5 c 0,5.24671 -4.25329,9.5 -9.5,9.5 -5.24671,0 -9.5,-4.25329 -9.5,-9.5 0,-5.24671 4.25329,-9.5 9.5,-9.5 5.24671,0 9.5,4.25329 9.5,9.5 z" />
    <circle
       style="fill:none;stroke-width:0.1;stroke-linecap:butt;font-family:Segoe UI"
       sodipodi:ry="9.5"
       sodipodi:rx="9.5"
       sodipodi:cy="184.5"
       sodipodi:cx="349.5"
       id="circle5893"
       cy="184.5"
       cx="349.5"
       r="9.5"
       clip-path="url(#clipPath11)"
       d="m 359,184.5 c 0,5.24671 -4.25329,9.5 -9.5,9.5 -5.24671,0 -9.5,-4.25329 -9.5,-9.5 0,-5.24671 4.25329,-9.5 9.5,-9.5 5.24671,0 9.5,4.25329 9.5,9.5 z" />
    <circle
       style="stroke:none;font-family:Segoe UI"
       sodipodi:ry="4"
       sodipodi:rx="4"
       sodipodi:cy="184"
       sodipodi:cx="349"
       id="circle5895"
       cy="184"
       cx="349"
       r="4"
       clip-path="url(#clipPath11)"
       d="m 353,184 c 0,2.20914 -1.79086,4 -4,4 -2.20914,0 -4,-1.79086 -4,-4 0,-2.20914 1.79086,-4 4,-4 2.20914,0 4,1.79086 4,4 z" />
    <circle
       style="fill:#ffffff;stroke:none;font-family:Segoe UI"
       sodipodi:ry="9.5"
       sodipodi:rx="9.5"
       sodipodi:cy="184.5"
       sodipodi:cx="44.5"
       id="circle5897"
       cy="184.5"
       cx="44.5"
       r="9.5"
       clip-path="url(#clipPath12)"
       d="m 54,184.5 c 0,5.24671 -4.253295,9.5 -9.5,9.5 -5.246705,0 -9.5,-4.25329 -9.5,-9.5 0,-5.24671 4.253295,-9.5 9.5,-9.5 5.246705,0 9.5,4.25329 9.5,9.5 z" />
    <circle
       style="fill:none;stroke-width:0.1;stroke-linecap:butt;font-family:Segoe UI"
       sodipodi:ry="9.5"
       sodipodi:rx="9.5"
       sodipodi:cy="184.5"
       sodipodi:cx="44.5"
       id="circle5899"
       cy="184.5"
       cx="44.5"
       r="9.5"
       clip-path="url(#clipPath12)"
       d="m 54,184.5 c 0,5.24671 -4.253295,9.5 -9.5,9.5 -5.246705,0 -9.5,-4.25329 -9.5,-9.5 0,-5.24671 4.253295,-9.5 9.5,-9.5 5.246705,0 9.5,4.25329 9.5,9.5 z" />
    <circle
       style="stroke:none;font-family:Segoe UI"
       sodipodi:ry="9.5"
       sodipodi:rx="9.5"
       sodipodi:cy="184.5"
       sodipodi:cx="44.5"
       id="circle5901"
       cy="184.5"
       cx="44.5"
       r="9.5"
       clip-path="url(#clipPath12)"
       d="m 54,184.5 c 0,5.24671 -4.253295,9.5 -9.5,9.5 -5.246705,0 -9.5,-4.25329 -9.5,-9.5 0,-5.24671 4.253295,-9.5 9.5,-9.5 5.246705,0 9.5,4.25329 9.5,9.5 z" />
    <rect
       style="font-size:13px;fill:url(#linearGradient6087);stroke:none;font-family:Segoe UI"
       id="rect5905"
       height="46"
       width="136"
       clip-path="url(#clipPath13)"
       y="155"
       x="365" />
    <text
       style="font-size:13px;fill:#000000;stroke:none;font-family:Segoe UI"
       id="text5907"
       xml:space="preserve"
       clip-path="url(#clipPath14)"
       y="175"
       x="374">\guillemotleft{localPostcondition}\guillemotright</text>
    <text
       style="font-size:13px;fill:#000000;stroke:none;font-family:Segoe UI"
       id="text5909"
       xml:space="preserve"
       clip-path="url(#clipPath15)"
       y="192"
       x="371">$returnValue=\mbox{true}$</text>
    <line
       style="font-size:13px;fill:none;stroke:#000000;stroke-width:1.10000002;stroke-linecap:butt;font-family:Segoe UI"
       id="line5911"
       y2="155"
       y1="155"
       x2="488"
       x1="365"
       clip-path="url(#clipPath16)" />
    <line
       style="font-size:13px;fill:none;stroke:#000000;stroke-width:1.10000002;stroke-linecap:butt;font-family:Segoe UI"
       id="line5913"
       y2="167"
       y1="155"
       x2="500"
       x1="488"
       clip-path="url(#clipPath16)" />
    <line
       style="font-size:13px;fill:none;stroke:#000000;stroke-width:1.10000002;stroke-linecap:butt;font-family:Segoe UI"
       id="line5915"
       y2="200"
       y1="167"
       x2="500"
       x1="500"
       clip-path="url(#clipPath16)" />
    <line
       style="font-size:13px;fill:none;stroke:#000000;stroke-width:1.10000002;stroke-linecap:butt;font-family:Segoe UI"
       id="line5917"
       y2="200"
       y1="200"
       x2="365"
       x1="500"
       clip-path="url(#clipPath16)" />
    <line
       style="font-size:13px;fill:none;stroke:#000000;stroke-width:1.10000002;stroke-linecap:butt;font-family:Segoe UI"
       id="line5919"
       y2="155"
       y1="200"
       x2="365"
       x1="365"
       clip-path="url(#clipPath16)" />
    <line
       style="font-size:13px;fill:none;stroke:#000000;stroke-width:1.10000002;stroke-linecap:butt;font-family:Segoe UI"
       id="line5921"
       y2="155"
       y1="155"
       x2="365"
       x1="365"
       clip-path="url(#clipPath16)" />
    <line
       style="font-size:13px;fill:none;stroke:#000000;stroke-width:1.10000002;stroke-linecap:butt;font-family:Segoe UI"
       id="line5923"
       y2="167"
       y1="155"
       x2="488"
       x1="488"
       clip-path="url(#clipPath16)" />
    <line
       style="font-size:13px;fill:none;stroke:#000000;stroke-width:1.10000002;stroke-linecap:butt;font-family:Segoe UI"
       id="line5925"
       y2="167"
       y1="167"
       x2="501"
       x1="488"
       clip-path="url(#clipPath16)" />
    <rect
       style="font-size:13px;fill:url(#linearGradient6);stroke:none;font-family:Segoe UI"
       id="rect5927"
       height="46"
       width="136"
       clip-path="url(#clipPath17)"
       y="210"
       x="365" />
    <text
       style="font-size:13px;fill:#000000;stroke:none;font-family:Segoe UI"
       id="text5929"
       xml:space="preserve"
       clip-path="url(#clipPath18)"
       y="230"
       x="374">\guillemotleft{localPostcondition}\guillemotright</text>
    <text
       style="font-size:13px;fill:#000000;stroke:none;font-family:Segoe UI"
       id="text5931"
       xml:space="preserve"
       clip-path="url(#clipPath19)"
       y="247"
       x="371">$returnValue=\mbox{false}$</text>
    <line
       style="font-size:13px;fill:none;stroke:#000000;stroke-width:1.10000002;stroke-linecap:butt;font-family:Segoe UI"
       id="line5933"
       y2="210"
       y1="210"
       x2="488"
       x1="365"
       clip-path="url(#clipPath20)" />
    <line
       style="font-size:13px;fill:none;stroke:#000000;stroke-width:1.10000002;stroke-linecap:butt;font-family:Segoe UI"
       id="line5935"
       y2="222"
       y1="210"
       x2="500"
       x1="488"
       clip-path="url(#clipPath20)" />
    <line
       style="font-size:13px;fill:none;stroke:#000000;stroke-width:1.10000002;stroke-linecap:butt;font-family:Segoe UI"
       id="line5937"
       y2="255"
       y1="222"
       x2="500"
       x1="500"
       clip-path="url(#clipPath20)" />
    <line
       style="font-size:13px;fill:none;stroke:#000000;stroke-width:1.10000002;stroke-linecap:butt;font-family:Segoe UI"
       id="line5939"
       y2="255"
       y1="255"
       x2="365"
       x1="500"
       clip-path="url(#clipPath20)" />
    <line
       style="font-size:13px;fill:none;stroke:#000000;stroke-width:1.10000002;stroke-linecap:butt;font-family:Segoe UI"
       id="line5941"
       y2="210"
       y1="255"
       x2="365"
       x1="365"
       clip-path="url(#clipPath20)" />
    <line
       style="font-size:13px;fill:none;stroke:#000000;stroke-width:1.10000002;stroke-linecap:butt;font-family:Segoe UI"
       id="line5943"
       y2="210"
       y1="210"
       x2="365"
       x1="365"
       clip-path="url(#clipPath20)" />
    <line
       style="font-size:13px;fill:none;stroke:#000000;stroke-width:1.10000002;stroke-linecap:butt;font-family:Segoe UI"
       id="line5945"
       y2="222"
       y1="210"
       x2="488"
       x1="488"
       clip-path="url(#clipPath20)" />
    <line
       style="font-size:13px;fill:none;stroke:#000000;stroke-width:1.10000002;stroke-linecap:butt;font-family:Segoe UI"
       id="line5947"
       y2="222"
       y1="222"
       x2="501"
       x1="488"
       clip-path="url(#clipPath20)" />
    <rect
       style="font-size:13px;fill:url(#linearGradient7);stroke:none;font-family:Segoe UI"
       id="rect5949"
       height="46"
       width="181"
       clip-path="url(#clipPath21)"
       y="210"
       x="35" />
    <text
       style="font-size:13px;fill:#000000;stroke:none;font-family:Segoe UI"
       id="text5951"
       xml:space="preserve"
       clip-path="url(#clipPath22)"
       y="230"
       x="60">\guillemotleft{localPostcondition}\guillemotright</text>
    <text
       style="font-size:13px;fill:#000000;stroke:none;font-family:Segoe UI"
       id="text5953"
       xml:space="preserve"
       clip-path="url(#clipPath23)"
       y="247"
       x="41">$a\cdot x=2\cdot x\mbox{@pre}\cdot x\mbox{@pre}-3$</text>
    <line
       style="font-size:13px;fill:none;stroke:#000000;stroke-width:1.10000002;stroke-linecap:butt;font-family:Segoe UI"
       id="line5955"
       y2="210"
       y1="210"
       x2="203"
       x1="35"
       clip-path="url(#clipPath24)" />
    <line
       style="font-size:13px;fill:none;stroke:#000000;stroke-width:1.10000002;stroke-linecap:butt;font-family:Segoe UI"
       id="line5957"
       y2="222"
       y1="210"
       x2="215"
       x1="203"
       clip-path="url(#clipPath24)" />
    <line
       style="font-size:13px;fill:none;stroke:#000000;stroke-width:1.10000002;stroke-linecap:butt;font-family:Segoe UI"
       id="line5959"
       y2="255"
       y1="222"
       x2="215"
       x1="215"
       clip-path="url(#clipPath24)" />
    <line
       style="font-size:13px;fill:none;stroke:#000000;stroke-width:1.10000002;stroke-linecap:butt;font-family:Segoe UI"
       id="line5961"
       y2="255"
       y1="255"
       x2="35"
       x1="215"
       clip-path="url(#clipPath24)" />
    <line
       style="font-size:13px;fill:none;stroke:#000000;stroke-width:1.10000002;stroke-linecap:butt;font-family:Segoe UI"
       id="line5963"
       y2="210"
       y1="255"
       x2="35"
       x1="35"
       clip-path="url(#clipPath24)" />
    <line
       style="font-size:13px;fill:none;stroke:#000000;stroke-width:1.10000002;stroke-linecap:butt;font-family:Segoe UI"
       id="line5965"
       y2="210"
       y1="210"
       x2="35"
       x1="35"
       clip-path="url(#clipPath24)" />
    <line
       style="font-size:13px;fill:none;stroke:#000000;stroke-width:1.10000002;stroke-linecap:butt;font-family:Segoe UI"
       id="line5967"
       y2="222"
       y1="210"
       x2="203"
       x1="203"
       clip-path="url(#clipPath24)" />
    <line
       style="font-size:13px;fill:none;stroke:#000000;stroke-width:1.10000002;stroke-linecap:butt;font-family:Segoe UI"
       id="line5969"
       y2="222"
       y1="222"
       x2="216"
       x1="203"
       clip-path="url(#clipPath24)" />
    <line
       style="fill:none;stroke-width:1.10000002;stroke-linecap:butt;font-family:Segoe UI"
       id="line5979"
       y2="185"
       y1="185"
       x2="340"
       x1="326"
       text-rendering="optimizeLegibility"
       clip-path="url(#clipPath27)" />
    <line
       style="fill:none;stroke-width:1.10000002;stroke-linecap:butt;font-family:Segoe UI"
       id="line5981"
       y2="185"
       y1="189"
       x2="340"
       x1="330"
       text-rendering="optimizeLegibility"
       clip-path="url(#clipPath28)" />
    <line
       style="fill:none;stroke-width:1.10000002;stroke-linecap:butt;font-family:Segoe UI"
       id="line5983"
       y2="181"
       y1="185"
       x2="330"
       x1="340"
       text-rendering="optimizeLegibility"
       clip-path="url(#clipPath28)" />
    <text
       style="font-size:13px;stroke:none;font-family:Segoe UI"
       id="text5985"
       xml:space="preserve"
       text-rendering="optimizeLegibility"
       clip-path="url(#clipPath29)"
       y="211"
       x="326"
       font-size="13"> </text>
    <line
       style="fill:none;stroke-width:1.10000002;stroke-linecap:butt;font-family:Segoe UI"
       id="line5987"
       y2="185"
       y1="185"
       x2="80"
       x1="55"
       text-rendering="optimizeLegibility"
       clip-path="url(#clipPath27)" />
    <line
       style="fill:none;stroke-width:1.10000002;stroke-linecap:butt;font-family:Segoe UI"
       id="line5989"
       y2="185"
       y1="189"
       x2="80"
       x1="70"
       text-rendering="optimizeLegibility"
       clip-path="url(#clipPath30)" />
    <line
       style="fill:none;stroke-width:1.10000002;stroke-linecap:butt;font-family:Segoe UI"
       id="line5991"
       y2="181"
       y1="185"
       x2="70"
       x1="80"
       text-rendering="optimizeLegibility"
       clip-path="url(#clipPath30)" />
    <text
       style="font-size:13px;stroke:none;font-family:Segoe UI"
       id="text5993"
       xml:space="preserve"
       text-rendering="optimizeLegibility"
       clip-path="url(#clipPath31)"
       y="211"
       x="57"
       font-size="13"> </text>
    <line
       style="fill:none;stroke-width:1.10000002;stroke-linecap:butt;stroke-dasharray:6.6, 3.3;font-family:Segoe UI"
       id="line5995"
       y2="210"
       y1="198"
       x2="125"
       x1="125"
       text-rendering="optimizeLegibility"
       clip-path="url(#clipPath27)" />
    <line
       style="fill:none;stroke-width:1.10000002;stroke-linecap:butt;font-family:Segoe UI"
       id="line5997"
       y2="188"
       y1="195"
       x2="308"
       x1="290"
       text-rendering="optimizeLegibility"
       clip-path="url(#clipPath27)" />
    <line
       style="fill:none;stroke-width:1.10000002;stroke-linecap:butt;font-family:Segoe UI"
       id="line5999"
       y2="188"
       y1="195"
       x2="308"
       x1="300"
       text-rendering="optimizeLegibility"
       clip-path="url(#clipPath32)" />
    <line
       style="fill:none;stroke-width:1.10000002;stroke-linecap:butt;font-family:Segoe UI"
       id="line6001"
       y2="188"
       y1="188"
       x2="297"
       x1="308"
       text-rendering="optimizeLegibility"
       clip-path="url(#clipPath32)" />
    <text
       style="font-size:13px;stroke:none;font-family:Segoe UI"
       id="text6003"
       xml:space="preserve"
       text-rendering="optimizeLegibility"
       clip-path="url(#clipPath33)"
       y="218"
       x="298"
       font-size="13"> </text>
    <line
       style="fill:none;stroke-width:1.10000002;stroke-linecap:butt;font-family:Segoe UI"
       id="line6005"
       y2="163"
       y1="170"
       x2="185"
       x1="185"
       text-rendering="optimizeLegibility"
       clip-path="url(#clipPath27)" />
    <line
       style="fill:none;stroke-width:1.10000002;stroke-linecap:butt;font-family:Segoe UI"
       id="line6007"
       y2="163"
       y1="163"
       x2="250"
       x1="185"
       text-rendering="optimizeLegibility"
       clip-path="url(#clipPath27)" />
    <line
       style="fill:none;stroke-width:1.10000002;stroke-linecap:butt;font-family:Segoe UI"
       id="line6009"
       y2="163"
       y1="167"
       x2="250"
       x1="240"
       text-rendering="optimizeLegibility"
       clip-path="url(#clipPath34)" />
    <line
       style="fill:none;stroke-width:1.10000002;stroke-linecap:butt;font-family:Segoe UI"
       id="line6011"
       y2="159"
       y1="163"
       x2="240"
       x1="250"
       text-rendering="optimizeLegibility"
       clip-path="url(#clipPath34)" />
    <text
       style="font-size:13px;stroke:none;font-family:Segoe UI"
       id="text6013"
       xml:space="preserve"
       text-rendering="optimizeLegibility"
       clip-path="url(#clipPath35)"
       y="157"
       x="183"
       font-size="13"
       transform="translate(-6,0)">$[x\geq a+1]$</text>
    <line
       style="fill:none;stroke-width:1.10000002;stroke-linecap:butt;font-family:Segoe UI"
       id="line6015"
       y2="185"
       y1="185"
       x2="175"
       x1="161"
       text-rendering="optimizeLegibility"
       clip-path="url(#clipPath27)" />
    <line
       style="fill:none;stroke-width:1.10000002;stroke-linecap:butt;font-family:Segoe UI"
       id="line6017"
       y2="185"
       y1="189"
       x2="175"
       x1="165"
       text-rendering="optimizeLegibility"
       clip-path="url(#clipPath36)" />
    <line
       style="fill:none;stroke-width:1.10000002;stroke-linecap:butt;font-family:Segoe UI"
       id="line6019"
       y2="181"
       y1="185"
       x2="165"
       x1="175"
       text-rendering="optimizeLegibility"
       clip-path="url(#clipPath36)" />
    <text
       style="font-size:13px;stroke:none;font-family:Segoe UI"
       id="text6021"
       xml:space="preserve"
       text-rendering="optimizeLegibility"
       clip-path="url(#clipPath37)"
       y="211"
       x="161"
       font-size="13"> </text>
    <line
       style="fill:none;stroke-width:1.10000002;stroke-linecap:butt;stroke-dasharray:6.6, 3.3;font-family:Segoe UI"
       id="line6023"
       y2="220"
       y1="206"
       x2="365"
       x1="290"
       text-rendering="optimizeLegibility"
       clip-path="url(#clipPath27)" />
    <line
       style="fill:none;stroke-width:1.10000002;stroke-linecap:butt;font-family:Segoe UI"
       id="line6025"
       y2="181"
       y1="172"
       x2="308"
       x1="290"
       text-rendering="optimizeLegibility"
       clip-path="url(#clipPath27)" />
    <line
       style="fill:none;stroke-width:1.10000002;stroke-linecap:butt;font-family:Segoe UI"
       id="line6027"
       y2="181"
       y1="180"
       x2="308"
       x1="297"
       text-rendering="optimizeLegibility"
       clip-path="url(#clipPath38)" />
    <line
       style="fill:none;stroke-width:1.10000002;stroke-linecap:butt;font-family:Segoe UI"
       id="line6029"
       y2="173"
       y1="181"
       x2="301"
       x1="308"
       text-rendering="optimizeLegibility"
       clip-path="url(#clipPath38)" />
    <text
       style="font-size:13px;stroke:none;font-family:Segoe UI"
       id="text6031"
       xml:space="preserve"
       text-rendering="optimizeLegibility"
       clip-path="url(#clipPath39)"
       y="196"
       x="283"
       font-size="13"> </text>
    <line
       style="fill:none;stroke-width:1.10000002;stroke-linecap:butt;font-family:Segoe UI"
       id="line6033"
       y2="203"
       y1="200"
       x2="185"
       x1="185"
       text-rendering="optimizeLegibility"
       clip-path="url(#clipPath27)" />
    <line
       style="fill:none;stroke-width:1.10000002;stroke-linecap:butt;font-family:Segoe UI"
       id="line6035"
       y2="203"
       y1="203"
       x2="250"
       x1="185"
       text-rendering="optimizeLegibility"
       clip-path="url(#clipPath27)" />
    <line
       style="fill:none;stroke-width:1.10000002;stroke-linecap:butt;font-family:Segoe UI"
       id="line6037"
       y2="203"
       y1="207"
       x2="250"
       x1="240"
       text-rendering="optimizeLegibility"
       clip-path="url(#clipPath40)" />
    <line
       style="fill:none;stroke-width:1.10000002;stroke-linecap:butt;font-family:Segoe UI"
       id="line6039"
       y2="199"
       y1="203"
       x2="240"
       x1="250"
       text-rendering="optimizeLegibility"
       clip-path="url(#clipPath40)" />
    <text
       style="font-size:13px;stroke:none;font-family:Segoe UI"
       id="text6041"
       xml:space="preserve"
       text-rendering="optimizeLegibility"
       clip-path="url(#clipPath41)"
       y="199"
       x="194"
       font-size="13"
       transform="translate(0,-2)">$[x\leq a]$</text>
    <line
       style="fill:none;stroke-width:1.10000002;stroke-linecap:butt;stroke-dasharray:6.6, 3.3;font-family:Segoe UI"
       id="line6043"
       y2="155"
       y1="155"
       x2="365"
       x1="290"
       text-rendering="optimizeLegibility"
       clip-path="url(#clipPath27)" />
  </g>
</svg>
