<?xml version="1.0" encoding="UTF-8" standalone="no"?>
<!-- Created with Inkscape (http://www.inkscape.org/) -->

<svg
   xmlns:dc="http://purl.org/dc/elements/1.1/"
   xmlns:cc="http://creativecommons.org/ns#"
   xmlns:rdf="http://www.w3.org/1999/02/22-rdf-syntax-ns#"
   xmlns:svg="http://www.w3.org/2000/svg"
   xmlns="http://www.w3.org/2000/svg"
   xmlns:sodipodi="http://sodipodi.sourceforge.net/DTD/sodipodi-0.dtd"
   xmlns:inkscape="http://www.inkscape.org/namespaces/inkscape"
   width="199.13374"
   height="26.33375"
   id="svg3715"
   version="1.1"
   inkscape:version="0.48.4 r9939"
   sodipodi:docname="Neues Dokument 2">
  <defs
     id="defs3717">
    <clipPath
       clipPathUnits="userSpaceOnUse"
       id="clipPath258">
      <path
         inkscape:connector-curvature="0"
         d="m 36,19.489 159.307,0 0,25.866 -159.307,0 0,-25.866 z"
         id="path260" />
    </clipPath>
    <linearGradient
       x1="0"
       y1="0"
       x2="1"
       y2="0"
       gradientUnits="userSpaceOnUse"
       gradientTransform="matrix(0,-5.1954803,-5.1954803,0,46.533279,43.988586)"
       spreadMethod="pad"
       id="linearGradient246">
      <stop
         style="stop-opacity:1;stop-color:#8d96a9"
         offset="0"
         id="stop248" />
      <stop
         style="stop-opacity:1;stop-color:#7d899f"
         offset="1"
         id="stop250" />
    </linearGradient>
    <linearGradient
       x1="0"
       y1="0"
       x2="1"
       y2="0"
       gradientUnits="userSpaceOnUse"
       gradientTransform="matrix(0,-12.710648,-12.710648,0,46.532837,39.968674)"
       spreadMethod="pad"
       id="linearGradient226">
      <stop
         style="stop-opacity:1;stop-color:#5c7088"
         offset="0"
         id="stop228" />
      <stop
         style="stop-opacity:1;stop-color:#7b869d"
         offset="1"
         id="stop230" />
    </linearGradient>
    <linearGradient
       x1="0"
       y1="0"
       x2="1"
       y2="0"
       gradientUnits="userSpaceOnUse"
       gradientTransform="matrix(0,4.0824432,4.0824432,0,46.532196,40.772537)"
       spreadMethod="pad"
       id="linearGradient206">
      <stop
         style="stop-opacity:1;stop-color:#848ea3"
         offset="0"
         id="stop208" />
      <stop
         style="stop-opacity:1;stop-color:#b4bdc7"
         offset="1"
         id="stop210" />
    </linearGradient>
    <linearGradient
       x1="0"
       y1="0"
       x2="1"
       y2="0"
       gradientUnits="userSpaceOnUse"
       gradientTransform="matrix(0,9.722702,9.722702,0,46.532837,33.470978)"
       spreadMethod="pad"
       id="linearGradient186">
      <stop
         style="stop-opacity:1;stop-color:#b4bdc7"
         offset="0"
         id="stop188" />
      <stop
         style="stop-opacity:1;stop-color:#5c7088"
         offset="1"
         id="stop190" />
    </linearGradient>
    <clipPath
       clipPathUnits="userSpaceOnUse"
       id="clipPath144">
      <path
         inkscape:connector-curvature="0"
         d="m 36,19.489 159.307,0 0,25.866 -159.307,0 0,-25.866 z"
         id="path146" />
    </clipPath>
  </defs>
  <sodipodi:namedview
     id="base"
     pagecolor="#ffffff"
     bordercolor="#666666"
     borderopacity="1.0"
     inkscape:pageopacity="0.0"
     inkscape:pageshadow="2"
     inkscape:zoom="0.7"
     inkscape:cx="84.966807"
     inkscape:cy="4.9590302"
     inkscape:document-units="px"
     inkscape:current-layer="layer1"
     showgrid="false"
     fit-margin-top="0"
     fit-margin-left="0"
     fit-margin-right="0"
     fit-margin-bottom="0"
     inkscape:window-width="496"
     inkscape:window-height="424"
     inkscape:window-x="22"
     inkscape:window-y="22"
     inkscape:window-maximized="0" />
  <metadata
     id="metadata3720">
    <rdf:RDF>
      <cc:Work
         rdf:about="">
        <dc:format>image/svg+xml</dc:format>
        <dc:type
           rdf:resource="http://purl.org/dc/dcmitype/StillImage" />
        <dc:title></dc:title>
      </cc:Work>
    </rdf:RDF>
  </metadata>
  <g
     inkscape:label="Ebene 1"
     inkscape:groupmode="layer"
     id="layer1"
     transform="translate(-174.71884,-382.05245)">
    <g
       transform="matrix(1.25,0,0,-1.25,129.71884,438.7462)"
       id="g140">
      <g
         id="g142"
         clip-path="url(#clipPath144)">
        <g
           id="g148"
           transform="translate(134.3017,33.3047)">
          <path
             inkscape:connector-curvature="0"
             d="m 0,0 2.72,0.324 c 0.326,-0.861 1.578,-1.291 3.757,-1.291 0.993,0 1.758,0.11 2.293,0.33 0.535,0.221 0.803,0.495 0.803,0.822 0,0.237 -0.122,0.457 -0.365,0.658 C 8.965,1.045 8.445,1.203 7.649,1.317 L 4.678,1.75 C 3.661,1.899 2.91,2.067 2.424,2.257 1.938,2.445 1.549,2.711 1.257,3.054 0.965,3.398 0.819,3.765 0.819,4.156 c 0,0.776 0.516,1.399 1.549,1.867 1.031,0.469 2.351,0.704 3.96,0.704 1.336,0 2.529,-0.164 3.58,-0.49 1.051,-0.327 1.721,-0.789 2.009,-1.388 L 9.253,4.48 C 8.843,5.137 7.887,5.466 6.386,5.466 5.513,5.466 4.847,5.365 4.387,5.162 3.929,4.957 3.699,4.699 3.699,4.385 3.699,3.889 4.419,3.54 5.861,3.34 L 8.502,2.972 c 1.602,-0.225 2.675,-0.557 3.222,-0.996 0.545,-0.439 0.819,-0.924 0.819,-1.454 0,-0.853 -0.575,-1.525 -1.725,-2.014 -1.149,-0.49 -2.638,-0.735 -4.467,-0.735 -1.541,0 -2.89,0.179 -4.047,0.54 C 1.148,-1.326 0.379,-0.763 0,0"
             style="fill:#b9345c;fill-opacity:1;fill-rule:nonzero;stroke:none"
             id="path150" />
        </g>
        <g
           id="g152"
           transform="translate(163.6478,31.2106)">
          <path
             inkscape:connector-curvature="0"
             d="m 0,0 -2.413,0 0,1.387 c -0.652,-1.014 -1.863,-1.52 -3.631,-1.52 -1.047,0 -1.879,0.181 -2.493,0.544 -0.615,0.362 -0.922,0.869 -0.922,1.517 l 0,4.5 2.652,0 0,-4.188 c 0,-0.463 0.182,-0.766 0.546,-0.909 0.364,-0.145 0.721,-0.217 1.07,-0.217 0.561,0 1.135,0.141 1.719,0.424 0.585,0.281 0.877,0.882 0.877,1.803 l 0,3.087 L 0,6.428 0,0 z"
             style="fill:#b9345c;fill-opacity:1;fill-rule:nonzero;stroke:none"
             id="path154" />
        </g>
        <g
           id="g156"
           transform="translate(172.4531,35.0039)">
          <path
             inkscape:connector-curvature="0"
             d="m 0,0 c 0,0.522 -0.221,0.928 -0.665,1.219 -0.445,0.29 -1.02,0.436 -1.725,0.436 -0.767,0 -1.366,-0.187 -1.799,-0.56 -0.433,-0.374 -0.648,-0.932 -0.648,-1.674 0,-1.434 0.804,-2.151 2.412,-2.151 0.637,0 1.201,0.154 1.691,0.461 C -0.245,-1.961 0,-1.568 0,-1.088 L 0,0 z m 2.595,-3.793 -2.425,0 0,1.299 c -0.667,-0.955 -1.798,-1.433 -3.391,-1.433 -1.411,0 -2.494,0.329 -3.244,0.986 -0.751,0.658 -1.127,1.475 -1.127,2.451 0,0.908 0.391,1.699 1.172,2.374 0.783,0.674 1.894,1.011 3.336,1.011 1.479,0 2.508,-0.377 3.084,-1.133 l 0,3.132 2.595,0 0,-8.687 z"
             style="fill:#b9345c;fill-opacity:1;fill-rule:nonzero;stroke:none"
             id="path158" />
        </g>
        <g
           id="g160"
           transform="translate(186.1135,32.2737)">
          <path
             inkscape:connector-curvature="0"
             d="M 0,0 C 1.747,0 2.619,0.728 2.619,2.183 2.619,2.84 2.41,3.359 1.993,3.739 1.576,4.119 0.934,4.308 0.07,4.308 -0.826,4.308 -1.49,4.112 -1.922,3.72 -2.355,3.327 -2.571,2.806 -2.571,2.158 c 0,-0.7 0.229,-1.235 0.688,-1.604 C -1.424,0.185 -0.796,0 0,0 m -0.09,-1.196 c -1.7,0 -2.997,0.341 -3.893,1.024 -0.895,0.683 -1.343,1.466 -1.343,2.348 0,0.95 0.496,1.742 1.485,2.374 0.991,0.633 2.297,0.949 3.922,0.949 1.54,0 2.806,-0.308 3.795,-0.923 C 4.866,3.96 5.362,3.161 5.362,2.176 5.362,1.162 4.848,0.347 3.82,-0.27 2.791,-0.888 1.488,-1.196 -0.09,-1.196"
             style="fill:#b9345c;fill-opacity:1;fill-rule:nonzero;stroke:none"
             id="path162" />
        </g>
        <g
           id="g164"
           transform="translate(150.9672,33.165)">
          <path
             inkscape:connector-curvature="0"
             d="m 0,0 0,3.258 2.526,0 0,1.162 -2.526,0 0,1.439 -2.876,0 0,-1.439 -1.566,0 0,-1.162 1.566,0 0,-3.481 c 0,-1.093 0.964,-1.712 2.889,-1.858 l 0,1.917 C 0.004,-0.112 0,-0.058 0,0"
             style="fill:#b9345c;fill-opacity:1;fill-rule:nonzero;stroke:none"
             id="path166" />
        </g>
        <path
           inkscape:connector-curvature="0"
           d="m 179.675,37.605 -2.869,0 0,-6.474 2.869,0 0,6.474 z"
           style="fill:#b9345c;fill-opacity:1;fill-rule:nonzero;stroke:none"
           id="path168" />
        <g
           id="g170"
           transform="translate(177.905,40.023)">
          <path
             inkscape:connector-curvature="0"
             d="m 0,0 -1.069,-1.546 2.857,0 L 2.856,0 0,0 z"
             style="fill:#b9345c;fill-opacity:1;fill-rule:nonzero;stroke:none"
             id="path172" />
        </g>
      </g>
    </g>
    <g
       transform="matrix(1.25,0,0,-1.25,129.71884,438.7462)"
       id="g174">
      <g
         id="g176">
        <g
           id="g182">
          <g
             id="g184">
            <path
               inkscape:connector-curvature="0"
               d="m 46.532,35.48 c -3.918,0 -7.097,3.162 -7.131,7.074 l 0,0 C 37.316,40.63 36,37.883 36,34.821 l 0,0 c 0,-5.817 4.715,-10.533 10.532,-10.533 l 0,0 c 5.818,0 10.533,4.716 10.533,10.533 l 0,0 c 0,3.062 -1.316,5.808 -3.402,7.733 l 0,0 C 53.631,38.641 50.451,35.48 46.532,35.48"
               style="fill:url(#linearGradient186);stroke:none"
               id="path192" />
          </g>
        </g>
      </g>
    </g>
    <g
       transform="matrix(1.25,0,0,-1.25,129.71884,438.7462)"
       id="g194">
      <g
         id="g196">
        <g
           id="g202">
          <g
             id="g204">
            <path
               inkscape:connector-curvature="0"
               d="m 39.491,42.638 c -0.03,-0.027 -0.059,-0.057 -0.09,-0.084 l 0,0 c 0.034,-3.912 3.213,-7.074 7.131,-7.074 l 0,0 c 3.919,0 7.099,3.161 7.131,7.074 l 0,0 c -0.029,0.027 -0.057,0.057 -0.089,0.084 l 0,0 c -1.867,1.683 -4.331,2.717 -7.042,2.717 l 0,0 c -2.711,0 -5.173,-1.034 -7.041,-2.717"
               style="fill:url(#linearGradient206);stroke:none"
               id="path212" />
          </g>
        </g>
      </g>
    </g>
    <g
       transform="matrix(1.25,0,0,-1.25,129.71884,438.7462)"
       id="g214">
      <g
         id="g216">
        <g
           id="g222">
          <g
             id="g224">
            <path
               inkscape:connector-curvature="0"
               d="m 46.532,35.48 c -2.769,0 -5.164,1.582 -6.345,3.886 l 0,0 c -0.921,-1.281 -1.469,-2.847 -1.469,-4.545 l 0,0 c 0,-4.316 3.499,-7.814 7.814,-7.814 l 0,0 c 4.316,0 7.815,3.498 7.815,7.814 l 0,0 c 0,1.698 -0.548,3.264 -1.467,4.545 l 0,0 C 51.697,37.062 49.301,35.48 46.532,35.48"
               style="fill:url(#linearGradient226);stroke:none"
               id="path232" />
          </g>
        </g>
      </g>
    </g>
    <g
       transform="matrix(1.25,0,0,-1.25,129.71884,438.7462)"
       id="g234">
      <g
         id="g236">
        <g
           id="g242">
          <g
             id="g244">
            <path
               inkscape:connector-curvature="0"
               d="M 40.199,39.386 C 40.194,39.38 40.19,39.372 40.187,39.366 l 0,0 c 1.181,-2.304 3.576,-3.886 6.345,-3.886 l 0,0 c 2.769,0 5.165,1.582 6.348,3.886 l 0,0 c -0.005,0.006 -0.009,0.014 -0.012,0.02 l 0,0 c -1.421,1.965 -3.725,3.25 -6.336,3.25 l 0,0 c -2.61,0 -4.914,-1.285 -6.333,-3.25"
               style="fill:url(#linearGradient246);stroke:none"
               id="path252" />
          </g>
        </g>
      </g>
    </g>
    <g
       transform="matrix(1.25,0,0,-1.25,129.71884,438.7462)"
       id="g254">
      <g
         id="g256"
         clip-path="url(#clipPath258)">
        <g
           id="g262"
           transform="translate(47.1575,34.3288)">
          <path
             inkscape:connector-curvature="0"
             d="M 0,0 0,0.662 C 0,1.007 -0.28,1.287 -0.625,1.287 -0.97,1.287 -1.25,1.007 -1.25,0.662 L -1.25,0 -2.232,0 -0.625,2.783 0.982,0 0,0 z m -0.625,7.272 c 0.359,0 0.651,-0.291 0.652,-0.652 -0.001,-0.359 -0.292,-0.65 -0.652,-0.65 -0.359,0 -0.651,0.291 -0.651,0.65 0,0.361 0.292,0.652 0.651,0.652 m 5.31,-10.352 -1.057,1.831 0.325,0 c 0.345,0 0.625,0.279 0.625,0.624 C 4.578,-0.279 4.298,0 3.953,0 L 2.906,0 0.098,4.864 c 0.691,0.284 1.178,0.963 1.178,1.756 0,0.831 -0.535,1.528 -1.275,1.788 l 0,0.616 c 0,0.345 -0.281,0.624 -0.626,0.624 -0.345,0 -0.625,-0.279 -0.625,-0.624 l 0,-0.616 C -1.991,8.149 -2.526,7.451 -2.526,6.62 c 0,-0.793 0.488,-1.472 1.179,-1.756 L -4.155,0 -4.965,0 C -5.31,0 -5.59,-0.279 -5.59,-0.625 c 0,-0.345 0.28,-0.624 0.625,-0.624 l 0.088,0 -1.056,-1.831 c -0.231,-0.398 -0.095,-0.908 0.305,-1.138 0.398,-0.23 0.907,-0.093 1.138,0.305 l 1.537,2.664 1.703,0 0,-0.595 c 0,-0.344 0.28,-0.624 0.625,-0.624 0.345,0 0.625,0.28 0.625,0.624 l 0,0.595 1.703,0 1.539,-2.664 C 3.396,-4.18 3.676,-4.33 3.964,-4.33 c 0.142,0 0.285,0.037 0.415,0.112 0.399,0.23 0.535,0.74 0.306,1.138"
             style="fill:#ffffff;fill-opacity:1;fill-rule:nonzero;stroke:none"
             id="path264" />
        </g>
        <g
           id="g266"
           transform="translate(192.8846,39.8446)">
          <path
             inkscape:connector-curvature="0"
             d="M 0,0 0.404,0 C 0.597,0 0.729,0.029 0.799,0.086 0.869,0.144 0.904,0.22 0.904,0.315 0.904,0.376 0.887,0.43 0.853,0.479 0.819,0.527 0.773,0.563 0.712,0.587 0.653,0.61 0.541,0.622 0.378,0.622 L 0,0.622 0,0 z m -0.333,-1.16 0,2.061 0.709,0 C 0.618,0.901 0.793,0.882 0.901,0.844 1.01,0.806 1.096,0.74 1.161,0.645 1.225,0.55 1.257,0.449 1.257,0.343 1.257,0.192 1.203,0.061 1.096,-0.051 0.989,-0.163 0.846,-0.225 0.668,-0.239 0.741,-0.269 0.799,-0.306 0.843,-0.348 0.926,-0.429 1.028,-0.565 1.148,-0.757 l 0.251,-0.403 -0.406,0 -0.183,0.325 c -0.144,0.255 -0.26,0.415 -0.348,0.48 -0.061,0.047 -0.15,0.071 -0.267,0.071 l -0.195,0 0,-0.876 -0.333,0 z M 0.508,1.498 C 0.239,1.498 -0.023,1.429 -0.278,1.291 -0.533,1.153 -0.732,0.956 -0.876,0.7 -1.02,0.443 -1.092,0.176 -1.092,-0.102 c 0,-0.276 0.071,-0.54 0.213,-0.793 0.141,-0.253 0.338,-0.45 0.592,-0.592 0.254,-0.141 0.519,-0.212 0.795,-0.212 0.276,0 0.541,0.071 0.795,0.212 0.254,0.142 0.451,0.339 0.591,0.592 0.141,0.253 0.211,0.517 0.211,0.793 C 2.105,0.176 2.034,0.443 1.891,0.7 1.748,0.956 1.548,1.153 1.292,1.291 1.037,1.429 0.775,1.498 0.508,1.498 m 0,0.318 C 0.829,1.816 1.144,1.733 1.45,1.568 1.756,1.403 1.995,1.167 2.166,0.86 2.337,0.552 2.423,0.232 2.423,-0.102 2.423,-0.432 2.339,-0.749 2.17,-1.054 2.002,-1.358 1.766,-1.595 1.462,-1.764 1.158,-1.932 0.839,-2.016 0.508,-2.016 c -0.332,0 -0.649,0.084 -0.953,0.252 -0.304,0.169 -0.541,0.406 -0.71,0.71 -0.17,0.305 -0.254,0.622 -0.254,0.952 0,0.334 0.086,0.654 0.258,0.962 0.172,0.307 0.41,0.543 0.717,0.708 0.306,0.165 0.62,0.248 0.942,0.248"
             style="fill:#b9345c;fill-opacity:1;fill-rule:nonzero;stroke:none"
             id="path268" />
        </g>
        <g
           id="g270"
           transform="translate(107.38,35.8981)">
          <path
             inkscape:connector-curvature="0"
             d="m 0,0 -2.878,0 c -0.017,0.056 -0.03,0.098 -0.039,0.125 -0.06,0.32 -0.229,0.52 -0.508,0.599 -0.278,0.079 -0.953,0.119 -2.025,0.119 -1.534,0 -2.301,-0.268 -2.301,-0.802 0,-0.364 0.135,-0.58 0.405,-0.649 0.27,-0.069 1.186,-0.124 2.747,-0.165 2.101,-0.056 3.47,-0.205 4.105,-0.449 0.634,-0.244 0.952,-0.743 0.952,-1.498 0,-0.806 -0.422,-1.364 -1.267,-1.675 -0.844,-0.31 -2.359,-0.465 -4.544,-0.465 -2.101,0 -3.537,0.139 -4.309,0.42 -0.771,0.281 -1.157,0.805 -1.157,1.574 l 0.001,0.166 3.058,0 c -0.043,-0.093 -0.069,-0.167 -0.078,-0.222 -0.12,-0.587 0.721,-0.88 2.523,-0.88 1.861,0 2.791,0.29 2.791,0.87 0,0.557 -0.582,0.835 -1.749,0.835 -2.633,0 -4.369,0.133 -5.205,0.401 -0.836,0.266 -1.254,0.821 -1.254,1.664 0,0.755 0.381,1.265 1.144,1.532 0.762,0.267 2.228,0.401 4.396,0.401 2.047,0 3.424,-0.129 4.131,-0.387 C -0.354,1.256 0,0.751 0,0"
             style="fill:#373535;fill-opacity:1;fill-rule:nonzero;stroke:none"
             id="path272" />
        </g>
        <g
           id="g274"
           transform="translate(87.8963,33.198)">
          <path
             inkscape:connector-curvature="0"
             d="m 0,0 0,3.327 2.58,0 0,1.188 -2.58,0 0,1.469 -2.938,0 0,-1.469 -1.599,0 0,-1.188 1.599,0 0,-3.554 c 0,-1.117 0.985,-1.749 2.951,-1.898 l 0,1.958 C 0.005,-0.114 0,-0.059 0,0"
             style="fill:#373535;fill-opacity:1;fill-rule:nonzero;stroke:none"
             id="path276" />
        </g>
        <path
           inkscape:connector-curvature="0"
           d="m 94.884,37.734 -2.93,0 0,-6.612 2.93,0 0,6.612 z"
           style="fill:#373535;fill-opacity:1;fill-rule:nonzero;stroke:none"
           id="path278" />
        <g
           id="g280"
           transform="translate(93.076,40.2025)">
          <path
             inkscape:connector-curvature="0"
             d="m 0,0 -1.092,-1.579 2.918,0 L 2.918,0 0,0 z"
             style="fill:#373535;fill-opacity:1;fill-rule:nonzero;stroke:none"
             id="path282" />
        </g>
        <g
           id="g284"
           transform="translate(66.1131,32.0959)">
          <path
             inkscape:connector-curvature="0"
             d="m 0,0 c -1.096,0 -1.816,0.067 -2.159,0.202 -0.342,0.135 -0.513,0.418 -0.513,0.851 0,0.623 0.831,0.934 2.492,0.934 1.91,0 2.865,-0.334 2.865,-1.003 C 2.685,0.328 1.79,0 0,0 m 13.376,5.725 c -1.508,0 -2.613,-0.346 -3.315,-1.038 l -0.064,0.006 0.18,0.924 -2.938,0 0,-5.365 -1.637,0 0,3.091 c 0,0.911 -0.39,1.529 -1.169,1.853 C 3.653,5.52 2.16,5.682 -0.049,5.682 -2.079,5.682 -3.435,5.549 -4.12,5.286 -4.805,5.022 -5.148,4.498 -5.148,3.716 l 3.007,0 c 0,0.605 0.749,0.907 2.248,0.907 1.036,0 1.721,-0.083 2.055,-0.249 0.334,-0.165 0.502,-0.502 0.502,-1.01 l 0,-1.07 -0.052,0 C 2.175,2.795 0.941,3.046 -1.09,3.046 c -3.042,0 -4.563,-0.687 -4.563,-2.062 0,-1.362 1.487,-2.042 4.46,-2.042 2.048,0 3.355,0.332 3.921,0.997 l 0.077,-0.007 -0.141,-0.904 7.513,0 0,3.881 c 0,1.042 0.728,1.563 2.185,1.563 1.02,0 1.53,-0.351 1.53,-1.053 0,-0.056 -0.018,-0.173 -0.054,-0.351 l 2.775,0 0.001,0.462 c 0,1.463 -1.079,2.195 -3.238,2.195"
             style="fill:#373535;fill-opacity:1;fill-rule:nonzero;stroke:none"
             id="path286" />
        </g>
        <g
           id="g288"
           transform="translate(114.4735,32.0959)">
          <path
             inkscape:connector-curvature="0"
             d="m 0,0 c -1.096,0 -1.816,0.067 -2.158,0.202 -0.343,0.135 -0.514,0.418 -0.514,0.851 0,0.623 0.831,0.934 2.492,0.934 1.91,0 2.865,-0.334 2.865,-1.003 C 2.685,0.328 1.79,0 0,0 m 14.046,5.682 c -1.999,0 -3.285,-0.394 -3.86,-1.182 l -0.064,0.007 0.116,1.11 -2.912,0 0,-5.361 -1.725,0 0,3.087 C 5.601,4.254 5.212,4.872 4.433,5.196 3.654,5.52 2.16,5.682 -0.049,5.682 -2.078,5.682 -3.435,5.549 -4.12,5.286 -4.805,5.022 -5.148,4.498 -5.148,3.716 l 3.007,0 c 0,0.605 0.749,0.907 2.248,0.907 1.037,0 1.721,-0.083 2.055,-0.249 0.335,-0.165 0.502,-0.502 0.502,-1.01 l 0,-1.07 -0.051,0 C 2.176,2.795 0.941,3.046 -1.09,3.046 c -3.042,0 -4.563,-0.687 -4.563,-2.062 0,-1.362 1.487,-2.042 4.46,-2.042 2.048,0 3.355,0.332 3.921,0.997 l 0.077,-0.007 -0.141,-0.904 7.6,0 0,3.908 c 0,0.995 0.992,1.493 2.976,1.493 1.306,0 2.028,-0.241 2.165,-0.721 l 0.065,-0.462 0,-4.218 2.937,0 0,4.486 c 0,1.445 -1.453,2.168 -4.361,2.168"
             style="fill:#373535;fill-opacity:1;fill-rule:nonzero;stroke:none"
             id="path290" />
        </g>
      </g>
    </g>
  </g>
</svg>
