<?xml version="1.0" encoding="UTF-8" standalone="no"?>
<!-- Created with Inkscape (http://www.inkscape.org/) -->

<svg
   xmlns:dc="http://purl.org/dc/elements/1.1/"
   xmlns:cc="http://creativecommons.org/ns#"
   xmlns:rdf="http://www.w3.org/1999/02/22-rdf-syntax-ns#"
   xmlns:svg="http://www.w3.org/2000/svg"
   xmlns="http://www.w3.org/2000/svg"
   xmlns:sodipodi="http://sodipodi.sourceforge.net/DTD/sodipodi-0.dtd"
   xmlns:inkscape="http://www.inkscape.org/namespaces/inkscape"
   width="187.659"
   height="40.202251"
   id="svg3715"
   version="1.1"
   inkscape:version="0.48.4 r9939"
   sodipodi:docname="ArtisanStudioLogo.pdf">
  <title
     id="title3942">Atego Logo</title>
  <defs
     id="defs3717">
    <clipPath
       clipPathUnits="userSpaceOnUse"
       id="clipPath258">
      <path
         inkscape:connector-curvature="0"
         d="m 36,19.489 159.307,0 0,25.866 -159.307,0 0,-25.866 z"
         id="path260" />
    </clipPath>
    <linearGradient
       x1="0"
       y1="0"
       x2="1"
       y2="0"
       gradientUnits="userSpaceOnUse"
       gradientTransform="matrix(0,-5.1954803,-5.1954803,0,46.533279,43.988586)"
       spreadMethod="pad"
       id="linearGradient246">
      <stop
         style="stop-opacity:1;stop-color:#8d96a9"
         offset="0"
         id="stop248" />
      <stop
         style="stop-opacity:1;stop-color:#7d899f"
         offset="1"
         id="stop250" />
    </linearGradient>
    <linearGradient
       x1="0"
       y1="0"
       x2="1"
       y2="0"
       gradientUnits="userSpaceOnUse"
       gradientTransform="matrix(0,-12.710648,-12.710648,0,46.532837,39.968674)"
       spreadMethod="pad"
       id="linearGradient226">
      <stop
         style="stop-opacity:1;stop-color:#5c7088"
         offset="0"
         id="stop228" />
      <stop
         style="stop-opacity:1;stop-color:#7b869d"
         offset="1"
         id="stop230" />
    </linearGradient>
    <linearGradient
       x1="0"
       y1="0"
       x2="1"
       y2="0"
       gradientUnits="userSpaceOnUse"
       gradientTransform="matrix(0,4.0824432,4.0824432,0,46.532196,40.772537)"
       spreadMethod="pad"
       id="linearGradient206">
      <stop
         style="stop-opacity:1;stop-color:#848ea3"
         offset="0"
         id="stop208" />
      <stop
         style="stop-opacity:1;stop-color:#b4bdc7"
         offset="1"
         id="stop210" />
    </linearGradient>
    <linearGradient
       x1="0"
       y1="0"
       x2="1"
       y2="0"
       gradientUnits="userSpaceOnUse"
       gradientTransform="matrix(0,9.722702,9.722702,0,46.532837,33.470978)"
       spreadMethod="pad"
       id="linearGradient186">
      <stop
         style="stop-opacity:1;stop-color:#b4bdc7"
         offset="0"
         id="stop188" />
      <stop
         style="stop-opacity:1;stop-color:#5c7088"
         offset="1"
         id="stop190" />
    </linearGradient>
    <clipPath
       clipPathUnits="userSpaceOnUse"
       id="clipPath144">
      <path
         inkscape:connector-curvature="0"
         d="m 36,19.489 159.307,0 0,25.866 -159.307,0 0,-25.866 z"
         id="path146" />
    </clipPath>
    <clipPath
       clipPathUnits="userSpaceOnUse"
       id="clipPath112">
      <path
         inkscape:connector-curvature="0"
         d="m 412.582,735.966 152.363,0 0,40.039 -152.363,0 0,-40.039 z"
         id="path114" />
    </clipPath>
  </defs>
  <sodipodi:namedview
     id="base"
     pagecolor="#ffffff"
     bordercolor="#666666"
     borderopacity="1.0"
     inkscape:pageopacity="0.0"
     inkscape:pageshadow="2"
     inkscape:zoom="0.7"
     inkscape:cx="-81.707871"
     inkscape:cy="117.9173"
     inkscape:document-units="px"
     inkscape:current-layer="layer1"
     showgrid="false"
     fit-margin-top="0"
     fit-margin-left="0"
     fit-margin-right="0"
     fit-margin-bottom="0"
     inkscape:window-width="664"
     inkscape:window-height="467"
     inkscape:window-x="18"
     inkscape:window-y="57"
     inkscape:window-maximized="0" />
  <metadata
     id="metadata3720">
    <rdf:RDF>
      <cc:Work
         rdf:about="">
        <dc:format>image/svg+xml</dc:format>
        <dc:type
           rdf:resource="http://purl.org/dc/dcmitype/StillImage" />
        <dc:title>Atego Logo</dc:title>
      </cc:Work>
    </rdf:RDF>
  </metadata>
  <g
     inkscape:label="Ebene 1"
     inkscape:groupmode="layer"
     id="layer1"
     transform="translate(-373.74648,-481.14222)">
    <g
       id="g96"
       transform="matrix(1.25,0,0,-1.25,420.04973,489.75322)">
      <path
         inkscape:connector-curvature="0"
         d="m 0,0 -10.614,-18.384 -19.225,0 -3.977,-6.889 26.429,0 L 7.204,0 0,0 z"
         style="fill:#b7c8d9;fill-opacity:1;fill-rule:nonzero;stroke:none"
         id="path98" />
    </g>
    <g
       id="g100"
       transform="matrix(1.25,0,0,-1.25,387.72273,504.12222)">
      <path
         inkscape:connector-curvature="0"
         d="m 0,0 6.637,11.495 12.021,0 0,0 7.204,0 3.977,6.889 -26.428,0 -14.592,-25.273 7.204,0 L 0,0 z"
         style="fill:#477493;fill-opacity:1;fill-rule:nonzero;stroke:none"
         id="path102" />
    </g>
    <g
       id="g104"
       transform="matrix(1.25,0,0,-1.25,420.04973,489.75322)">
      <path
         inkscape:connector-curvature="0"
         d="m 0,0 -7.204,0 -6.636,-11.495 -12.021,0 -3.978,-6.889 19.225,0 L 0,0 z"
         style="fill:#81a0b9;fill-opacity:1;fill-rule:nonzero;stroke:none"
         id="path106" />
    </g>
    <g
       transform="matrix(1.25,0,0,-1.25,-141.98152,1451.1483)"
       id="g108">
      <g
         id="g110"
         clip-path="url(#clipPath112)">
        <g
           id="g116"
           transform="translate(469.6932,755.7332)">
          <path
             inkscape:connector-curvature="0"
             d="m 0,0 c -2.062,0 -3.416,0.127 -4.061,0.38 -0.644,0.253 -0.965,0.788 -0.965,1.602 0,1.171 1.562,1.756 4.688,1.756 C 3.254,3.738 5.05,3.109 5.05,1.85 5.05,0.617 3.366,0 0,0 m 13.617,0.475 -3.08,0 0,5.814 c 0,1.715 -0.732,2.877 -2.199,3.485 -1.465,0.609 -4.275,0.914 -8.431,0.914 -3.817,0 -6.37,-0.248 -7.658,-0.744 C -9.04,9.446 -9.682,8.463 -9.682,6.99 l 5.654,0 c 0,1.138 1.409,1.706 4.23,1.706 1.949,0 3.238,-0.155 3.865,-0.467 C 4.696,7.917 5.011,7.284 5.011,6.327 l 0,-2.013 -0.098,0 C 4.091,5.259 1.77,5.73 -2.051,5.73 c -5.722,0 -8.583,-1.294 -8.583,-3.88 0,-2.561 2.796,-3.841 8.391,-3.841 3.852,0 6.31,0.626 7.374,1.877 l 0.145,-0.013 -0.265,-1.702 8.6,0"
             style="fill:#373535;fill-opacity:1;fill-rule:nonzero;stroke:none"
             id="path118" />
        </g>
        <g
           id="g120"
           transform="translate(560.8996,767.6726)">
          <path
             inkscape:connector-curvature="0"
             d="m 0,0 0,1.84 0.451,0 0.465,-1.47 0.45,1.47 0.444,0 0,-1.84 -0.28,0 0,1.543 L 1.054,0 0.777,0 0.283,1.566 0.283,0 0,0 z m -1.114,0 0,1.566 -0.596,0 0,0.274 1.505,0 0,-0.274 -0.602,0 0,-1.566 -0.307,0 z"
             style="fill:#373535;fill-opacity:1;fill-rule:nonzero;stroke:none"
             id="path122" />
        </g>
        <g
           id="g124"
           transform="translate(549.3652,756.0124)">
          <path
             inkscape:connector-curvature="0"
             d="m 0,0 c -1.51,0 -2.701,0.35 -3.571,1.05 -0.872,0.7 -1.306,1.714 -1.306,3.041 0,1.231 0.409,2.219 1.23,2.964 0.821,0.744 2.08,1.116 3.779,1.116 1.639,0 2.855,-0.36 3.646,-1.08 C 4.57,6.37 4.966,5.386 4.966,4.14 4.966,1.38 3.312,0 0,0 m -25.893,1.051 c -0.87,0.699 -1.305,1.713 -1.305,3.041 0,1.23 0.41,2.219 1.23,2.963 0.821,0.744 2.08,1.116 3.779,1.116 1.639,0 2.856,-0.359 3.646,-1.08 0.792,-0.72 1.187,-1.704 1.187,-2.951 0,-2.76 -1.654,-4.14 -4.964,-4.14 -1.511,0 -2.702,0.351 -3.573,1.051 M 7.352,8.678 C 5.474,9.844 3.073,10.429 0.153,10.429 l -22.203,0 0.003,-0.003 c -0.041,0 -0.08,0.003 -0.12,0.003 -3.081,0 -5.56,-0.6 -7.437,-1.8 -1.879,-1.199 -2.819,-2.698 -2.819,-4.501 0,-1.674 0.85,-3.158 2.548,-4.453 1.698,-1.297 4.159,-1.944 7.382,-1.944 1.343,0 2.574,0.124 3.707,0.36 0.085,-0.063 0.167,-0.126 0.243,-0.196 0.792,-0.72 1.187,-1.703 1.187,-2.95 0,-2.761 -1.654,-4.141 -4.964,-4.141 -1.511,0 -2.702,0.351 -3.573,1.051 -0.653,0.525 -1.061,1.227 -1.224,2.106 l -5.196,0 c 0.27,-1.282 1.077,-2.444 2.438,-3.482 1.698,-1.296 4.159,-1.944 7.382,-1.944 2.993,0 5.465,0.586 7.415,1.757 1.952,1.171 2.926,2.717 2.926,4.64 0,1.867 -0.939,3.384 -2.817,4.551 -0.02,0.012 -0.041,0.023 -0.061,0.035 1.919,1.167 2.878,2.703 2.878,4.61 0,1.618 -0.707,2.973 -2.118,4.066 l 6.364,0 c -1.463,-1.121 -2.196,-2.476 -2.196,-4.066 0,-1.674 0.85,-3.159 2.547,-4.454 1.699,-1.296 4.16,-1.944 7.383,-1.944 2.994,0 5.465,0.586 7.415,1.757 1.951,1.171 2.925,2.718 2.925,4.641 0,1.867 -0.939,3.383 -2.816,4.55"
             style="fill:#373535;fill-opacity:1;fill-rule:nonzero;stroke:none"
             id="path126" />
        </g>
        <g
           id="g128"
           transform="translate(500.1466,761.5289)">
          <path
             inkscape:connector-curvature="0"
             d="m 0,0 c 0.159,0.949 0.691,1.683 1.596,2.202 0.908,0.519 2.038,0.779 3.39,0.779 1.368,0 2.515,-0.278 3.443,-0.833 C 9.357,1.592 9.83,0.876 9.843,0 L 0,0 z m 14.982,-1.46 c 0,1.866 -0.85,3.395 -2.547,4.586 -1.699,1.191 -4.102,1.786 -7.211,1.786 -0.003,0 -0.006,0 -0.009,0 l 0,0 -14.762,0 0,6.626 -5.488,0 0,-6.626 -3.007,0 0,-2.376 3.007,0 0,-15.946 c 0,-2.089 1.834,-3.277 5.488,-3.566 l 0,19.512 6.452,0 c -1.343,-1.107 -2.021,-2.441 -2.021,-4.009 0,-1.939 0.921,-3.476 2.764,-4.61 1.841,-1.135 4.274,-1.702 7.295,-1.702 2.519,0 4.613,0.357 6.282,1.074 1.67,0.715 2.792,1.625 3.369,2.727 l -4.447,0.338 C 9.296,-4.965 7.657,-5.624 5.224,-5.624 3.971,-5.624 2.927,-5.441 2.093,-5.068 1.259,-4.699 0.702,-4.265 0.421,-3.766 0.141,-3.267 0,-2.604 0,-1.774 l 14.961,0 0.021,0.314 z"
             style="fill:#373535;fill-opacity:1;fill-rule:nonzero;stroke:none"
             id="path130" />
        </g>
      </g>
    </g>
  </g>
</svg>
