<?xml version="1.0" encoding="UTF-8" standalone="no"?>
<svg
   xmlns:dc="http://purl.org/dc/elements/1.1/"
   xmlns:cc="http://creativecommons.org/ns#"
   xmlns:rdf="http://www.w3.org/1999/02/22-rdf-syntax-ns#"
   xmlns:svg="http://www.w3.org/2000/svg"
   xmlns="http://www.w3.org/2000/svg"
   xmlns:sodipodi="http://sodipodi.sourceforge.net/DTD/sodipodi-0.dtd"
   xmlns:inkscape="http://www.inkscape.org/namespaces/inkscape"
   shape-rendering="auto"
   width="434.125"
   text-rendering="auto"
   contentScriptType="text/ecmascript"
   color-interpolation="auto"
   color-rendering="auto"
   preserveAspectRatio="xMidYMid meet"
   font-size="12"
   viewBox="0 0 434.125 135.10001"
   image-rendering="auto"
   stroke-miterlimit="10"
   zoomAndPan="magnify"
   version="1.0"
   contentStyleType="text/css"
   font-style="normal"
   height="135.10001"
   font-weight="normal"
   id="svg2"
   inkscape:version="0.48.4 r9939"
   sodipodi:docname="BasicExamples.svg"
   style="font-size:12px;font-style:normal;font-weight:normal;fill:#000000;fill-opacity:1;stroke:#000000;stroke-width:1;stroke-linecap:square;stroke-linejoin:miter;stroke-miterlimit:10;stroke-opacity:1;stroke-dasharray:none;stroke-dashoffset:0;font-family:Dialog">
  <metadata
     id="metadata369">
    <rdf:RDF>
      <cc:Work
         rdf:about="">
        <dc:format>image/svg+xml</dc:format>
        <dc:type
           rdf:resource="http://purl.org/dc/dcmitype/StillImage" />
      </cc:Work>
    </rdf:RDF>
  </metadata>
  <sodipodi:namedview
     pagecolor="#ffffff"
     bordercolor="#666666"
     borderopacity="1"
     objecttolerance="10"
     gridtolerance="10"
     guidetolerance="10"
     inkscape:pageopacity="0"
     inkscape:pageshadow="2"
     inkscape:window-width="1451"
     inkscape:window-height="655"
     id="namedview367"
     showgrid="false"
     fit-margin-top="0"
     fit-margin-left="0"
     fit-margin-right="0"
     fit-margin-bottom="0"
     inkscape:zoom="1.1864407"
     inkscape:cx="261.31428"
     inkscape:cy="15.557951"
     inkscape:window-x="0"
     inkscape:window-y="0"
     inkscape:window-maximized="0"
     inkscape:current-layer="g133" />
  <!--Generated by the Batik Graphics2D SVG Generator-->
  <defs
     id="genericDefs" />
  <g
     id="g5"
     transform="translate(-29.9375,-49.45)">
    <defs
       id="defs1">
      <clipPath
         clipPathUnits="userSpaceOnUse"
         id="clipPath1">
        <path
           d="M 9,9 522,9 522,235 9,235 9,9 z"
           id="path9"
           inkscape:connector-curvature="0" />
      </clipPath>
      <clipPath
         clipPathUnits="userSpaceOnUse"
         id="clipPath2">
        <path
           d="m 19,14 83,0 0,15 -83,0 0,-15 z"
           id="path12"
           inkscape:connector-curvature="0" />
      </clipPath>
      <clipPath
         clipPathUnits="userSpaceOnUse"
         id="clipPath3">
        <path
           d="m 109,98 22,0 0,32 -22,0 0,-32 z"
           id="path15"
           inkscape:connector-curvature="0" />
      </clipPath>
      <clipPath
         clipPathUnits="userSpaceOnUse"
         id="clipPath4">
        <path
           d="m 204,68 60,0 0,42 -60,0 0,-42 z"
           id="path18"
           inkscape:connector-curvature="0" />
      </clipPath>
      <clipPath
         clipPathUnits="userSpaceOnUse"
         id="clipPath5">
        <path
           d="m 205,81 58,0 0,15 -58,0 0,-15 z"
           id="path21"
           inkscape:connector-curvature="0" />
      </clipPath>
      <clipPath
         clipPathUnits="userSpaceOnUse"
         id="clipPath6">
        <path
           d="m 284,99 22,0 0,32 -22,0 0,-32 z"
           id="path24"
           inkscape:connector-curvature="0" />
      </clipPath>
      <clipPath
         clipPathUnits="userSpaceOnUse"
         id="clipPath7">
        <path
           d="m 444,104 22,0 0,22 -22,0 0,-22 z"
           id="path27"
           inkscape:connector-curvature="0" />
      </clipPath>
      <clipPath
         clipPathUnits="userSpaceOnUse"
         id="clipPath8">
        <path
           d="m 199,123 57,0 0,42 -57,0 0,-42 z"
           id="path30"
           inkscape:connector-curvature="0" />
      </clipPath>
      <clipPath
         clipPathUnits="userSpaceOnUse"
         id="clipPath9">
        <path
           d="m 200,136 55,0 0,15 -55,0 0,-15 z"
           id="path33"
           inkscape:connector-curvature="0" />
      </clipPath>
      <clipPath
         clipPathUnits="userSpaceOnUse"
         id="clipPath10">
        <path
           d="m 29,104 22,0 0,22 -22,0 0,-22 z"
           id="path36"
           inkscape:connector-curvature="0" />
      </clipPath>
      <clipPath
         clipPathUnits="userSpaceOnUse"
         id="clipPath11">
        <path
           d="m 314,124 103,0 0,62 -103,0 0,-62 z"
           id="path39"
           inkscape:connector-curvature="0" />
      </clipPath>
      <clipPath
         clipPathUnits="userSpaceOnUse"
         id="clipPath12">
        <path
           d="m 320,130 82,0 0,15 -82,0 0,-15 z"
           id="path42"
           inkscape:connector-curvature="0" />
      </clipPath>
      <clipPath
         clipPathUnits="userSpaceOnUse"
         id="clipPath13">
        <path
           d="m 320,143 80,0 0,15 -80,0 0,-15 z"
           id="path45"
           inkscape:connector-curvature="0" />
      </clipPath>
      <clipPath
         clipPathUnits="userSpaceOnUse"
         id="clipPath14">
        <path
           d="m 320,156 81,0 0,15 -81,0 0,-15 z"
           id="path48"
           inkscape:connector-curvature="0" />
      </clipPath>
      <clipPath
         clipPathUnits="userSpaceOnUse"
         id="clipPath15">
        <path
           d="m 319,49 93,0 0,62 -93,0 0,-62 z"
           id="path51"
           inkscape:connector-curvature="0" />
      </clipPath>
      <clipPath
         clipPathUnits="userSpaceOnUse"
         id="clipPath16">
        <path
           d="m 325,55 72,0 0,15 -72,0 0,-15 z"
           id="path54"
           inkscape:connector-curvature="0" />
      </clipPath>
      <clipPath
         clipPathUnits="userSpaceOnUse"
         id="clipPath17">
        <path
           d="m 325,68 70,0 0,15 -70,0 0,-15 z"
           id="path57"
           inkscape:connector-curvature="0" />
      </clipPath>
      <clipPath
         clipPathUnits="userSpaceOnUse"
         id="clipPath18">
        <path
           d="m 325,81 59,0 0,15 -59,0 0,-15 z"
           id="path60"
           inkscape:connector-curvature="0" />
      </clipPath>
      <clipPath
         clipPathUnits="userSpaceOnUse"
         id="clipPath19">
        <path
           d="m 501,33 16,0 0,197 -16,0 0,-197 z"
           id="path63"
           inkscape:connector-curvature="0" />
      </clipPath>
      <clipPath
         clipPathUnits="userSpaceOnUse"
         id="clipPath20">
        <path
           d="m 503,33 14,0 0,14 -14,0 0,-14 z"
           id="path66"
           inkscape:connector-curvature="0" />
      </clipPath>
      <clipPath
         clipPathUnits="userSpaceOnUse"
         id="clipPath21">
        <path
           d="m 503,216 14,0 0,14 -14,0 0,-14 z"
           id="path69"
           inkscape:connector-curvature="0" />
      </clipPath>
      <clipPath
         clipPathUnits="userSpaceOnUse"
         id="clipPath22">
        <path
           d="m 503,45 14,0 0,158 -14,0 0,-158 z"
           id="path72"
           inkscape:connector-curvature="0" />
      </clipPath>
      <clipPath
         clipPathUnits="userSpaceOnUse"
         id="clipPath23">
        <path
           d="m -1,-1 533,0 0,246 -533,0 0,-246 z"
           id="path75"
           inkscape:connector-curvature="0" />
      </clipPath>
      <clipPath
         clipPathUnits="userSpaceOnUse"
         id="clipPath24">
        <path
           d="m 275,102 14,0 0,11 -14,0 0,-11 z"
           id="path78"
           inkscape:connector-curvature="0" />
      </clipPath>
      <clipPath
         clipPathUnits="userSpaceOnUse"
         id="clipPath25">
        <path
           d="m 257,114 6,0 0,15 -6,0 0,-15 z"
           id="path81"
           inkscape:connector-curvature="0" />
      </clipPath>
      <clipPath
         clipPathUnits="userSpaceOnUse"
         id="clipPath26">
        <path
           d="m 434,110 13,0 0,11 -13,0 0,-11 z"
           id="path84"
           inkscape:connector-curvature="0" />
      </clipPath>
      <clipPath
         clipPathUnits="userSpaceOnUse"
         id="clipPath27">
        <path
           d="m 99,109 13,0 0,11 -13,0 0,-11 z"
           id="path87"
           inkscape:connector-curvature="0" />
      </clipPath>
      <clipPath
         clipPathUnits="userSpaceOnUse"
         id="clipPath28">
        <path
           d="m 77,127 6,0 0,15 -6,0 0,-15 z"
           id="path90"
           inkscape:connector-curvature="0" />
      </clipPath>
      <clipPath
         clipPathUnits="userSpaceOnUse"
         id="clipPath29">
        <path
           d="m 55,127 6,0 0,15 -6,0 0,-15 z"
           id="path93"
           inkscape:connector-curvature="0" />
      </clipPath>
      <clipPath
         clipPathUnits="userSpaceOnUse"
         id="clipPath30">
        <path
           d="m 188,128 14,0 0,11 -14,0 0,-11 z"
           id="path96"
           inkscape:connector-curvature="0" />
      </clipPath>
      <clipPath
         clipPathUnits="userSpaceOnUse"
         id="clipPath31">
        <path
           d="m 165,137 21,0 0,15 -21,0 0,-15 z"
           id="path99"
           inkscape:connector-curvature="0" />
      </clipPath>
      <clipPath
         clipPathUnits="userSpaceOnUse"
         id="clipPath32">
        <path
           d="m 157,138 6,0 0,15 -6,0 0,-15 z"
           id="path102"
           inkscape:connector-curvature="0" />
      </clipPath>
      <clipPath
         clipPathUnits="userSpaceOnUse"
         id="clipPath33">
        <path
           d="m 123,128 39,0 0,15 -39,0 0,-15 z"
           id="path105"
           inkscape:connector-curvature="0" />
      </clipPath>
      <clipPath
         clipPathUnits="userSpaceOnUse"
         id="clipPath34">
        <path
           d="m 193,92 14,0 0,11 -14,0 0,-11 z"
           id="path108"
           inkscape:connector-curvature="0" />
      </clipPath>
      <clipPath
         clipPathUnits="userSpaceOnUse"
         id="clipPath35">
        <path
           d="m 170,77 25,0 0,15 -25,0 0,-15 z"
           id="path111"
           inkscape:connector-curvature="0" />
      </clipPath>
      <clipPath
         clipPathUnits="userSpaceOnUse"
         id="clipPath36">
        <path
           d="m 123,91 39,0 0,15 -39,0 0,-15 z"
           id="path114"
           inkscape:connector-curvature="0" />
      </clipPath>
      <clipPath
         clipPathUnits="userSpaceOnUse"
         id="clipPath37">
        <path
           d="m 275,117 14,0 0,11 -14,0 0,-11 z"
           id="path117"
           inkscape:connector-curvature="0" />
      </clipPath>
      <clipPath
         clipPathUnits="userSpaceOnUse"
         id="clipPath38">
        <path
           d="m 276,136 6,0 0,15 -6,0 0,-15 z"
           id="path120"
           inkscape:connector-curvature="0" />
      </clipPath>
      <clipPath
         clipPathUnits="userSpaceOnUse"
         id="clipPath39">
        <path
           d="m 265,141 6,0 0,15 -6,0 0,-15 z"
           id="path123"
           inkscape:connector-curvature="0" />
      </clipPath>
    </defs>
    <g
       font-size="11"
       id="g133"
       style="font-size:11px;stroke-width:0.1;stroke-linecap:butt;font-family:Tahoma">
      <polygon
         clip-path="url(#clipPath3)"
         points="110,113 119,99 129,113 119,128 "
         id="polygon135"
         style="fill:none" />
      <polygon
         clip-path="url(#clipPath3)"
         points="110,113 119,99 129,113 119,128 "
         id="polygon137"
         style="fill:#ffffff;stroke:none" />
      <polygon
         clip-path="url(#clipPath3)"
         points="110,113 119,99 129,113 119,128 "
         id="polygon139"
         style="fill:none;stroke-width:1.10000002" />
      <rect
         x="205"
         y="69"
         clip-path="url(#clipPath4)"
         width="58"
         rx="7.5"
         ry="7.5"
         height="40"
         id="rect141"
         style="fill:#ffffff;stroke:none" />
      <text
         x="206"
         y="93"
         clip-path="url(#clipPath5)"
         xml:space="preserve"
         id="text143"
         style="stroke:none">then Action</text>
      <rect
         x="205"
         y="69"
         clip-path="url(#clipPath4)"
         width="57"
         rx="7.5"
         ry="7.5"
         height="39"
         id="rect145"
         style="fill:none;stroke-width:1.10000002" />
      <polygon
         clip-path="url(#clipPath6)"
         points="285,114 294,100 304,114 294,129 "
         id="polygon147"
         style="fill:#ffffff;stroke:none" />
      <polygon
         clip-path="url(#clipPath6)"
         points="285,114 294,100 304,114 294,129 "
         id="polygon149"
         style="fill:none" />
      <polygon
         clip-path="url(#clipPath6)"
         points="285,114 294,100 304,114 294,129 "
         id="polygon151"
         style="fill:#ffffff;stroke:none" />
      <polygon
         clip-path="url(#clipPath6)"
         points="285,114 294,100 304,114 294,129 "
         id="polygon153"
         style="fill:none;stroke-width:1.10000002" />
      <circle
         clip-path="url(#clipPath7)"
         r="9.5"
         cx="454.5"
         cy="114.5"
         id="circle155"
         sodipodi:cx="454.5"
         sodipodi:cy="114.5"
         sodipodi:rx="9.5"
         sodipodi:ry="9.5"
         style="fill:#ffffff;stroke:none"
         d="m 464,114.5 c 0,5.24671 -4.25329,9.5 -9.5,9.5 -5.24671,0 -9.5,-4.25329 -9.5,-9.5 0,-5.24671 4.25329,-9.5 9.5,-9.5 5.24671,0 9.5,4.25329 9.5,9.5 z" />
      <circle
         r="9.5"
         clip-path="url(#clipPath7)"
         cx="454.5"
         cy="114.5"
         id="circle157"
         sodipodi:cx="454.5"
         sodipodi:cy="114.5"
         sodipodi:rx="9.5"
         sodipodi:ry="9.5"
         style="fill:none"
         d="m 464,114.5 c 0,5.24671 -4.25329,9.5 -9.5,9.5 -5.24671,0 -9.5,-4.25329 -9.5,-9.5 0,-5.24671 4.25329,-9.5 9.5,-9.5 5.24671,0 9.5,4.25329 9.5,9.5 z" />
      <circle
         r="9.5"
         clip-path="url(#clipPath7)"
         cx="454.5"
         cy="114.5"
         id="circle159"
         sodipodi:cx="454.5"
         sodipodi:cy="114.5"
         sodipodi:rx="9.5"
         sodipodi:ry="9.5"
         style="fill:none"
         d="m 464,114.5 c 0,5.24671 -4.25329,9.5 -9.5,9.5 -5.24671,0 -9.5,-4.25329 -9.5,-9.5 0,-5.24671 4.25329,-9.5 9.5,-9.5 5.24671,0 9.5,4.25329 9.5,9.5 z" />
      <circle
         r="4"
         clip-path="url(#clipPath7)"
         cx="454"
         cy="114"
         id="circle161"
         sodipodi:cx="454"
         sodipodi:cy="114"
         sodipodi:rx="4"
         sodipodi:ry="4"
         style="stroke:none"
         d="m 458,114 c 0,2.20914 -1.79086,4 -4,4 -2.20914,0 -4,-1.79086 -4,-4 0,-2.20914 1.79086,-4 4,-4 2.20914,0 4,1.79086 4,4 z" />
      <rect
         x="200"
         y="124"
         clip-path="url(#clipPath8)"
         width="55"
         rx="7.5"
         ry="7.5"
         height="40"
         id="rect163"
         style="fill:#ffffff;stroke:none" />
      <text
         xml:space="preserve"
         x="201"
         y="148"
         clip-path="url(#clipPath9)"
         id="text165"
         style="stroke:none">else Action</text>
      <rect
         x="200"
         y="124"
         clip-path="url(#clipPath8)"
         width="54"
         rx="7.5"
         ry="7.5"
         height="39"
         id="rect167"
         style="fill:none;stroke-width:1.10000002" />
      <circle
         clip-path="url(#clipPath10)"
         r="9.5"
         cx="39.5"
         cy="114.5"
         id="circle169"
         sodipodi:cx="39.5"
         sodipodi:cy="114.5"
         sodipodi:rx="9.5"
         sodipodi:ry="9.5"
         style="fill:#ffffff;stroke:none"
         d="m 49,114.5 c 0,5.24671 -4.253295,9.5 -9.5,9.5 -5.246705,0 -9.5,-4.25329 -9.5,-9.5 0,-5.24671 4.253295,-9.5 9.5,-9.5 5.246705,0 9.5,4.25329 9.5,9.5 z" />
      <circle
         r="9.5"
         clip-path="url(#clipPath10)"
         cx="39.5"
         cy="114.5"
         id="circle171"
         sodipodi:cx="39.5"
         sodipodi:cy="114.5"
         sodipodi:rx="9.5"
         sodipodi:ry="9.5"
         style="fill:none"
         d="m 49,114.5 c 0,5.24671 -4.253295,9.5 -9.5,9.5 -5.246705,0 -9.5,-4.25329 -9.5,-9.5 0,-5.24671 4.253295,-9.5 9.5,-9.5 5.246705,0 9.5,4.25329 9.5,9.5 z" />
      <circle
         r="9.5"
         clip-path="url(#clipPath10)"
         cx="39.5"
         cy="114.5"
         id="circle173"
         sodipodi:cx="39.5"
         sodipodi:cy="114.5"
         sodipodi:rx="9.5"
         sodipodi:ry="9.5"
         style="stroke:none"
         d="m 49,114.5 c 0,5.24671 -4.253295,9.5 -9.5,9.5 -5.246705,0 -9.5,-4.25329 -9.5,-9.5 0,-5.24671 4.253295,-9.5 9.5,-9.5 5.246705,0 9.5,4.25329 9.5,9.5 z" />
      <path
         d="m 315,125 0,0 88,0 12,12 0,47 -100,0 0,-59 z"
         clip-path="url(#clipPath11)"
         id="path175"
         inkscape:connector-curvature="0"
         style="fill:#ffffff;fill-rule:evenodd;stroke:none" />
      <text
         xml:space="preserve"
         x="323"
         y="142"
         clip-path="url(#clipPath12)"
         id="text177"
         style="stroke:none">«LocalPostCo...</text>
      <text
         xml:space="preserve"
         x="321"
         y="155"
         clip-path="url(#clipPath13)"
         id="text179"
         style="stroke:none">convertedPos...</text>
      <text
         xml:space="preserve"
         x="321"
         y="168"
         clip-path="url(#clipPath14)"
         id="text181"
         style="stroke:none">{y=x@pre-100}</text>
      <line
         clip-path="url(#clipPath11)"
         x1="315"
         x2="403"
         y1="125"
         y2="125"
         id="line183"
         style="fill:none;stroke-width:1.10000002" />
      <line
         clip-path="url(#clipPath11)"
         x1="403"
         x2="415"
         y1="125"
         y2="137"
         id="line185"
         style="fill:none;stroke-width:1.10000002" />
      <line
         clip-path="url(#clipPath11)"
         x1="415"
         x2="415"
         y1="137"
         y2="184"
         id="line187"
         style="fill:none;stroke-width:1.10000002" />
      <line
         clip-path="url(#clipPath11)"
         x1="415"
         x2="315"
         y1="184"
         y2="184"
         id="line189"
         style="fill:none;stroke-width:1.10000002" />
      <line
         clip-path="url(#clipPath11)"
         x1="315"
         x2="315"
         y1="184"
         y2="125"
         id="line191"
         style="fill:none;stroke-width:1.10000002" />
      <line
         clip-path="url(#clipPath11)"
         x1="315"
         x2="315"
         y1="125"
         y2="125"
         id="line193"
         style="fill:none;stroke-width:1.10000002" />
      <line
         clip-path="url(#clipPath11)"
         x1="403"
         x2="403"
         y1="125"
         y2="137"
         id="line195"
         style="fill:none;stroke-width:1.10000002" />
      <line
         clip-path="url(#clipPath11)"
         x1="403"
         x2="416"
         y1="137"
         y2="137"
         id="line197"
         style="fill:none;stroke-width:1.10000002" />
      <path
         clip-path="url(#clipPath15)"
         d="m 320,50 0,0 78,0 12,12 0,47 -90,0 0,-59 z"
         id="path199"
         inkscape:connector-curvature="0"
         style="fill:#ffffff;fill-rule:evenodd;stroke:none" />
      <text
         x="329"
         y="67"
         clip-path="url(#clipPath16)"
         xml:space="preserve"
         id="text201"
         style="stroke:none">«LocalPost...</text>
      <text
         x="326"
         y="80"
         clip-path="url(#clipPath17)"
         xml:space="preserve"
         id="text203"
         style="stroke:none">convertedP...</text>
      <text
         x="326"
         y="93"
         clip-path="url(#clipPath18)"
         xml:space="preserve"
         id="text205"
         style="stroke:none">{y=x@pre}</text>
      <line
         clip-path="url(#clipPath15)"
         x1="320"
         x2="398"
         y1="50"
         y2="50"
         id="line207"
         style="fill:none;stroke-width:1.10000002" />
      <line
         clip-path="url(#clipPath15)"
         x1="398"
         x2="410"
         y1="50"
         y2="62"
         id="line209"
         style="fill:none;stroke-width:1.10000002" />
      <line
         clip-path="url(#clipPath15)"
         x1="410"
         x2="410"
         y1="62"
         y2="109"
         id="line211"
         style="fill:none;stroke-width:1.10000002" />
      <line
         clip-path="url(#clipPath15)"
         x1="410"
         x2="320"
         y1="109"
         y2="109"
         id="line213"
         style="fill:none;stroke-width:1.10000002" />
      <line
         clip-path="url(#clipPath15)"
         x1="320"
         x2="320"
         y1="109"
         y2="50"
         id="line215"
         style="fill:none;stroke-width:1.10000002" />
      <line
         clip-path="url(#clipPath15)"
         x1="320"
         x2="320"
         y1="50"
         y2="50"
         id="line217"
         style="fill:none;stroke-width:1.10000002" />
      <line
         clip-path="url(#clipPath15)"
         x1="398"
         x2="398"
         y1="50"
         y2="62"
         id="line219"
         style="fill:none;stroke-width:1.10000002" />
      <line
         clip-path="url(#clipPath15)"
         x1="398"
         x2="411"
         y1="62"
         y2="62"
         id="line221"
         style="fill:none;stroke-width:1.10000002" />
      <line
         clip-path="url(#clipPath20)"
         x1="509"
         x2="510"
         y1="87"
         y2="86"
         id="line229"
         style="opacity:0.50980003;fill:none;stroke:#bbbbbb;stroke-width:52.09999847" />
      <line
         clip-path="url(#clipPath20)"
         x1="510"
         x2="511"
         y1="86"
         y2="87"
         id="line231"
         style="opacity:0.50980003;fill:none;stroke:#bbbbbb;stroke-width:52.09999847" />
      <line
         clip-path="url(#clipPath21)"
         x1="509"
         x2="510"
         y1="269"
         y2="270"
         id="line237"
         style="opacity:0.50980003;fill:none;stroke:#bbbbbb;stroke-width:52.09999847" />
      <line
         clip-path="url(#clipPath21)"
         x1="510"
         x2="511"
         y1="270"
         y2="269"
         id="line239"
         style="opacity:0.50980003;fill:none;stroke:#bbbbbb;stroke-width:52.09999847" />
      <line
         clip-path="url(#clipPath23)"
         x1="263"
         x2="320"
         y1="80"
         y2="80"
         id="line247"
         style="fill:none;stroke-width:1.10000002;stroke-dasharray:6.6, 3.3" />
      <line
         clip-path="url(#clipPath23)"
         text-rendering="optimizeLegibility"
         x1="263"
         x2="287"
         y1="101"
         y2="111"
         id="line249"
         style="fill:none;stroke-width:1.10000002" />
      <line
         clip-path="url(#clipPath24)"
         text-rendering="optimizeLegibility"
         x1="276"
         x2="287"
         y1="111"
         y2="111"
         id="line251"
         style="fill:none;stroke-width:1.10000002" />
      <line
         clip-path="url(#clipPath24)"
         text-rendering="optimizeLegibility"
         x1="287"
         x2="279"
         y1="111"
         y2="103"
         id="line253"
         style="fill:none;stroke-width:1.10000002" />
      <text
         x="258"
         y="126"
         clip-path="url(#clipPath25)"
         text-rendering="optimizeLegibility"
         xml:space="preserve"
         id="text255"
         style="stroke:none"> </text>
      <line
         clip-path="url(#clipPath23)"
         text-rendering="optimizeLegibility"
         x1="255"
         x2="315"
         y1="146"
         y2="146"
         id="line257"
         style="fill:none;stroke-width:1.10000002;stroke-dasharray:6.6, 3.3" />
      <line
         clip-path="url(#clipPath23)"
         text-rendering="optimizeLegibility"
         x1="305"
         x2="445"
         y1="115"
         y2="115"
         id="line259"
         style="fill:none;stroke-width:1.10000002" />
      <line
         clip-path="url(#clipPath26)"
         text-rendering="optimizeLegibility"
         x1="435"
         x2="445"
         y1="119"
         y2="115"
         id="line261"
         style="fill:none;stroke-width:1.10000002" />
      <line
         clip-path="url(#clipPath26)"
         text-rendering="optimizeLegibility"
         x1="445"
         x2="435"
         y1="115"
         y2="111"
         id="line263"
         style="fill:none;stroke-width:1.10000002" />
      <line
         clip-path="url(#clipPath23)"
         text-rendering="optimizeLegibility"
         x1="49"
         x2="110"
         y1="114"
         y2="114"
         id="line265"
         style="fill:none;stroke-width:1.10000002" />
      <line
         clip-path="url(#clipPath27)"
         text-rendering="optimizeLegibility"
         x1="100"
         x2="110"
         y1="118"
         y2="114"
         id="line267"
         style="fill:none;stroke-width:1.10000002" />
      <line
         clip-path="url(#clipPath27)"
         text-rendering="optimizeLegibility"
         x1="110"
         x2="100"
         y1="114"
         y2="110"
         id="line269"
         style="fill:none;stroke-width:1.10000002" />
      <text
         x="78"
         y="139"
         clip-path="url(#clipPath28)"
         text-rendering="optimizeLegibility"
         xml:space="preserve"
         id="text271"
         style="stroke:none"> </text>
      <text
         x="56"
         y="139"
         clip-path="url(#clipPath29)"
         text-rendering="optimizeLegibility"
         xml:space="preserve"
         id="text273"
         style="stroke:none"> </text>
      <line
         clip-path="url(#clipPath23)"
         text-rendering="optimizeLegibility"
         x1="128"
         x2="200"
         y1="116"
         y2="136"
         id="line275"
         style="fill:none;stroke-width:1.10000002" />
      <line
         clip-path="url(#clipPath30)"
         text-rendering="optimizeLegibility"
         x1="189"
         x2="200"
         y1="137"
         y2="136"
         id="line277"
         style="fill:none;stroke-width:1.10000002" />
      <line
         clip-path="url(#clipPath30)"
         text-rendering="optimizeLegibility"
         x1="200"
         x2="191"
         y1="136"
         y2="129"
         id="line279"
         style="fill:none;stroke-width:1.10000002" />
      <text
         x="166"
         y="149"
         clip-path="url(#clipPath31)"
         text-rendering="optimizeLegibility"
         xml:space="preserve"
         id="text281"
         style="stroke:none">else</text>
      <text
         x="158"
         y="150"
         clip-path="url(#clipPath32)"
         text-rendering="optimizeLegibility"
         xml:space="preserve"
         id="text283"
         style="stroke:none"> </text>
      <text
         x="124"
         y="140"
         clip-path="url(#clipPath33)"
         text-rendering="optimizeLegibility"
         xml:space="preserve"
         id="text285"
         style="stroke:none">[x&gt;=6]</text>
      <line
         clip-path="url(#clipPath23)"
         text-rendering="optimizeLegibility"
         x1="128"
         x2="205"
         y1="112"
         y2="95"
         id="line287"
         style="fill:none;stroke-width:1.10000002" />
      <line
         clip-path="url(#clipPath34)"
         text-rendering="optimizeLegibility"
         x1="196"
         x2="205"
         y1="101"
         y2="95"
         id="line289"
         style="fill:none;stroke-width:1.10000002" />
      <line
         clip-path="url(#clipPath34)"
         text-rendering="optimizeLegibility"
         x1="205"
         x2="194"
         y1="95"
         y2="93"
         id="line291"
         style="fill:none;stroke-width:1.10000002" />
      <text
         x="171"
         y="89"
         clip-path="url(#clipPath35)"
         text-rendering="optimizeLegibility"
         xml:space="preserve"
         id="text293"
         style="stroke:none">then</text>
      <text
         x="124"
         y="103"
         clip-path="url(#clipPath36)"
         text-rendering="optimizeLegibility"
         xml:space="preserve"
         id="text295"
         style="stroke:none">[x&lt;=5]</text>
      <line
         clip-path="url(#clipPath23)"
         text-rendering="optimizeLegibility"
         x1="255"
         x2="287"
         y1="132"
         y2="118"
         id="line297"
         style="fill:none;stroke-width:1.10000002" />
      <line
         clip-path="url(#clipPath37)"
         text-rendering="optimizeLegibility"
         x1="279"
         x2="287"
         y1="126"
         y2="118"
         id="line299"
         style="fill:none;stroke-width:1.10000002" />
      <line
         clip-path="url(#clipPath37)"
         text-rendering="optimizeLegibility"
         x1="287"
         x2="276"
         y1="118"
         y2="118"
         id="line301"
         style="fill:none;stroke-width:1.10000002" />
      <text
         x="277"
         y="148"
         clip-path="url(#clipPath38)"
         text-rendering="optimizeLegibility"
         xml:space="preserve"
         id="text303"
         style="stroke:none"> </text>
      <text
         x="266"
         y="153"
         clip-path="url(#clipPath39)"
         text-rendering="optimizeLegibility"
         xml:space="preserve"
         id="text305"
         style="stroke:none"> </text>
      <line
         clip-path="url(#clipPath23)"
         text-rendering="optimizeLegibility"
         x1="128"
         x2="205"
         y1="112"
         y2="95"
         id="line307"
         style="fill:none;stroke-width:1.10000002" />
      <line
         clip-path="url(#clipPath34)"
         text-rendering="optimizeLegibility"
         x1="196"
         x2="205"
         y1="101"
         y2="95"
         id="line309"
         style="fill:none;stroke-width:1.10000002" />
      <line
         clip-path="url(#clipPath34)"
         text-rendering="optimizeLegibility"
         x1="205"
         x2="194"
         y1="95"
         y2="93"
         id="line311"
         style="fill:none;stroke-width:1.10000002" />
      <text
         x="171"
         y="89"
         clip-path="url(#clipPath35)"
         text-rendering="optimizeLegibility"
         xml:space="preserve"
         id="text313"
         style="stroke:none">then</text>
      <text
         x="124"
         y="103"
         clip-path="url(#clipPath36)"
         text-rendering="optimizeLegibility"
         xml:space="preserve"
         id="text315"
         style="stroke:none">[x&lt;=5]</text>
      <line
         clip-path="url(#clipPath23)"
         text-rendering="optimizeLegibility"
         x1="305"
         x2="445"
         y1="115"
         y2="115"
         id="line317"
         style="fill:none;stroke-width:1.10000002" />
      <line
         clip-path="url(#clipPath26)"
         text-rendering="optimizeLegibility"
         x1="435"
         x2="445"
         y1="119"
         y2="115"
         id="line319"
         style="fill:none;stroke-width:1.10000002" />
      <line
         clip-path="url(#clipPath26)"
         text-rendering="optimizeLegibility"
         x1="445"
         x2="435"
         y1="115"
         y2="111"
         id="line321"
         style="fill:none;stroke-width:1.10000002" />
      <line
         clip-path="url(#clipPath23)"
         text-rendering="optimizeLegibility"
         x1="255"
         x2="287"
         y1="132"
         y2="118"
         id="line323"
         style="fill:none;stroke-width:1.10000002" />
      <line
         clip-path="url(#clipPath37)"
         text-rendering="optimizeLegibility"
         x1="279"
         x2="287"
         y1="126"
         y2="118"
         id="line325"
         style="fill:none;stroke-width:1.10000002" />
      <line
         clip-path="url(#clipPath37)"
         text-rendering="optimizeLegibility"
         x1="287"
         x2="276"
         y1="118"
         y2="118"
         id="line327"
         style="fill:none;stroke-width:1.10000002" />
      <text
         x="277"
         y="148"
         clip-path="url(#clipPath38)"
         text-rendering="optimizeLegibility"
         xml:space="preserve"
         id="text329"
         style="stroke:none"> </text>
      <text
         x="266"
         y="153"
         clip-path="url(#clipPath39)"
         text-rendering="optimizeLegibility"
         xml:space="preserve"
         id="text331"
         style="stroke:none"> </text>
      <line
         clip-path="url(#clipPath23)"
         text-rendering="optimizeLegibility"
         x1="49"
         x2="110"
         y1="114"
         y2="114"
         id="line333"
         style="fill:none;stroke-width:1.10000002" />
      <line
         clip-path="url(#clipPath27)"
         text-rendering="optimizeLegibility"
         x1="100"
         x2="110"
         y1="118"
         y2="114"
         id="line335"
         style="fill:none;stroke-width:1.10000002" />
      <line
         clip-path="url(#clipPath27)"
         text-rendering="optimizeLegibility"
         x1="110"
         x2="100"
         y1="114"
         y2="110"
         id="line337"
         style="fill:none;stroke-width:1.10000002" />
      <text
         x="78"
         y="139"
         clip-path="url(#clipPath28)"
         text-rendering="optimizeLegibility"
         xml:space="preserve"
         id="text339"
         style="stroke:none"> </text>
      <text
         x="56"
         y="139"
         clip-path="url(#clipPath29)"
         text-rendering="optimizeLegibility"
         xml:space="preserve"
         id="text341"
         style="stroke:none"> </text>
      <line
         clip-path="url(#clipPath23)"
         text-rendering="optimizeLegibility"
         x1="128"
         x2="200"
         y1="116"
         y2="136"
         id="line343"
         style="fill:none;stroke-width:1.10000002" />
      <line
         clip-path="url(#clipPath30)"
         text-rendering="optimizeLegibility"
         x1="189"
         x2="200"
         y1="137"
         y2="136"
         id="line345"
         style="fill:none;stroke-width:1.10000002" />
      <line
         clip-path="url(#clipPath30)"
         text-rendering="optimizeLegibility"
         x1="200"
         x2="191"
         y1="136"
         y2="129"
         id="line347"
         style="fill:none;stroke-width:1.10000002" />
      <text
         x="166"
         y="149"
         clip-path="url(#clipPath31)"
         text-rendering="optimizeLegibility"
         xml:space="preserve"
         id="text349"
         style="stroke:none">else</text>
      <text
         x="158"
         y="150"
         clip-path="url(#clipPath32)"
         text-rendering="optimizeLegibility"
         xml:space="preserve"
         id="text351"
         style="stroke:none"> </text>
      <text
         x="124"
         y="140"
         clip-path="url(#clipPath33)"
         text-rendering="optimizeLegibility"
         xml:space="preserve"
         id="text353"
         style="stroke:none">[x&gt;=6]</text>
      <line
         clip-path="url(#clipPath23)"
         text-rendering="optimizeLegibility"
         x1="263"
         x2="287"
         y1="101"
         y2="111"
         id="line355"
         style="fill:none;stroke-width:1.10000002" />
      <line
         clip-path="url(#clipPath24)"
         text-rendering="optimizeLegibility"
         x1="276"
         x2="287"
         y1="111"
         y2="111"
         id="line357"
         style="fill:none;stroke-width:1.10000002" />
      <line
         clip-path="url(#clipPath24)"
         text-rendering="optimizeLegibility"
         x1="287"
         x2="279"
         y1="111"
         y2="103"
         id="line359"
         style="fill:none;stroke-width:1.10000002" />
      <text
         x="258"
         y="126"
         clip-path="url(#clipPath25)"
         text-rendering="optimizeLegibility"
         xml:space="preserve"
         id="text361"
         style="stroke:none"> </text>
      <line
         clip-path="url(#clipPath23)"
         text-rendering="optimizeLegibility"
         x1="255"
         x2="315"
         y1="146"
         y2="146"
         id="line363"
         style="fill:none;stroke-width:1.10000002;stroke-dasharray:6.6, 3.3" />
      <line
         clip-path="url(#clipPath23)"
         text-rendering="optimizeLegibility"
         x1="263"
         x2="320"
         y1="80"
         y2="80"
         id="line365"
         style="fill:none;stroke-width:1.10000002;stroke-dasharray:6.6, 3.3" />
    </g>
  </g>
</svg>
