<?xml version="1.0" encoding="UTF-8" standalone="no"?>
<svg
   xmlns:dc="http://purl.org/dc/elements/1.1/"
   xmlns:cc="http://creativecommons.org/ns#"
   xmlns:rdf="http://www.w3.org/1999/02/22-rdf-syntax-ns#"
   xmlns:svg="http://www.w3.org/2000/svg"
   xmlns="http://www.w3.org/2000/svg"
   xmlns:sodipodi="http://sodipodi.sourceforge.net/DTD/sodipodi-0.dtd"
   xmlns:inkscape="http://www.inkscape.org/namespaces/inkscape"
   shape-rendering="auto"
   width="434.125"
   text-rendering="auto"
   contentScriptType="text/ecmascript"
   color-interpolation="auto"
   color-rendering="auto"
   preserveAspectRatio="xMidYMid meet"
   font-size="12"
   viewBox="0 0 434.125 91.099998"
   image-rendering="auto"
   stroke-miterlimit="10"
   zoomAndPan="magnify"
   version="1.0"
   contentStyleType="text/css"
   font-style="normal"
   height="91.099998"
   font-weight="normal"
   id="svg2"
   inkscape:version="0.48.4 r9939"
   sodipodi:docname="BasicExamples.svg"
   style="font-size:12px;font-style:normal;font-weight:normal;fill:#000000;fill-opacity:1;stroke:#000000;stroke-width:1;stroke-linecap:square;stroke-linejoin:miter;stroke-miterlimit:10;stroke-opacity:1;stroke-dasharray:none;stroke-dashoffset:0;font-family:Dialog">
  <metadata
     id="metadata253">
    <rdf:RDF>
      <cc:Work
         rdf:about="">
        <dc:format>image/svg+xml</dc:format>
        <dc:type
           rdf:resource="http://purl.org/dc/dcmitype/StillImage" />
      </cc:Work>
    </rdf:RDF>
  </metadata>
  <sodipodi:namedview
     pagecolor="#ffffff"
     bordercolor="#666666"
     borderopacity="1"
     objecttolerance="10"
     gridtolerance="10"
     guidetolerance="10"
     inkscape:pageopacity="0"
     inkscape:pageshadow="2"
     inkscape:window-width="1920"
     inkscape:window-height="1033"
     id="namedview251"
     showgrid="false"
     fit-margin-top="0"
     fit-margin-left="0"
     fit-margin-right="0"
     fit-margin-bottom="0"
     inkscape:zoom="2.7631579"
     inkscape:cx="211.26477"
     inkscape:cy="59.072865"
     inkscape:window-x="-4"
     inkscape:window-y="-4"
     inkscape:window-maximized="1"
     inkscape:current-layer="svg2" />
  <!--Generated by the Batik Graphics2D SVG Generator-->
  <defs
     id="genericDefs" />
  <g
     id="g5"
     transform="translate(-9.9375,-44.45)">
    <defs
       id="defs1">
      <clipPath
         clipPathUnits="userSpaceOnUse"
         id="clipPath1">
        <path
           d="m 89,74 22,0 0,32 -22,0 0,-32 z"
           id="path9"
           inkscape:connector-curvature="0" />
      </clipPath>
      <clipPath
         clipPathUnits="userSpaceOnUse"
         id="clipPath2">
        <path
           d="m 179,44 66,0 0,38 -66,0 0,-38 z"
           id="path12"
           inkscape:connector-curvature="0" />
      </clipPath>
      <clipPath
         clipPathUnits="userSpaceOnUse"
         id="clipPath3">
        <path
           d="m 181,55 61,0 0,15 -61,0 0,-15 z"
           id="path15"
           inkscape:connector-curvature="0" />
      </clipPath>
      <clipPath
         clipPathUnits="userSpaceOnUse"
         id="clipPath4">
        <path
           d="m 264,74 22,0 0,32 -22,0 0,-32 z"
           id="path18"
           inkscape:connector-curvature="0" />
      </clipPath>
      <clipPath
         clipPathUnits="userSpaceOnUse"
         id="clipPath5">
        <path
           d="m 424,79 22,0 0,22 -22,0 0,-22 z"
           id="path21"
           inkscape:connector-curvature="0" />
      </clipPath>
      <clipPath
         clipPathUnits="userSpaceOnUse"
         id="clipPath6">
        <path
           d="m 179,89 66,0 0,38 -66,0 0,-38 z"
           id="path24"
           inkscape:connector-curvature="0" />
      </clipPath>
      <clipPath
         clipPathUnits="userSpaceOnUse"
         id="clipPath7">
        <path
           d="m 183,100 58,0 0,15 -58,0 0,-15 z"
           id="path27"
           inkscape:connector-curvature="0" />
      </clipPath>
      <clipPath
         clipPathUnits="userSpaceOnUse"
         id="clipPath8">
        <path
           d="m 9,79 22,0 0,22 -22,0 0,-22 z"
           id="path30"
           inkscape:connector-curvature="0" />
      </clipPath>
      <clipPath
         clipPathUnits="userSpaceOnUse"
         id="clipPath9">
        <path
           d="m 289,95 128,0 0,42 -128,0 0,-42 z"
           id="path33"
           inkscape:connector-curvature="0" />
      </clipPath>
      <clipPath
         clipPathUnits="userSpaceOnUse"
         id="clipPath10">
        <path
           d="m 295,101 107,0 0,15 -107,0 0,-15 z"
           id="path36"
           inkscape:connector-curvature="0" />
      </clipPath>
      <clipPath
         clipPathUnits="userSpaceOnUse"
         id="clipPath11">
        <path
           d="m 295,116 81,0 0,15 -81,0 0,-15 z"
           id="path39"
           inkscape:connector-curvature="0" />
      </clipPath>
      <clipPath
         clipPathUnits="userSpaceOnUse"
         id="clipPath12">
        <path
           d="m 289,44 128,0 0,42 -128,0 0,-42 z"
           id="path42"
           inkscape:connector-curvature="0" />
      </clipPath>
      <clipPath
         clipPathUnits="userSpaceOnUse"
         id="clipPath13">
        <path
           d="m 295,50 107,0 0,15 -107,0 0,-15 z"
           id="path45"
           inkscape:connector-curvature="0" />
      </clipPath>
      <clipPath
         clipPathUnits="userSpaceOnUse"
         id="clipPath14">
        <path
           d="m 295,65 59,0 0,15 -59,0 0,-15 z"
           id="path48"
           inkscape:connector-curvature="0" />
      </clipPath>
      <clipPath
         clipPathUnits="userSpaceOnUse"
         id="clipPath15">
        <path
           d="m -1,-1 458,0 0,174 -458,0 0,-174 z"
           id="path51"
           inkscape:connector-curvature="0" />
      </clipPath>
      <clipPath
         clipPathUnits="userSpaceOnUse"
         id="clipPath16">
        <path
           d="m 168,67 14,0 0,11 -14,0 0,-11 z"
           id="path54"
           inkscape:connector-curvature="0" />
      </clipPath>
      <clipPath
         clipPathUnits="userSpaceOnUse"
         id="clipPath17">
        <path
           d="m 145,52 31,0 0,15 -31,0 0,-15 z"
           id="path57"
           inkscape:connector-curvature="0" />
      </clipPath>
      <clipPath
         clipPathUnits="userSpaceOnUse"
         id="clipPath18">
        <path
           d="m 109,63 39,0 0,15 -39,0 0,-15 z"
           id="path60"
           inkscape:connector-curvature="0" />
      </clipPath>
      <clipPath
         clipPathUnits="userSpaceOnUse"
         id="clipPath19">
        <path
           d="m 169,96 13,0 0,10 -13,0 0,-10 z"
           id="path63"
           inkscape:connector-curvature="0" />
      </clipPath>
      <clipPath
         clipPathUnits="userSpaceOnUse"
         id="clipPath20">
        <path
           d="m 150,104 27,0 0,15 -27,0 0,-15 z"
           id="path66"
           inkscape:connector-curvature="0" />
      </clipPath>
      <clipPath
         clipPathUnits="userSpaceOnUse"
         id="clipPath21">
        <path
           d="m 139,109 6,0 0,15 -6,0 0,-15 z"
           id="path69"
           inkscape:connector-curvature="0" />
      </clipPath>
      <clipPath
         clipPathUnits="userSpaceOnUse"
         id="clipPath22">
        <path
           d="m 108,100 39,0 0,15 -39,0 0,-15 z"
           id="path72"
           inkscape:connector-curvature="0" />
      </clipPath>
      <clipPath
         clipPathUnits="userSpaceOnUse"
         id="clipPath23">
        <path
           d="m 79,85 13,0 0,11 -13,0 0,-11 z"
           id="path75"
           inkscape:connector-curvature="0" />
      </clipPath>
      <clipPath
         clipPathUnits="userSpaceOnUse"
         id="clipPath24">
        <path
           d="m 57,103 6,0 0,15 -6,0 0,-15 z"
           id="path78"
           inkscape:connector-curvature="0" />
      </clipPath>
      <clipPath
         clipPathUnits="userSpaceOnUse"
         id="clipPath25">
        <path
           d="m 36,103 6,0 0,15 -6,0 0,-15 z"
           id="path81"
           inkscape:connector-curvature="0" />
      </clipPath>
      <clipPath
         clipPathUnits="userSpaceOnUse"
         id="clipPath26">
        <path
           d="m 255,77 14,0 0,11 -14,0 0,-11 z"
           id="path84"
           inkscape:connector-curvature="0" />
      </clipPath>
      <clipPath
         clipPathUnits="userSpaceOnUse"
         id="clipPath27">
        <path
           d="m 238,89 6,0 0,15 -6,0 0,-15 z"
           id="path87"
           inkscape:connector-curvature="0" />
      </clipPath>
      <clipPath
         clipPathUnits="userSpaceOnUse"
         id="clipPath28">
        <path
           d="m 414,85 13,0 0,11 -13,0 0,-11 z"
           id="path90"
           inkscape:connector-curvature="0" />
      </clipPath>
      <clipPath
         clipPathUnits="userSpaceOnUse"
         id="clipPath29">
        <path
           d="m 254,90 14,0 0,10 -14,0 0,-10 z"
           id="path93"
           inkscape:connector-curvature="0" />
      </clipPath>
      <clipPath
         clipPathUnits="userSpaceOnUse"
         id="clipPath30">
        <path
           d="m 258,107 6,0 0,15 -6,0 0,-15 z"
           id="path96"
           inkscape:connector-curvature="0" />
      </clipPath>
      <clipPath
         clipPathUnits="userSpaceOnUse"
         id="clipPath31">
        <path
           d="m 249,109 6,0 0,15 -6,0 0,-15 z"
           id="path99"
           inkscape:connector-curvature="0" />
      </clipPath>
    </defs>
    <g
       font-size="11"
       stroke-miterlimit="0"
       id="g101"
       style="font-size:11px;fill:#ffffff;stroke:#ffffff;stroke-width:0;stroke-linejoin:round;stroke-miterlimit:0;font-family:Tahoma">
      <polygon
         clip-path="url(#clipPath1)"
         points="90,89 99,75 109,89 99,104 "
         id="polygon103"
         style="stroke:none" />
    </g>
    <g
       font-size="11"
       id="g105"
       style="font-size:11px;stroke-width:0.1;stroke-linecap:butt;font-family:Tahoma">
      <polygon
         clip-path="url(#clipPath1)"
         points="90,89 99,75 109,89 99,104 "
         id="polygon107"
         style="fill:none" />
      <polygon
         clip-path="url(#clipPath1)"
         points="90,89 99,75 109,89 99,104 "
         id="polygon109"
         style="fill:#ffffff;stroke:none" />
      <polygon
         clip-path="url(#clipPath1)"
         points="90,89 99,75 109,89 99,104 "
         id="polygon111"
         style="fill:none;stroke-width:1.10000002" />
      <rect
         x="180"
         y="45"
         clip-path="url(#clipPath2)"
         width="64"
         rx="7.5"
         ry="7.5"
         height="36"
         id="rect113"
         style="fill:#ffffff;stroke:none" />
      <text
         x="182"
         y="67"
         clip-path="url(#clipPath3)"
         xml:space="preserve"
         id="text115"
         style="stroke:none">then_Action</text>
      <rect
         x="180"
         y="45"
         clip-path="url(#clipPath2)"
         width="63"
         rx="7.5"
         ry="7.5"
         height="35"
         id="rect117"
         style="fill:none;stroke-width:1.10000002" />
      <polygon
         clip-path="url(#clipPath4)"
         points="265,89 274,75 284,89 274,104 "
         id="polygon119"
         style="fill:#ffffff;stroke:none" />
      <polygon
         clip-path="url(#clipPath4)"
         points="265,89 274,75 284,89 274,104 "
         id="polygon121"
         style="fill:none" />
      <polygon
         clip-path="url(#clipPath4)"
         points="265,89 274,75 284,89 274,104 "
         id="polygon123"
         style="fill:#ffffff;stroke:none" />
      <polygon
         clip-path="url(#clipPath4)"
         points="265,89 274,75 284,89 274,104 "
         id="polygon125"
         style="fill:none;stroke-width:1.10000002" />
      <circle
         clip-path="url(#clipPath5)"
         r="9.5"
         cx="434.5"
         cy="89.5"
         id="circle127"
         sodipodi:cx="434.5"
         sodipodi:cy="89.5"
         sodipodi:rx="9.5"
         sodipodi:ry="9.5"
         style="fill:#ffffff;stroke:none"
         d="m 444,89.5 c 0,5.246705 -4.25329,9.5 -9.5,9.5 -5.24671,0 -9.5,-4.253295 -9.5,-9.5 0,-5.246705 4.25329,-9.5 9.5,-9.5 5.24671,0 9.5,4.253295 9.5,9.5 z" />
      <circle
         r="9.5"
         clip-path="url(#clipPath5)"
         cx="434.5"
         cy="89.5"
         id="circle129"
         sodipodi:cx="434.5"
         sodipodi:cy="89.5"
         sodipodi:rx="9.5"
         sodipodi:ry="9.5"
         style="fill:none"
         d="m 444,89.5 c 0,5.246705 -4.25329,9.5 -9.5,9.5 -5.24671,0 -9.5,-4.253295 -9.5,-9.5 0,-5.246705 4.25329,-9.5 9.5,-9.5 5.24671,0 9.5,4.253295 9.5,9.5 z" />
      <circle
         r="9.5"
         clip-path="url(#clipPath5)"
         cx="434.5"
         cy="89.5"
         id="circle131"
         sodipodi:cx="434.5"
         sodipodi:cy="89.5"
         sodipodi:rx="9.5"
         sodipodi:ry="9.5"
         style="fill:none"
         d="m 444,89.5 c 0,5.246705 -4.25329,9.5 -9.5,9.5 -5.24671,0 -9.5,-4.253295 -9.5,-9.5 0,-5.246705 4.25329,-9.5 9.5,-9.5 5.24671,0 9.5,4.253295 9.5,9.5 z" />
      <circle
         r="4"
         clip-path="url(#clipPath5)"
         cx="434"
         cy="89"
         id="circle133"
         sodipodi:cx="434"
         sodipodi:cy="89"
         sodipodi:rx="4"
         sodipodi:ry="4"
         style="stroke:none"
         d="m 438,89 c 0,2.209139 -1.79086,4 -4,4 -2.20914,0 -4,-1.790861 -4,-4 0,-2.209139 1.79086,-4 4,-4 2.20914,0 4,1.790861 4,4 z" />
      <rect
         x="180"
         y="90"
         clip-path="url(#clipPath6)"
         width="64"
         rx="7.5"
         ry="7.5"
         height="36"
         id="rect135"
         style="fill:#ffffff;stroke:none" />
      <text
         xml:space="preserve"
         x="184"
         y="112"
         clip-path="url(#clipPath7)"
         id="text137"
         style="stroke:none">else_Action</text>
      <rect
         x="180"
         y="90"
         clip-path="url(#clipPath6)"
         width="63"
         rx="7.5"
         ry="7.5"
         height="35"
         id="rect139"
         style="fill:none;stroke-width:1.10000002" />
      <circle
         clip-path="url(#clipPath8)"
         r="9.5"
         cx="19.5"
         cy="89.5"
         id="circle141"
         sodipodi:cx="19.5"
         sodipodi:cy="89.5"
         sodipodi:rx="9.5"
         sodipodi:ry="9.5"
         style="fill:#ffffff;stroke:none"
         d="M 29,89.5 C 29,94.746705 24.746705,99 19.5,99 14.253295,99 10,94.746705 10,89.5 10,84.253295 14.253295,80 19.5,80 c 5.246705,0 9.5,4.253295 9.5,9.5 z" />
      <circle
         r="9.5"
         clip-path="url(#clipPath8)"
         cx="19.5"
         cy="89.5"
         id="circle143"
         sodipodi:cx="19.5"
         sodipodi:cy="89.5"
         sodipodi:rx="9.5"
         sodipodi:ry="9.5"
         style="fill:none"
         d="M 29,89.5 C 29,94.746705 24.746705,99 19.5,99 14.253295,99 10,94.746705 10,89.5 10,84.253295 14.253295,80 19.5,80 c 5.246705,0 9.5,4.253295 9.5,9.5 z" />
      <circle
         r="9.5"
         clip-path="url(#clipPath8)"
         cx="19.5"
         cy="89.5"
         id="circle145"
         sodipodi:cx="19.5"
         sodipodi:cy="89.5"
         sodipodi:rx="9.5"
         sodipodi:ry="9.5"
         style="stroke:none"
         d="M 29,89.5 C 29,94.746705 24.746705,99 19.5,99 14.253295,99 10,94.746705 10,89.5 10,84.253295 14.253295,80 19.5,80 c 5.246705,0 9.5,4.253295 9.5,9.5 z" />
      <path
         d="m 290,96 0,0 113,0 12,12 0,27 -125,0 0,-39 z"
         clip-path="url(#clipPath9)"
         id="path147"
         inkscape:connector-curvature="0"
         style="fill:#ffffff;fill-rule:evenodd;stroke:none" />
      <text
         xml:space="preserve"
         x="298"
         y="113"
         clip-path="url(#clipPath10)"
         id="text149"
         style="stroke:none">«LocalPostCondtion»</text>
      <text
         xml:space="preserve"
         x="296"
         y="128"
         clip-path="url(#clipPath11)"
         id="text151"
         style="stroke:none">{y=x@pre-100}</text>
      <line
         clip-path="url(#clipPath9)"
         x1="290"
         x2="403"
         y1="96"
         y2="96"
         id="line153"
         style="fill:none;stroke-width:1.10000002" />
      <line
         clip-path="url(#clipPath9)"
         x1="403"
         x2="415"
         y1="96"
         y2="108"
         id="line155"
         style="fill:none;stroke-width:1.10000002" />
      <line
         clip-path="url(#clipPath9)"
         x1="415"
         x2="415"
         y1="108"
         y2="135"
         id="line157"
         style="fill:none;stroke-width:1.10000002" />
      <line
         clip-path="url(#clipPath9)"
         x1="415"
         x2="290"
         y1="135"
         y2="135"
         id="line159"
         style="fill:none;stroke-width:1.10000002" />
      <line
         clip-path="url(#clipPath9)"
         x1="290"
         x2="290"
         y1="135"
         y2="96"
         id="line161"
         style="fill:none;stroke-width:1.10000002" />
      <line
         clip-path="url(#clipPath9)"
         x1="290"
         x2="290"
         y1="96"
         y2="96"
         id="line163"
         style="fill:none;stroke-width:1.10000002" />
      <line
         clip-path="url(#clipPath9)"
         x1="403"
         x2="403"
         y1="96"
         y2="108"
         id="line165"
         style="fill:none;stroke-width:1.10000002" />
      <line
         clip-path="url(#clipPath9)"
         x1="403"
         x2="416"
         y1="108"
         y2="108"
         id="line167"
         style="fill:none;stroke-width:1.10000002" />
      <path
         clip-path="url(#clipPath12)"
         d="m 290,45 0,0 113,0 12,12 0,27 -125,0 0,-39 z"
         id="path169"
         inkscape:connector-curvature="0"
         style="fill:#ffffff;fill-rule:evenodd;stroke:none" />
      <text
         x="298"
         y="62"
         clip-path="url(#clipPath13)"
         xml:space="preserve"
         id="text171"
         style="stroke:none">«LocalPostCondtion»</text>
      <text
         x="296"
         y="77"
         clip-path="url(#clipPath14)"
         xml:space="preserve"
         id="text173"
         style="stroke:none">{y=x@pre}</text>
      <line
         clip-path="url(#clipPath12)"
         x1="290"
         x2="403"
         y1="45"
         y2="45"
         id="line175"
         style="fill:none;stroke-width:1.10000002" />
      <line
         clip-path="url(#clipPath12)"
         x1="403"
         x2="415"
         y1="45"
         y2="57"
         id="line177"
         style="fill:none;stroke-width:1.10000002" />
      <line
         clip-path="url(#clipPath12)"
         x1="415"
         x2="415"
         y1="57"
         y2="84"
         id="line179"
         style="fill:none;stroke-width:1.10000002" />
      <line
         clip-path="url(#clipPath12)"
         x1="415"
         x2="290"
         y1="84"
         y2="84"
         id="line181"
         style="fill:none;stroke-width:1.10000002" />
      <line
         clip-path="url(#clipPath12)"
         x1="290"
         x2="290"
         y1="84"
         y2="45"
         id="line183"
         style="fill:none;stroke-width:1.10000002" />
      <line
         clip-path="url(#clipPath12)"
         x1="290"
         x2="290"
         y1="45"
         y2="45"
         id="line185"
         style="fill:none;stroke-width:1.10000002" />
      <line
         clip-path="url(#clipPath12)"
         x1="403"
         x2="403"
         y1="45"
         y2="57"
         id="line187"
         style="fill:none;stroke-width:1.10000002" />
      <line
         clip-path="url(#clipPath12)"
         x1="403"
         x2="416"
         y1="57"
         y2="57"
         id="line189"
         style="fill:none;stroke-width:1.10000002" />
      <line
         clip-path="url(#clipPath15)"
         text-rendering="optimizeLegibility"
         x1="108"
         x2="180"
         y1="87"
         y2="70"
         id="line191"
         style="fill:none;stroke-width:1.10000002" />
      <line
         clip-path="url(#clipPath16)"
         text-rendering="optimizeLegibility"
         x1="171"
         x2="180"
         y1="76"
         y2="70"
         id="line193"
         style="fill:none;stroke-width:1.10000002" />
      <line
         clip-path="url(#clipPath16)"
         text-rendering="optimizeLegibility"
         x1="180"
         x2="169"
         y1="70"
         y2="68"
         id="line195"
         style="fill:none;stroke-width:1.10000002" />
      <text
         x="146"
         y="64"
         clip-path="url(#clipPath17)"
         text-rendering="optimizeLegibility"
         xml:space="preserve"
         id="text197"
         style="stroke:none">_then</text>
      <text
         x="110"
         y="75"
         clip-path="url(#clipPath18)"
         text-rendering="optimizeLegibility"
         xml:space="preserve"
         id="text199"
         style="stroke:none">[x&lt;=5]</text>
      <line
         clip-path="url(#clipPath15)"
         text-rendering="optimizeLegibility"
         x1="109"
         x2="180"
         y1="91"
         y2="102"
         id="line201"
         style="fill:none;stroke-width:1.10000002" />
      <line
         clip-path="url(#clipPath19)"
         text-rendering="optimizeLegibility"
         x1="170"
         x2="180"
         y1="104"
         y2="102"
         id="line203"
         style="fill:none;stroke-width:1.10000002" />
      <line
         clip-path="url(#clipPath19)"
         text-rendering="optimizeLegibility"
         x1="180"
         x2="171"
         y1="102"
         y2="97"
         id="line205"
         style="fill:none;stroke-width:1.10000002" />
      <text
         x="151"
         y="116"
         clip-path="url(#clipPath20)"
         text-rendering="optimizeLegibility"
         xml:space="preserve"
         id="text207"
         style="stroke:none">_else</text>
      <text
         x="140"
         y="121"
         clip-path="url(#clipPath21)"
         text-rendering="optimizeLegibility"
         xml:space="preserve"
         id="text209"
         style="stroke:none"> </text>
      <text
         x="109"
         y="112"
         clip-path="url(#clipPath22)"
         text-rendering="optimizeLegibility"
         xml:space="preserve"
         id="text211"
         style="stroke:none">[x&gt;=6]</text>
      <line
         clip-path="url(#clipPath15)"
         text-rendering="optimizeLegibility"
         x1="30"
         x2="90"
         y1="90"
         y2="90"
         id="line213"
         style="fill:none;stroke-width:1.10000002" />
      <line
         clip-path="url(#clipPath23)"
         text-rendering="optimizeLegibility"
         x1="80"
         x2="90"
         y1="94"
         y2="90"
         id="line215"
         style="fill:none;stroke-width:1.10000002" />
      <line
         clip-path="url(#clipPath23)"
         text-rendering="optimizeLegibility"
         x1="90"
         x2="80"
         y1="90"
         y2="86"
         id="line217"
         style="fill:none;stroke-width:1.10000002" />
      <text
         x="58"
         y="115"
         clip-path="url(#clipPath24)"
         text-rendering="optimizeLegibility"
         xml:space="preserve"
         id="text219"
         style="stroke:none"> </text>
      <text
         x="37"
         y="115"
         clip-path="url(#clipPath25)"
         text-rendering="optimizeLegibility"
         xml:space="preserve"
         id="text221"
         style="stroke:none"> </text>
      <line
         clip-path="url(#clipPath15)"
         text-rendering="optimizeLegibility"
         x1="244"
         x2="267"
         y1="76"
         y2="86"
         id="line223"
         style="fill:none;stroke-width:1.10000002" />
      <line
         clip-path="url(#clipPath26)"
         text-rendering="optimizeLegibility"
         x1="256"
         x2="267"
         y1="86"
         y2="86"
         id="line225"
         style="fill:none;stroke-width:1.10000002" />
      <line
         clip-path="url(#clipPath26)"
         text-rendering="optimizeLegibility"
         x1="267"
         x2="259"
         y1="86"
         y2="78"
         id="line227"
         style="fill:none;stroke-width:1.10000002" />
      <text
         x="239"
         y="101"
         clip-path="url(#clipPath27)"
         text-rendering="optimizeLegibility"
         xml:space="preserve"
         id="text229"
         style="stroke:none"> </text>
      <line
         clip-path="url(#clipPath15)"
         text-rendering="optimizeLegibility"
         x1="244"
         x2="290"
         y1="65"
         y2="65"
         id="line231"
         style="fill:none;stroke-width:1.10000002;stroke-dasharray:6.6, 3.3" />
      <line
         clip-path="url(#clipPath15)"
         text-rendering="optimizeLegibility"
         x1="285"
         x2="425"
         y1="90"
         y2="90"
         id="line233"
         style="fill:none;stroke-width:1.10000002" />
      <line
         clip-path="url(#clipPath28)"
         text-rendering="optimizeLegibility"
         x1="415"
         x2="425"
         y1="94"
         y2="90"
         id="line235"
         style="fill:none;stroke-width:1.10000002" />
      <line
         clip-path="url(#clipPath28)"
         text-rendering="optimizeLegibility"
         x1="425"
         x2="415"
         y1="90"
         y2="86"
         id="line237"
         style="fill:none;stroke-width:1.10000002" />
      <line
         clip-path="url(#clipPath15)"
         text-rendering="optimizeLegibility"
         x1="244"
         x2="266"
         y1="98"
         y2="92"
         id="line239"
         style="fill:none;stroke-width:1.10000002" />
      <line
         clip-path="url(#clipPath29)"
         text-rendering="optimizeLegibility"
         x1="257"
         x2="266"
         y1="98"
         y2="92"
         id="line241"
         style="fill:none;stroke-width:1.10000002" />
      <line
         clip-path="url(#clipPath29)"
         text-rendering="optimizeLegibility"
         x1="266"
         x2="255"
         y1="92"
         y2="91"
         id="line243"
         style="fill:none;stroke-width:1.10000002" />
      <text
         x="259"
         y="119"
         clip-path="url(#clipPath30)"
         text-rendering="optimizeLegibility"
         xml:space="preserve"
         id="text245"
         style="stroke:none"> </text>
      <text
         x="250"
         y="121"
         clip-path="url(#clipPath31)"
         text-rendering="optimizeLegibility"
         xml:space="preserve"
         id="text247"
         style="stroke:none"> </text>
      <line
         clip-path="url(#clipPath15)"
         text-rendering="optimizeLegibility"
         x1="244"
         x2="290"
         y1="109"
         y2="109"
         id="line249"
         style="fill:none;stroke-width:1.10000002;stroke-dasharray:6.6, 3.3" />
    </g>
  </g>
</svg>
