<?xml version="1.0" encoding="UTF-8"?><svg xmlns="http://www.w3.org/2000/svg" xmlns:xlink="http://www.w3.org/1999/xlink" stroke-dasharray="none" shape-rendering="auto" font-family="'Dialog'" width="640" text-rendering="auto" fill-opacity="1" contentScriptType="text/ecmascript" color-interpolation="auto" color-rendering="auto" preserveAspectRatio="xMidYMid meet" font-size="12" viewBox="0 0 640 310" fill="black" stroke="black" image-rendering="auto" stroke-miterlimit="10" zoomAndPan="magnify" version="1.0" stroke-linecap="square" stroke-linejoin="miter" contentStyleType="text/css" font-style="normal" height="310" stroke-width="1" stroke-dashoffset="0" font-weight="normal" stroke-opacity="1">
<!--Generated by the Batik Graphics2D SVG Generator-->
<defs id="genericDefs"/>
<g>
<defs id="defs1">
<clipPath clipPathUnits="userSpaceOnUse" id="clipPath1">
<path d="M24 14 L126 14 L126 116 L24 116 L24 14 Z"/>
</clipPath>
<clipPath clipPathUnits="userSpaceOnUse" id="clipPath2">
<path d="M55 17 L100 17 L100 32 L55 32 L55 17 Z"/>
</clipPath>
<clipPath clipPathUnits="userSpaceOnUse" id="clipPath3">
<path d="M24 31 L126 31 L126 62 L24 62 L24 31 Z"/>
</clipPath>
<clipPath clipPathUnits="userSpaceOnUse" id="clipPath4">
<path d="M24 61 L126 61 L126 92 L24 92 L24 61 Z"/>
</clipPath>
<clipPath clipPathUnits="userSpaceOnUse" id="clipPath5">
<path d="M24 91 L126 91 L126 116 L24 116 L24 91 Z"/>
</clipPath>
<clipPath clipPathUnits="userSpaceOnUse" id="clipPath6">
<path d="M304 9 L406 9 L406 111 L304 111 L304 9 Z"/>
</clipPath>
<clipPath clipPathUnits="userSpaceOnUse" id="clipPath7">
<path d="M332 12 L383 12 L383 27 L332 27 L332 12 Z"/>
</clipPath>
<clipPath clipPathUnits="userSpaceOnUse" id="clipPath8">
<path d="M304 26 L406 26 L406 57 L304 57 L304 26 Z"/>
</clipPath>
<clipPath clipPathUnits="userSpaceOnUse" id="clipPath9">
<path d="M304 56 L406 56 L406 87 L304 87 L304 56 Z"/>
</clipPath>
<clipPath clipPathUnits="userSpaceOnUse" id="clipPath10">
<path d="M304 86 L406 86 L406 111 L304 111 L304 86 Z"/>
</clipPath>
<clipPath clipPathUnits="userSpaceOnUse" id="clipPath11">
<path d="M304 174 L406 174 L406 276 L304 276 L304 174 Z"/>
</clipPath>
<clipPath clipPathUnits="userSpaceOnUse" id="clipPath12">
<path d="M339 177 L377 177 L377 192 L339 192 L339 177 Z"/>
</clipPath>
<clipPath clipPathUnits="userSpaceOnUse" id="clipPath13">
<path d="M304 191 L406 191 L406 222 L304 222 L304 191 Z"/>
</clipPath>
<clipPath clipPathUnits="userSpaceOnUse" id="clipPath14">
<path d="M304 221 L406 221 L406 252 L304 252 L304 221 Z"/>
</clipPath>
<clipPath clipPathUnits="userSpaceOnUse" id="clipPath15">
<path d="M304 251 L406 251 L406 276 L304 276 L304 251 Z"/>
</clipPath>
<clipPath clipPathUnits="userSpaceOnUse" id="clipPath16">
<path d="M529 129 L631 129 L631 231 L529 231 L529 129 Z"/>
</clipPath>
<clipPath clipPathUnits="userSpaceOnUse" id="clipPath17">
<path d="M557 132 L609 132 L609 147 L557 147 L557 132 Z"/>
</clipPath>
<clipPath clipPathUnits="userSpaceOnUse" id="clipPath18">
<path d="M529 146 L631 146 L631 177 L529 177 L529 146 Z"/>
</clipPath>
<clipPath clipPathUnits="userSpaceOnUse" id="clipPath19">
<path d="M529 176 L631 176 L631 207 L529 207 L529 176 Z"/>
</clipPath>
<clipPath clipPathUnits="userSpaceOnUse" id="clipPath20">
<path d="M529 206 L631 206 L631 231 L529 231 L529 206 Z"/>
</clipPath>
<clipPath clipPathUnits="userSpaceOnUse" id="clipPath21">
<path d="M24 199 L164 199 L164 301 L24 301 L24 199 Z"/>
</clipPath>
<clipPath clipPathUnits="userSpaceOnUse" id="clipPath22">
<path d="M75 202 L119 202 L119 217 L75 217 L75 202 Z"/>
</clipPath>
<clipPath clipPathUnits="userSpaceOnUse" id="clipPath23">
<path d="M29 218 L159 218 L159 233 L29 233 L29 218 Z"/>
</clipPath>
<clipPath clipPathUnits="userSpaceOnUse" id="clipPath24">
<path d="M24 216 L164 216 L164 250 L24 250 L24 216 Z"/>
</clipPath>
<clipPath clipPathUnits="userSpaceOnUse" id="clipPath25">
<path d="M24 249 L164 249 L164 278 L24 278 L24 249 Z"/>
</clipPath>
<clipPath clipPathUnits="userSpaceOnUse" id="clipPath26">
<path d="M24 277 L164 277 L164 301 L24 301 L24 277 Z"/>
</clipPath>
<clipPath clipPathUnits="userSpaceOnUse" id="clipPath27">
<path d="M-1 -1 L641 -1 L641 311 L-1 311 L-1 -1 Z"/>
</clipPath>
<clipPath clipPathUnits="userSpaceOnUse" id="clipPath28">
<path d="M284 136 L386 136 L386 151 L284 151 L284 136 Z"/>
</clipPath>
<clipPath clipPathUnits="userSpaceOnUse" id="clipPath29">
<path d="M279 114 L355 114 L355 129 L279 129 L279 114 Z"/>
</clipPath>
<clipPath clipPathUnits="userSpaceOnUse" id="clipPath30">
<path d="M324 113 L347 113 L347 128 L324 128 L324 113 Z"/>
</clipPath>
<clipPath clipPathUnits="userSpaceOnUse" id="clipPath31">
<path d="M309 158 L362 158 L362 173 L309 173 L309 158 Z"/>
</clipPath>
<clipPath clipPathUnits="userSpaceOnUse" id="clipPath32">
<path d="M357 158 L394 158 L394 173 L357 173 L357 158 Z"/>
</clipPath>
<clipPath clipPathUnits="userSpaceOnUse" id="clipPath33">
<path d="M467 91 L584 91 L584 106 L467 106 L467 91 Z"/>
</clipPath>
<clipPath clipPathUnits="userSpaceOnUse" id="clipPath34">
<path d="M402 72 L465 72 L465 87 L402 87 L402 72 Z"/>
</clipPath>
<clipPath clipPathUnits="userSpaceOnUse" id="clipPath35">
<path d="M404 106 L427 106 L427 121 L404 121 L404 106 Z"/>
</clipPath>
<clipPath clipPathUnits="userSpaceOnUse" id="clipPath36">
<path d="M470 153 L536 153 L536 168 L470 168 L470 153 Z"/>
</clipPath>
<clipPath clipPathUnits="userSpaceOnUse" id="clipPath37">
<path d="M510 119 L533 119 L533 134 L510 134 L510 119 Z"/>
</clipPath>
<clipPath clipPathUnits="userSpaceOnUse" id="clipPath38">
<path d="M404 85 L421 85 L421 96 L404 96 L404 85 Z"/>
</clipPath>
<clipPath clipPathUnits="userSpaceOnUse" id="clipPath39">
<path d="M513 141 L532 141 L532 155 L513 155 L513 141 Z"/>
</clipPath>
<clipPath clipPathUnits="userSpaceOnUse" id="clipPath40">
<path d="M416 228 L522 228 L522 243 L416 243 L416 228 Z"/>
</clipPath>
<clipPath clipPathUnits="userSpaceOnUse" id="clipPath41">
<path d="M397 195 L448 195 L448 210 L397 210 L397 195 Z"/>
</clipPath>
<clipPath clipPathUnits="userSpaceOnUse" id="clipPath42">
<path d="M415 233 L438 233 L438 248 L415 248 L415 233 Z"/>
</clipPath>
<clipPath clipPathUnits="userSpaceOnUse" id="clipPath43">
<path d="M480 222 L546 222 L546 237 L480 237 L480 222 Z"/>
</clipPath>
<clipPath clipPathUnits="userSpaceOnUse" id="clipPath44">
<path d="M498 184 L521 184 L521 199 L498 199 L498 184 Z"/>
</clipPath>
<clipPath clipPathUnits="userSpaceOnUse" id="clipPath45">
<path d="M404 218 L423 218 L423 229 L404 229 L404 218 Z"/>
</clipPath>
<clipPath clipPathUnits="userSpaceOnUse" id="clipPath46">
<path d="M513 203 L532 203 L532 216 L513 216 L513 203 Z"/>
</clipPath>
<clipPath clipPathUnits="userSpaceOnUse" id="clipPath47">
<path d="M161 73 L269 73 L269 88 L161 88 L161 73 Z"/>
</clipPath>
<clipPath clipPathUnits="userSpaceOnUse" id="clipPath48">
<path d="M124 33 L181 33 L181 48 L124 48 L124 33 Z"/>
</clipPath>
<clipPath clipPathUnits="userSpaceOnUse" id="clipPath49">
<path d="M141 73 L164 73 L164 88 L141 88 L141 73 Z"/>
</clipPath>
<clipPath clipPathUnits="userSpaceOnUse" id="clipPath50">
<path d="M247 73 L310 73 L310 88 L247 88 L247 73 Z"/>
</clipPath>
<clipPath clipPathUnits="userSpaceOnUse" id="clipPath51">
<path d="M267 33 L290 33 L290 48 L267 48 L267 33 Z"/>
</clipPath>
<clipPath clipPathUnits="userSpaceOnUse" id="clipPath52">
<path d="M124 55 L143 55 L143 66 L124 66 L124 55 Z"/>
</clipPath>
<clipPath clipPathUnits="userSpaceOnUse" id="clipPath53">
<path d="M289 54 L307 54 L307 67 L289 67 L289 54 Z"/>
</clipPath>
<clipPath clipPathUnits="userSpaceOnUse" id="clipPath54">
<path d="M135 172 L232 172 L232 187 L135 187 L135 172 Z"/>
</clipPath>
<clipPath clipPathUnits="userSpaceOnUse" id="clipPath55">
<path d="M129 87 L186 87 L186 102 L129 102 L129 87 Z"/>
</clipPath>
<clipPath clipPathUnits="userSpaceOnUse" id="clipPath56">
<path d="M130 125 L153 125 L153 140 L130 140 L130 125 Z"/>
</clipPath>
<clipPath clipPathUnits="userSpaceOnUse" id="clipPath57">
<path d="M242 209 L293 209 L293 224 L242 224 L242 209 Z"/>
</clipPath>
<clipPath clipPathUnits="userSpaceOnUse" id="clipPath58">
<path d="M278 177 L301 177 L301 192 L278 192 L278 177 Z"/>
</clipPath>
<clipPath clipPathUnits="userSpaceOnUse" id="clipPath59">
<path d="M124 97 L140 97 L140 109 L124 109 L124 97 Z"/>
</clipPath>
<clipPath clipPathUnits="userSpaceOnUse" id="clipPath60">
<path d="M289 205 L307 205 L307 220 L289 220 L289 205 Z"/>
</clipPath>
<clipPath clipPathUnits="userSpaceOnUse" id="clipPath61">
<path d="M22 159 L126 159 L126 174 L22 174 L22 159 Z"/>
</clipPath>
<clipPath clipPathUnits="userSpaceOnUse" id="clipPath62">
<path d="M68 112 L125 112 L125 127 L68 127 L68 112 Z"/>
</clipPath>
<clipPath clipPathUnits="userSpaceOnUse" id="clipPath63">
<path d="M49 128 L72 128 L72 143 L49 143 L49 128 Z"/>
</clipPath>
<clipPath clipPathUnits="userSpaceOnUse" id="clipPath64">
<path d="M51 183 L109 183 L109 198 L51 198 L51 183 Z"/>
</clipPath>
<clipPath clipPathUnits="userSpaceOnUse" id="clipPath65">
<path d="M113 172 L136 172 L136 187 L113 187 L113 172 Z"/>
</clipPath>
<clipPath clipPathUnits="userSpaceOnUse" id="clipPath66">
<path d="M71 114 L81 114 L81 131 L71 131 L71 114 Z"/>
</clipPath>
<clipPath clipPathUnits="userSpaceOnUse" id="clipPath67">
<path d="M100 183 L114 183 L114 202 L100 202 L100 183 Z"/>
</clipPath>
</defs>
<g font-size="11" fill="white" font-family="'Tahoma'" stroke-linejoin="round" stroke="white" stroke-width="0" stroke-miterlimit="0">
<rect x="25" y="15" clip-path="url(#clipPath1)" width="100" height="100" stroke="none"/>
<text x="56" y="29" clip-path="url(#clipPath2)" fill="black" stroke="none" xml:space="preserve">Classifier</text>
</g>
<g stroke-width="1.1" font-size="11" font-family="'Tahoma'" stroke-linecap="butt">
<line clip-path="url(#clipPath3)" fill="none" x1="25" x2="125" y1="32" y2="32"/>
<line clip-path="url(#clipPath4)" fill="none" x1="25" x2="125" y1="62" y2="62"/>
<line clip-path="url(#clipPath5)" fill="none" x1="25" x2="125" y1="92" y2="92"/>
<rect x="25" y="15" clip-path="url(#clipPath1)" fill="none" width="99" height="99"/>
<rect x="305" y="10" clip-path="url(#clipPath6)" fill="white" width="100" height="100" stroke="none"/>
<text xml:space="preserve" x="333" y="24" clip-path="url(#clipPath7)" stroke="none">Operation</text>
<line clip-path="url(#clipPath8)" fill="none" x1="305" x2="405" y1="27" y2="27"/>
<line clip-path="url(#clipPath9)" fill="none" x1="305" x2="405" y1="57" y2="57"/>
<line clip-path="url(#clipPath10)" fill="none" x1="305" x2="405" y1="87" y2="87"/>
<rect x="305" y="10" clip-path="url(#clipPath6)" fill="none" width="99" height="99"/>
<rect x="305" y="175" clip-path="url(#clipPath11)" fill="white" width="100" height="100" stroke="none"/>
<text xml:space="preserve" x="340" y="189" clip-path="url(#clipPath12)" stroke="none">Activity</text>
<line clip-path="url(#clipPath13)" fill="none" x1="305" x2="405" y1="192" y2="192"/>
<line clip-path="url(#clipPath14)" fill="none" x1="305" x2="405" y1="222" y2="222"/>
<line clip-path="url(#clipPath15)" fill="none" x1="305" x2="405" y1="252" y2="252"/>
<rect x="305" y="175" clip-path="url(#clipPath11)" fill="none" width="99" height="99"/>
<rect x="530" y="130" clip-path="url(#clipPath16)" fill="white" width="100" height="100" stroke="none"/>
<text xml:space="preserve" x="558" y="144" clip-path="url(#clipPath17)" stroke="none">Parameter</text>
<line clip-path="url(#clipPath18)" fill="none" x1="530" x2="630" y1="147" y2="147"/>
<line clip-path="url(#clipPath19)" fill="none" x1="530" x2="630" y1="177" y2="177"/>
<line clip-path="url(#clipPath20)" fill="none" x1="530" x2="630" y1="207" y2="207"/>
<rect x="530" y="130" clip-path="url(#clipPath16)" fill="none" width="99" height="99"/>
<rect x="25" y="200" clip-path="url(#clipPath21)" fill="white" width="138" height="100" stroke="none"/>
<text xml:space="preserve" x="76" y="214" clip-path="url(#clipPath22)" stroke="none">Property</text>
<text xml:space="preserve" x="30" y="230" clip-path="url(#clipPath23)" stroke="none"> + Type: &lt;Undefined&gt; [1]</text>
<line clip-path="url(#clipPath24)" fill="none" x1="25" x2="163" y1="217" y2="217"/>
<line clip-path="url(#clipPath25)" fill="none" x1="25" x2="163" y1="250" y2="250"/>
<line clip-path="url(#clipPath26)" fill="none" x1="25" x2="163" y1="278" y2="278"/>
<rect x="25" y="200" clip-path="url(#clipPath21)" fill="none" width="137" height="99"/>
<line clip-path="url(#clipPath27)" fill="none" text-rendering="optimizeLegibility" x1="355" x2="355" y1="110" y2="175"/>
<text x="285" y="148" clip-path="url(#clipPath28)" text-rendering="optimizeLegibility" stroke="none" xml:space="preserve">operation_activity_1</text>
<text x="280" y="126" clip-path="url(#clipPath29)" text-rendering="optimizeLegibility" stroke="none" xml:space="preserve"> + specification</text>
<text x="325" y="125" clip-path="url(#clipPath30)" text-rendering="optimizeLegibility" stroke="none" xml:space="preserve">  [1]</text>
<text x="310" y="170" clip-path="url(#clipPath31)" text-rendering="optimizeLegibility" stroke="none" xml:space="preserve"> + method</text>
<text x="358" y="170" clip-path="url(#clipPath32)" text-rendering="optimizeLegibility" stroke="none" xml:space="preserve">  [1..*]</text>
<line clip-path="url(#clipPath27)" fill="none" text-rendering="optimizeLegibility" x1="405" x2="530" y1="86" y2="153"/>
<text x="468" y="103" clip-path="url(#clipPath33)" text-rendering="optimizeLegibility" stroke="none" xml:space="preserve">operation_parameter_1</text>
<text x="403" y="84" clip-path="url(#clipPath34)" text-rendering="optimizeLegibility" stroke="none" xml:space="preserve"> + operation</text>
<text x="405" y="118" clip-path="url(#clipPath35)" text-rendering="optimizeLegibility" stroke="none" xml:space="preserve">  [1]</text>
<text x="471" y="165" clip-path="url(#clipPath36)" text-rendering="optimizeLegibility" stroke="none" xml:space="preserve"> + parameter</text>
<text x="511" y="131" clip-path="url(#clipPath37)" text-rendering="optimizeLegibility" stroke="none" xml:space="preserve">  [1]</text>
<polygon text-rendering="optimizeLegibility" clip-path="url(#clipPath38)" points=" 405 86 414 86 419 94 410 93" stroke="none"/>
<polygon fill="none" text-rendering="optimizeLegibility" clip-path="url(#clipPath38)" points=" 405 86 414 86 419 94 410 93"/>
<line clip-path="url(#clipPath39)" fill="none" text-rendering="optimizeLegibility" x1="514" x2="530" y1="150" y2="153"/>
<line clip-path="url(#clipPath39)" fill="none" text-rendering="optimizeLegibility" x1="530" x2="519" y1="153" y2="142"/>
<line clip-path="url(#clipPath27)" fill="none" text-rendering="optimizeLegibility" x1="405" x2="530" y1="224" y2="207"/>
<text x="417" y="240" clip-path="url(#clipPath40)" text-rendering="optimizeLegibility" stroke="none" xml:space="preserve">activity_parameter_1</text>
<text x="398" y="207" clip-path="url(#clipPath41)" text-rendering="optimizeLegibility" stroke="none" xml:space="preserve"> + activity</text>
<text x="416" y="245" clip-path="url(#clipPath42)" text-rendering="optimizeLegibility" stroke="none" xml:space="preserve">  [1]</text>
<text x="481" y="234" clip-path="url(#clipPath43)" text-rendering="optimizeLegibility" stroke="none" xml:space="preserve"> + parameter</text>
<text x="499" y="196" clip-path="url(#clipPath44)" text-rendering="optimizeLegibility" stroke="none" xml:space="preserve">  [1]</text>
<polygon text-rendering="optimizeLegibility" clip-path="url(#clipPath45)" points=" 405 224 412 219 421 222 413 227" stroke="none"/>
<polygon fill="none" text-rendering="optimizeLegibility" clip-path="url(#clipPath45)" points=" 405 224 412 219 421 222 413 227"/>
<line clip-path="url(#clipPath46)" fill="none" text-rendering="optimizeLegibility" x1="516" x2="530" y1="214" y2="207"/>
<line clip-path="url(#clipPath46)" fill="none" text-rendering="optimizeLegibility" x1="530" x2="514" y1="207" y2="204"/>
<line clip-path="url(#clipPath27)" fill="none" text-rendering="optimizeLegibility" x1="125" x2="305" y1="60" y2="60"/>
<text x="162" y="85" clip-path="url(#clipPath47)" text-rendering="optimizeLegibility" stroke="none" xml:space="preserve">classifier_operation_1</text>
<text x="125" y="45" clip-path="url(#clipPath48)" text-rendering="optimizeLegibility" stroke="none" xml:space="preserve"> + classifier</text>
<text x="142" y="85" clip-path="url(#clipPath49)" text-rendering="optimizeLegibility" stroke="none" xml:space="preserve">  [1]</text>
<text x="248" y="85" clip-path="url(#clipPath50)" text-rendering="optimizeLegibility" stroke="none" xml:space="preserve"> + operation</text>
<text x="268" y="45" clip-path="url(#clipPath51)" text-rendering="optimizeLegibility" stroke="none" xml:space="preserve">  [1]</text>
<polygon text-rendering="optimizeLegibility" clip-path="url(#clipPath52)" points=" 125 60 133 56 141 60 133 64" stroke="none"/>
<polygon fill="none" text-rendering="optimizeLegibility" clip-path="url(#clipPath52)" points=" 125 60 133 56 141 60 133 64"/>
<line clip-path="url(#clipPath53)" fill="none" text-rendering="optimizeLegibility" x1="290" x2="305" y1="65" y2="60"/>
<line clip-path="url(#clipPath53)" fill="none" text-rendering="optimizeLegibility" x1="305" x2="290" y1="60" y2="55"/>
<line clip-path="url(#clipPath27)" fill="none" text-rendering="optimizeLegibility" x1="125" x2="305" y1="98" y2="218"/>
<text x="136" y="184" clip-path="url(#clipPath54)" text-rendering="optimizeLegibility" stroke="none" xml:space="preserve">classifier_activity_1</text>
<text x="130" y="99" clip-path="url(#clipPath55)" text-rendering="optimizeLegibility" stroke="none" xml:space="preserve"> + classifier</text>
<text x="131" y="137" clip-path="url(#clipPath56)" text-rendering="optimizeLegibility" stroke="none" xml:space="preserve">  [1]</text>
<text x="243" y="221" clip-path="url(#clipPath57)" text-rendering="optimizeLegibility" stroke="none" xml:space="preserve"> + activity</text>
<text x="279" y="189" clip-path="url(#clipPath58)" text-rendering="optimizeLegibility" stroke="none" xml:space="preserve">  [1]</text>
<polygon text-rendering="optimizeLegibility" clip-path="url(#clipPath59)" points=" 125 98 134 99 138 107 129 106" stroke="none"/>
<polygon fill="none" text-rendering="optimizeLegibility" clip-path="url(#clipPath59)" points=" 125 98 134 99 138 107 129 106"/>
<line clip-path="url(#clipPath60)" fill="none" text-rendering="optimizeLegibility" x1="290" x2="305" y1="214" y2="218"/>
<line clip-path="url(#clipPath60)" fill="none" text-rendering="optimizeLegibility" x1="305" x2="295" y1="218" y2="206"/>
<line clip-path="url(#clipPath27)" fill="none" text-rendering="optimizeLegibility" x1="72" x2="112" y1="115" y2="200"/>
<text x="23" y="171" clip-path="url(#clipPath61)" text-rendering="optimizeLegibility" stroke="none" xml:space="preserve">classifier_property_1</text>
<text x="69" y="124" clip-path="url(#clipPath62)" text-rendering="optimizeLegibility" stroke="none" xml:space="preserve"> + classifier</text>
<text x="50" y="140" clip-path="url(#clipPath63)" text-rendering="optimizeLegibility" stroke="none" xml:space="preserve">  [1]</text>
<text x="52" y="195" clip-path="url(#clipPath64)" text-rendering="optimizeLegibility" stroke="none" xml:space="preserve"> + property</text>
<text x="114" y="184" clip-path="url(#clipPath65)" text-rendering="optimizeLegibility" stroke="none" xml:space="preserve">  [1]</text>
<polygon text-rendering="optimizeLegibility" clip-path="url(#clipPath66)" points=" 72 115 79 121 79 129 72 124" stroke="none"/>
<polygon fill="none" text-rendering="optimizeLegibility" clip-path="url(#clipPath66)" points=" 72 115 79 121 79 129 72 124"/>
<line clip-path="url(#clipPath67)" fill="none" text-rendering="optimizeLegibility" x1="101" x2="112" y1="189" y2="200"/>
<line clip-path="url(#clipPath67)" fill="none" text-rendering="optimizeLegibility" x1="112" x2="110" y1="200" y2="184"/>
</g>
</g>
</svg>
