<?xml version="1.0" encoding="UTF-8" standalone="no"?>
<svg
   xmlns:dc="http://purl.org/dc/elements/1.1/"
   xmlns:cc="http://creativecommons.org/ns#"
   xmlns:rdf="http://www.w3.org/1999/02/22-rdf-syntax-ns#"
   xmlns:svg="http://www.w3.org/2000/svg"
   xmlns="http://www.w3.org/2000/svg"
   xmlns:sodipodi="http://sodipodi.sourceforge.net/DTD/sodipodi-0.dtd"
   xmlns:inkscape="http://www.inkscape.org/namespaces/inkscape"
   shape-rendering="auto"
   width="220.46799"
   text-rendering="auto"
   contentScriptType="text/ecmascript"
   color-interpolation="auto"
   color-rendering="auto"
   preserveAspectRatio="xMidYMid meet"
   font-size="12"
   viewBox="0 0 220.46799 246.98499"
   image-rendering="auto"
   stroke-miterlimit="10"
   zoomAndPan="magnify"
   version="1.0"
   contentStyleType="text/css"
   font-style="normal"
   height="246.98499"
   font-weight="normal"
   id="svg2"
   inkscape:version="0.48.4 r9939"
   sodipodi:docname="SomeActivityDiagramsSimpleDecision.svg"
   style="font-size:12px;font-style:normal;font-weight:normal;fill:#000000;fill-opacity:1;stroke:#000000;stroke-width:1;stroke-linecap:square;stroke-linejoin:miter;stroke-miterlimit:10;stroke-opacity:1;stroke-dasharray:none;stroke-dashoffset:0;font-family:Dialog">
  <metadata
     id="metadata309">
    <rdf:RDF>
      <cc:Work
         rdf:about="">
        <dc:format>image/svg+xml</dc:format>
        <dc:type
           rdf:resource="http://purl.org/dc/dcmitype/StillImage" />
        <dc:title></dc:title>
      </cc:Work>
    </rdf:RDF>
  </metadata>
  <sodipodi:namedview
     pagecolor="#ffffff"
     bordercolor="#666666"
     borderopacity="1"
     objecttolerance="10"
     gridtolerance="10"
     guidetolerance="10"
     inkscape:pageopacity="0"
     inkscape:pageshadow="2"
     inkscape:window-width="1920"
     inkscape:window-height="1033"
     id="namedview307"
     showgrid="false"
     fit-margin-top="0"
     fit-margin-left="0"
     fit-margin-right="0"
     fit-margin-bottom="0"
     inkscape:zoom="1.8287912"
     inkscape:cx="279.50111"
     inkscape:cy="63.543994"
     inkscape:window-x="-4"
     inkscape:window-y="-4"
     inkscape:window-maximized="1"
     inkscape:current-layer="g5" />
  <!--Generated by the Batik Graphics2D SVG Generator-->
  <defs
     id="genericDefs" />
  <g
     id="g5"
     transform="translate(-29.450002,-9.4499999)">
    <defs
       id="defs1">
      <clipPath
         clipPathUnits="userSpaceOnUse"
         id="clipPath1">
        <path
           d="M 29,9 323,9 323,341 29,341 29,9 z"
           id="path9"
           inkscape:connector-curvature="0" />
      </clipPath>
      <clipPath
         clipPathUnits="userSpaceOnUse"
         id="clipPath2">
        <path
           d="m 39,14 71,0 0,15 -71,0 0,-15 z"
           id="path12"
           inkscape:connector-curvature="0" />
      </clipPath>
      <clipPath
         clipPathUnits="userSpaceOnUse"
         id="clipPath3">
        <path
           d="m 154,104 22,0 0,32 -22,0 0,-32 z"
           id="path15"
           inkscape:connector-curvature="0" />
      </clipPath>
      <clipPath
         clipPathUnits="userSpaceOnUse"
         id="clipPath4">
        <path
           d="m 104,164 60,0 0,42 -60,0 0,-42 z"
           id="path18"
           inkscape:connector-curvature="0" />
      </clipPath>
      <clipPath
         clipPathUnits="userSpaceOnUse"
         id="clipPath5">
        <path
           d="m 105,177 58,0 0,15 -58,0 0,-15 z"
           id="path21"
           inkscape:connector-curvature="0" />
      </clipPath>
      <clipPath
         clipPathUnits="userSpaceOnUse"
         id="clipPath6">
        <path
           d="m 154,219 22,0 0,32 -22,0 0,-32 z"
           id="path24"
           inkscape:connector-curvature="0" />
      </clipPath>
      <clipPath
         clipPathUnits="userSpaceOnUse"
         id="clipPath7">
        <path
           d="m 154,269 22,0 0,22 -22,0 0,-22 z"
           id="path27"
           inkscape:connector-curvature="0" />
      </clipPath>
      <clipPath
         clipPathUnits="userSpaceOnUse"
         id="clipPath8">
        <path
           d="m 164,164 57,0 0,42 -57,0 0,-42 z"
           id="path30"
           inkscape:connector-curvature="0" />
      </clipPath>
      <clipPath
         clipPathUnits="userSpaceOnUse"
         id="clipPath9">
        <path
           d="m 165,177 55,0 0,15 -55,0 0,-15 z"
           id="path33"
           inkscape:connector-curvature="0" />
      </clipPath>
      <clipPath
         clipPathUnits="userSpaceOnUse"
         id="clipPath10">
        <path
           d="m 149,64 22,0 0,22 -22,0 0,-22 z"
           id="path36"
           inkscape:connector-curvature="0" />
      </clipPath>
      <clipPath
         clipPathUnits="userSpaceOnUse"
         id="clipPath11">
        <path
           d="m 179,224 88,0 0,62 -88,0 0,-62 z"
           id="path39"
           inkscape:connector-curvature="0" />
      </clipPath>
      <clipPath
         clipPathUnits="userSpaceOnUse"
         id="clipPath12">
        <path
           d="m 185,230 67,0 0,15 -67,0 0,-15 z"
           id="path42"
           inkscape:connector-curvature="0" />
      </clipPath>
      <clipPath
         clipPathUnits="userSpaceOnUse"
         id="clipPath13">
        <path
           d="m 185,243 64,0 0,15 -64,0 0,-15 z"
           id="path45"
           inkscape:connector-curvature="0" />
      </clipPath>
      <clipPath
         clipPathUnits="userSpaceOnUse"
         id="clipPath14">
        <path
           d="m 185,256 67,0 0,15 -67,0 0,-15 z"
           id="path48"
           inkscape:connector-curvature="0" />
      </clipPath>
      <clipPath
         clipPathUnits="userSpaceOnUse"
         id="clipPath15">
        <path
           d="m 59,219 93,0 0,62 -93,0 0,-62 z"
           id="path51"
           inkscape:connector-curvature="0" />
      </clipPath>
      <clipPath
         clipPathUnits="userSpaceOnUse"
         id="clipPath16">
        <path
           d="m 65,225 72,0 0,15 -72,0 0,-15 z"
           id="path54"
           inkscape:connector-curvature="0" />
      </clipPath>
      <clipPath
         clipPathUnits="userSpaceOnUse"
         id="clipPath17">
        <path
           d="m 65,238 70,0 0,15 -70,0 0,-15 z"
           id="path57"
           inkscape:connector-curvature="0" />
      </clipPath>
      <clipPath
         clipPathUnits="userSpaceOnUse"
         id="clipPath18">
        <path
           d="m 65,251 72,0 0,15 -72,0 0,-15 z"
           id="path60"
           inkscape:connector-curvature="0" />
      </clipPath>
      <clipPath
         clipPathUnits="userSpaceOnUse"
         id="clipPath19">
        <path
           d="m 57,28 51,0 0,15 -51,0 0,-15 z"
           id="path63"
           inkscape:connector-curvature="0" />
      </clipPath>
      <clipPath
         clipPathUnits="userSpaceOnUse"
         id="clipPath20">
        <path
           d="m 44,41 78,0 0,15 -78,0 0,-15 z"
           id="path66"
           inkscape:connector-curvature="0" />
      </clipPath>
      <clipPath
         clipPathUnits="userSpaceOnUse"
         id="clipPath21">
        <path
           d="m 9,309 53,0 0,42 -53,0 0,-42 z"
           id="path69"
           inkscape:connector-curvature="0" />
      </clipPath>
      <clipPath
         clipPathUnits="userSpaceOnUse"
         id="clipPath22">
        <path
           d="m 10,322 51,0 0,15 -51,0 0,-15 z"
           id="path72"
           inkscape:connector-curvature="0" />
      </clipPath>
      <clipPath
         clipPathUnits="userSpaceOnUse"
         id="clipPath23">
        <path
           d="m 301,314 118,0 0,42 -118,0 0,-42 z"
           id="path75"
           inkscape:connector-curvature="0" />
      </clipPath>
      <clipPath
         clipPathUnits="userSpaceOnUse"
         id="clipPath24">
        <path
           d="m 302,327 116,0 0,15 -116,0 0,-15 z"
           id="path78"
           inkscape:connector-curvature="0" />
      </clipPath>
      <clipPath
         clipPathUnits="userSpaceOnUse"
         id="clipPath25">
        <path
           d="m -1,-1 430,0 0,367 -430,0 0,-367 z"
           id="path81"
           inkscape:connector-curvature="0" />
      </clipPath>
      <clipPath
         clipPathUnits="userSpaceOnUse"
         id="clipPath26">
        <path
           d="m 175,153 11,0 0,14 -11,0 0,-14 z"
           id="path84"
           inkscape:connector-curvature="0" />
      </clipPath>
      <clipPath
         clipPathUnits="userSpaceOnUse"
         id="clipPath27">
        <path
           d="m 178,130 96,0 0,15 -96,0 0,-15 z"
           id="path87"
           inkscape:connector-curvature="0" />
      </clipPath>
      <clipPath
         clipPathUnits="userSpaceOnUse"
         id="clipPath28">
        <path
           d="m 155,148 6,0 0,15 -6,0 0,-15 z"
           id="path90"
           inkscape:connector-curvature="0" />
      </clipPath>
      <clipPath
         clipPathUnits="userSpaceOnUse"
         id="clipPath29">
        <path
           d="m 193,149 31,0 0,15 -31,0 0,-15 z"
           id="path93"
           inkscape:connector-curvature="0" />
      </clipPath>
      <clipPath
         clipPathUnits="userSpaceOnUse"
         id="clipPath30">
        <path
           d="m 160,94 11,0 0,13 -11,0 0,-13 z"
           id="path96"
           inkscape:connector-curvature="0" />
      </clipPath>
      <clipPath
         clipPathUnits="userSpaceOnUse"
         id="clipPath31">
        <path
           d="m 142,87 6,0 0,15 -6,0 0,-15 z"
           id="path99"
           inkscape:connector-curvature="0" />
      </clipPath>
      <clipPath
         clipPathUnits="userSpaceOnUse"
         id="clipPath32">
        <path
           d="m 142,79 6,0 0,15 -6,0 0,-15 z"
           id="path102"
           inkscape:connector-curvature="0" />
      </clipPath>
      <clipPath
         clipPathUnits="userSpaceOnUse"
         id="clipPath33">
        <path
           d="m 150,215 12,0 0,14 -12,0 0,-14 z"
           id="path105"
           inkscape:connector-curvature="0" />
      </clipPath>
      <clipPath
         clipPathUnits="userSpaceOnUse"
         id="clipPath34">
        <path
           d="m 129,211 6,0 0,15 -6,0 0,-15 z"
           id="path108"
           inkscape:connector-curvature="0" />
      </clipPath>
      <clipPath
         clipPathUnits="userSpaceOnUse"
         id="clipPath35">
        <path
           d="m 142,153 11,0 0,14 -11,0 0,-14 z"
           id="path111"
           inkscape:connector-curvature="0" />
      </clipPath>
      <clipPath
         clipPathUnits="userSpaceOnUse"
         id="clipPath36">
        <path
           d="m 55,130 99,0 0,15 -99,0 0,-15 z"
           id="path114"
           inkscape:connector-curvature="0" />
      </clipPath>
      <clipPath
         clipPathUnits="userSpaceOnUse"
         id="clipPath37">
        <path
           d="m 108,146 39,0 0,15 -39,0 0,-15 z"
           id="path117"
           inkscape:connector-curvature="0" />
      </clipPath>
      <clipPath
         clipPathUnits="userSpaceOnUse"
         id="clipPath38">
        <path
           d="m 160,259 11,0 0,13 -11,0 0,-13 z"
           id="path120"
           inkscape:connector-curvature="0" />
      </clipPath>
      <clipPath
         clipPathUnits="userSpaceOnUse"
         id="clipPath39">
        <path
           d="m 168,214 11,0 0,14 -11,0 0,-14 z"
           id="path123"
           inkscape:connector-curvature="0" />
      </clipPath>
      <clipPath
         clipPathUnits="userSpaceOnUse"
         id="clipPath40">
        <path
           d="m 155,199 6,0 0,15 -6,0 0,-15 z"
           id="path126"
           inkscape:connector-curvature="0" />
      </clipPath>
      <clipPath
         clipPathUnits="userSpaceOnUse"
         id="clipPath41">
        <path
           d="m 159,192 6,0 0,15 -6,0 0,-15 z"
           id="path129"
           inkscape:connector-curvature="0" />
      </clipPath>
    </defs>
    <text
       style="font-size:11px;fill:#000000;stroke:none;font-family:Tahoma"
       id="text135"
       xml:space="preserve"
       clip-path="url(#clipPath2)"
       y="26"
       x="40">simpleDecision</text>
    <polygon
       style="font-size:11px;fill:#ffffff;stroke:none;font-family:Tahoma"
       id="polygon137"
       points="155,119 164,105 174,119 164,134 "
       clip-path="url(#clipPath3)"
       transform="translate(-22,-36)" />
    <polygon
       style="font-size:11px;fill:none;stroke-width:0.1;stroke-linecap:butt;font-family:Tahoma"
       id="polygon141"
       points="155,119 164,105 174,119 164,134 "
       clip-path="url(#clipPath3)"
       transform="translate(-22,-36)" />
    <polygon
       style="font-size:11px;fill:#ffffff;stroke:none;font-family:Tahoma"
       id="polygon143"
       points="155,119 164,105 174,119 164,134 "
       clip-path="url(#clipPath3)"
       transform="translate(-22,-36)" />
    <polygon
       style="font-size:11px;fill:none;stroke-width:1.10000002;stroke-linecap:butt;font-family:Tahoma"
       id="polygon145"
       points="155,119 164,105 174,119 164,134 "
       clip-path="url(#clipPath3)"
       transform="translate(-22,-36)" />
    <rect
       style="font-size:11px;fill:#ffffff;stroke:none;font-family:Tahoma"
       id="rect147"
       height="40"
       ry="7.5"
       rx="7.5"
       width="58"
       clip-path="url(#clipPath4)"
       y="165"
       x="105"
       transform="translate(-22,-36)" />
    <text
       transform="translate(-7.2361501,-36)"
       style="font-size:11px;stroke:none;font-family:Tahoma"
       id="text149"
       xml:space="preserve"
       clip-path="url(#clipPath5)"
       y="189"
       x="106">false</text>
    <rect
       style="font-size:11px;fill:none;stroke-width:1.10000002;stroke-linecap:butt;font-family:Tahoma"
       id="rect151"
       height="39"
       ry="7.5"
       rx="7.5"
       width="57"
       clip-path="url(#clipPath4)"
       y="165"
       x="105"
       transform="translate(-22,-36)" />
    <polygon
       style="font-size:11px;fill:#ffffff;stroke:none;font-family:Tahoma"
       id="polygon153"
       points="155,234 164,220 174,234 164,249 "
       clip-path="url(#clipPath6)"
       transform="translate(-22,-36)" />
    <polygon
       style="font-size:11px;fill:none;stroke-width:0.1;stroke-linecap:butt;font-family:Tahoma"
       id="polygon155"
       points="155,234 164,220 174,234 164,249 "
       clip-path="url(#clipPath6)"
       transform="translate(-22,-36)" />
    <polygon
       style="font-size:11px;fill:#ffffff;stroke:none;font-family:Tahoma"
       id="polygon157"
       points="155,234 164,220 174,234 164,249 "
       clip-path="url(#clipPath6)"
       transform="translate(-22,-36)" />
    <polygon
       style="font-size:11px;fill:none;stroke-width:1.10000002;stroke-linecap:butt;font-family:Tahoma"
       id="polygon159"
       points="155,234 164,220 174,234 164,249 "
       clip-path="url(#clipPath6)"
       transform="translate(-22,-36)" />
    <circle
       style="font-size:11px;fill:#ffffff;stroke:none;font-family:Tahoma"
       sodipodi:ry="9.5"
       sodipodi:rx="9.5"
       sodipodi:cy="279.5"
       sodipodi:cx="164.5"
       id="circle161"
       cy="279.5"
       cx="164.5"
       r="9.5"
       clip-path="url(#clipPath7)"
       d="m 174,279.5 c 0,5.24671 -4.25329,9.5 -9.5,9.5 -5.24671,0 -9.5,-4.25329 -9.5,-9.5 0,-5.24671 4.25329,-9.5 9.5,-9.5 5.24671,0 9.5,4.25329 9.5,9.5 z"
       transform="translate(-22,-36)" />
    <circle
       style="font-size:11px;fill:none;stroke-width:0.1;stroke-linecap:butt;font-family:Tahoma"
       sodipodi:ry="9.5"
       sodipodi:rx="9.5"
       sodipodi:cy="279.5"
       sodipodi:cx="164.5"
       id="circle163"
       cy="279.5"
       cx="164.5"
       clip-path="url(#clipPath7)"
       r="9.5"
       d="m 174,279.5 c 0,5.24671 -4.25329,9.5 -9.5,9.5 -5.24671,0 -9.5,-4.25329 -9.5,-9.5 0,-5.24671 4.25329,-9.5 9.5,-9.5 5.24671,0 9.5,4.25329 9.5,9.5 z"
       transform="translate(-22,-36)" />
    <circle
       style="font-size:11px;fill:none;stroke-width:0.1;stroke-linecap:butt;font-family:Tahoma"
       sodipodi:ry="9.5"
       sodipodi:rx="9.5"
       sodipodi:cy="279.5"
       sodipodi:cx="164.5"
       id="circle165"
       cy="279.5"
       cx="164.5"
       clip-path="url(#clipPath7)"
       r="9.5"
       d="m 174,279.5 c 0,5.24671 -4.25329,9.5 -9.5,9.5 -5.24671,0 -9.5,-4.25329 -9.5,-9.5 0,-5.24671 4.25329,-9.5 9.5,-9.5 5.24671,0 9.5,4.25329 9.5,9.5 z"
       transform="translate(-22,-36)" />
    <circle
       style="font-size:11px;stroke:none;font-family:Tahoma"
       sodipodi:ry="4"
       sodipodi:rx="4"
       sodipodi:cy="279"
       sodipodi:cx="164"
       id="circle167"
       cy="279"
       cx="164"
       clip-path="url(#clipPath7)"
       r="4"
       d="m 168,279 c 0,2.20914 -1.79086,4 -4,4 -2.20914,0 -4,-1.79086 -4,-4 0,-2.20914 1.79086,-4 4,-4 2.20914,0 4,1.79086 4,4 z"
       transform="translate(-22,-36)" />
    <rect
       style="font-size:11px;fill:#ffffff;stroke:none;font-family:Tahoma"
       id="rect169"
       height="40"
       ry="7.5"
       rx="7.5"
       width="55"
       clip-path="url(#clipPath8)"
       y="165"
       x="165"
       transform="translate(-22,-36)" />
    <text
       transform="translate(-7.2361501,-36)"
       style="font-size:11px;stroke:none;font-family:Tahoma"
       id="text171"
       clip-path="url(#clipPath9)"
       y="189"
       x="166"
       xml:space="preserve">true</text>
    <rect
       style="font-size:11px;fill:none;stroke-width:1.10000002;stroke-linecap:butt;font-family:Tahoma"
       id="rect173"
       height="39"
       ry="7.5"
       rx="7.5"
       width="54"
       clip-path="url(#clipPath8)"
       y="165"
       x="165"
       transform="translate(-22,-36)" />
    <circle
       style="font-size:11px;fill:#ffffff;stroke:none;font-family:Tahoma"
       sodipodi:ry="9.5"
       sodipodi:rx="9.5"
       sodipodi:cy="74.5"
       sodipodi:cx="159.5"
       id="circle175"
       cy="74.5"
       cx="159.5"
       r="9.5"
       clip-path="url(#clipPath10)"
       d="m 169,74.5 c 0,5.246705 -4.25329,9.5 -9.5,9.5 -5.24671,0 -9.5,-4.253295 -9.5,-9.5 0,-5.246705 4.25329,-9.5 9.5,-9.5 5.24671,0 9.5,4.253295 9.5,9.5 z"
       transform="translate(-22,-36)" />
    <circle
       style="font-size:11px;fill:none;stroke-width:0.1;stroke-linecap:butt;font-family:Tahoma"
       sodipodi:ry="9.5"
       sodipodi:rx="9.5"
       sodipodi:cy="74.5"
       sodipodi:cx="159.5"
       id="circle177"
       cy="74.5"
       cx="159.5"
       clip-path="url(#clipPath10)"
       r="9.5"
       d="m 169,74.5 c 0,5.246705 -4.25329,9.5 -9.5,9.5 -5.24671,0 -9.5,-4.253295 -9.5,-9.5 0,-5.246705 4.25329,-9.5 9.5,-9.5 5.24671,0 9.5,4.253295 9.5,9.5 z"
       transform="translate(-22,-36)" />
    <circle
       style="font-size:11px;stroke:none;font-family:Tahoma"
       sodipodi:ry="9.5"
       sodipodi:rx="9.5"
       sodipodi:cy="74.5"
       sodipodi:cx="159.5"
       id="circle179"
       cy="74.5"
       cx="159.5"
       clip-path="url(#clipPath10)"
       r="9.5"
       d="m 169,74.5 c 0,5.246705 -4.25329,9.5 -9.5,9.5 -5.24671,0 -9.5,-4.253295 -9.5,-9.5 0,-5.246705 4.25329,-9.5 9.5,-9.5 5.24671,0 9.5,4.253295 9.5,9.5 z"
       transform="translate(-22,-36)" />
    <path
       style="font-size:11px;fill:#ffffff;fill-rule:evenodd;stroke:none;font-family:Tahoma"
       inkscape:connector-curvature="0"
       id="path181"
       clip-path="url(#clipPath11)"
       d="m 180,225 0,0 73,0 12,12 0,47 -85,0 0,-59 z"
       transform="translate(-22,-36)" />
    <text
       style="font-size:11px;stroke:none;font-family:Tahoma"
       id="text183"
       clip-path="url(#clipPath12)"
       y="242"
       x="187"
       xml:space="preserve"
       transform="translate(-22,-36)">«LocalPost...</text>
    <text
       style="font-size:11px;stroke:none;font-family:Tahoma"
       id="text185"
       clip-path="url(#clipPath13)"
       y="255"
       x="186"
       xml:space="preserve"
       transform="translate(-22,-36)">converted...</text>
    <text
       style="font-size:11px;stroke:none;font-family:Tahoma;fill:#000000"
       id="text187"
       clip-path="url(#clipPath14)"
       y="268"
       x="186"
       xml:space="preserve"
       transform="translate(-22,-36)">{return=true}</text>
    <line
       style="font-size:11px;fill:none;stroke-width:1.10000002;stroke-linecap:butt;font-family:Tahoma"
       id="line189"
       y2="225"
       y1="225"
       x2="253"
       x1="180"
       clip-path="url(#clipPath11)"
       transform="translate(-22,-36)" />
    <line
       style="font-size:11px;fill:none;stroke-width:1.10000002;stroke-linecap:butt;font-family:Tahoma"
       id="line191"
       y2="237"
       y1="225"
       x2="265"
       x1="253"
       clip-path="url(#clipPath11)"
       transform="translate(-22,-36)" />
    <line
       style="font-size:11px;fill:none;stroke-width:1.10000002;stroke-linecap:butt;font-family:Tahoma"
       id="line193"
       y2="284"
       y1="237"
       x2="265"
       x1="265"
       clip-path="url(#clipPath11)"
       transform="translate(-22,-36)" />
    <line
       style="font-size:11px;fill:none;stroke-width:1.10000002;stroke-linecap:butt;font-family:Tahoma"
       id="line195"
       y2="284"
       y1="284"
       x2="180"
       x1="265"
       clip-path="url(#clipPath11)"
       transform="translate(-22,-36)" />
    <line
       style="font-size:11px;fill:none;stroke-width:1.10000002;stroke-linecap:butt;font-family:Tahoma"
       id="line197"
       y2="225"
       y1="284"
       x2="180"
       x1="180"
       clip-path="url(#clipPath11)"
       transform="translate(-22,-36)" />
    <line
       style="font-size:11px;fill:none;stroke-width:1.10000002;stroke-linecap:butt;font-family:Tahoma"
       id="line199"
       y2="225"
       y1="225"
       x2="180"
       x1="180"
       clip-path="url(#clipPath11)"
       transform="translate(-22,-36)" />
    <line
       style="font-size:11px;fill:none;stroke-width:1.10000002;stroke-linecap:butt;font-family:Tahoma"
       id="line201"
       y2="237"
       y1="225"
       x2="253"
       x1="253"
       clip-path="url(#clipPath11)"
       transform="translate(-22,-36)" />
    <line
       style="font-size:11px;fill:none;stroke-width:1.10000002;stroke-linecap:butt;font-family:Tahoma"
       id="line203"
       y2="237"
       y1="237"
       x2="266"
       x1="253"
       clip-path="url(#clipPath11)"
       transform="translate(-22,-36)" />
    <path
       style="font-size:11px;fill:#ffffff;fill-rule:evenodd;stroke:none;font-family:Tahoma"
       inkscape:connector-curvature="0"
       id="path205"
       d="m 60,220 0,0 78,0 12,12 0,47 -90,0 0,-59 z"
       clip-path="url(#clipPath15)"
       transform="translate(-22,-36)" />
    <text
       style="font-size:11px;stroke:none;font-family:Tahoma"
       id="text207"
       xml:space="preserve"
       clip-path="url(#clipPath16)"
       y="237"
       x="69"
       transform="translate(-22,-36)">«LocalPost...</text>
    <text
       style="font-size:11px;stroke:none;font-family:Tahoma"
       id="text209"
       xml:space="preserve"
       clip-path="url(#clipPath17)"
       y="250"
       x="66"
       transform="translate(-22,-36)">convertedP...</text>
    <text
       style="font-size:11px;stroke:none;font-family:Tahoma;fill:#000000"
       id="text211"
       xml:space="preserve"
       clip-path="url(#clipPath18)"
       y="263"
       x="66"
       transform="translate(-22,-36)">{return=false}</text>
    <line
       style="font-size:11px;fill:none;stroke-width:1.10000002;stroke-linecap:butt;font-family:Tahoma"
       id="line213"
       y2="220"
       y1="220"
       x2="138"
       x1="60"
       clip-path="url(#clipPath15)"
       transform="translate(-22,-36)" />
    <line
       style="font-size:11px;fill:none;stroke-width:1.10000002;stroke-linecap:butt;font-family:Tahoma"
       id="line215"
       y2="232"
       y1="220"
       x2="150"
       x1="138"
       clip-path="url(#clipPath15)"
       transform="translate(-22,-36)" />
    <line
       style="font-size:11px;fill:none;stroke-width:1.10000002;stroke-linecap:butt;font-family:Tahoma"
       id="line217"
       y2="279"
       y1="232"
       x2="150"
       x1="150"
       clip-path="url(#clipPath15)"
       transform="translate(-22,-36)" />
    <line
       style="font-size:11px;fill:none;stroke-width:1.10000002;stroke-linecap:butt;font-family:Tahoma"
       id="line219"
       y2="279"
       y1="279"
       x2="60"
       x1="150"
       clip-path="url(#clipPath15)"
       transform="translate(-22,-36)" />
    <line
       style="font-size:11px;fill:none;stroke-width:1.10000002;stroke-linecap:butt;font-family:Tahoma"
       id="line221"
       y2="220"
       y1="279"
       x2="60"
       x1="60"
       clip-path="url(#clipPath15)"
       transform="translate(-22,-36)" />
    <line
       style="font-size:11px;fill:none;stroke-width:1.10000002;stroke-linecap:butt;font-family:Tahoma"
       id="line223"
       y2="220"
       y1="220"
       x2="60"
       x1="60"
       clip-path="url(#clipPath15)"
       transform="translate(-22,-36)" />
    <line
       style="font-size:11px;fill:none;stroke-width:1.10000002;stroke-linecap:butt;font-family:Tahoma"
       id="line225"
       y2="232"
       y1="220"
       x2="138"
       x1="138"
       clip-path="url(#clipPath15)"
       transform="translate(-22,-36)" />
    <line
       style="font-size:11px;fill:none;stroke-width:1.10000002;stroke-linecap:butt;font-family:Tahoma"
       id="line227"
       y2="232"
       y1="232"
       x2="151"
       x1="138"
       clip-path="url(#clipPath15)"
       transform="translate(-22,-36)" />
    <text
       style="font-size:11px;stroke:none;font-family:Tahoma"
       id="text229"
       xml:space="preserve"
       clip-path="url(#clipPath19)"
       y="40"
       x="58">a: Integer</text>
    <text
       style="font-size:11px;stroke:none;font-family:Tahoma"
       id="text231"
       xml:space="preserve"
       clip-path="url(#clipPath20)"
       y="53"
       x="45">return: Boolean</text>
    <rect
       style="font-size:11px;fill:none;stroke-width:1.10000002;stroke-linecap:butt;font-family:Tahoma"
       transform="matrix(0.75478128,0,0,0.74820169,7.219878,2.3812994)"
       id="rect233"
       height="329"
       ry="7.5"
       rx="7.5"
       width="291"
       clip-path="url(#clipPath1)"
       y="10"
       x="30" />
    <line
       style="font-size:11px;fill:none;stroke-width:1.10000002;stroke-linecap:butt;font-family:Tahoma"
       id="line247"
       y2="165"
       y1="129"
       x2="184"
       x1="168"
       text-rendering="optimizeLegibility"
       clip-path="url(#clipPath25)"
       transform="translate(-22,-36)" />
    <line
       style="font-size:11px;fill:none;stroke-width:1.10000002;stroke-linecap:butt;font-family:Tahoma"
       id="line249"
       y2="165"
       y1="157"
       x2="184"
       x1="176"
       text-rendering="optimizeLegibility"
       clip-path="url(#clipPath26)"
       transform="translate(-22,-36)" />
    <line
       style="font-size:11px;fill:none;stroke-width:1.10000002;stroke-linecap:butt;font-family:Tahoma"
       id="line251"
       y2="154"
       y1="165"
       x2="184"
       x1="184"
       text-rendering="optimizeLegibility"
       clip-path="url(#clipPath26)"
       transform="translate(-22,-36)" />
    <text
       transform="translate(-21.453191,-36.546809)"
       style="font-size:11px;stroke:none;font-family:Tahoma"
       id="text253"
       xml:space="preserve"
       text-rendering="optimizeLegibility"
       clip-path="url(#clipPath27)"
       y="142"
       x="179">d2true</text>
    <text
       style="font-size:11px;stroke:none;font-family:Tahoma"
       id="text255"
       xml:space="preserve"
       text-rendering="optimizeLegibility"
       clip-path="url(#clipPath28)"
       y="160"
       x="156"
       transform="translate(-22,-36)"> </text>
    <text
       style="font-size:11px;stroke:none;font-family:Tahoma;fill:#000000"
       id="text257"
       xml:space="preserve"
       text-rendering="optimizeLegibility"
       clip-path="url(#clipPath29)"
       y="161"
       x="194"
       transform="translate(-25.827665,-42.561711)">[a&lt;5]</text>
    <line
       style="font-size:11px;fill:none;stroke-width:1.10000002;stroke-linecap:butt;stroke-dasharray:6.6, 3.3;font-family:Tahoma"
       id="line259"
       y2="225"
       y1="205"
       x2="209"
       x1="201"
       text-rendering="optimizeLegibility"
       clip-path="url(#clipPath25)"
       transform="translate(-22,-36)" />
    <line
       style="font-size:11px;fill:none;stroke-width:1.10000002;stroke-linecap:butt;font-family:Tahoma"
       id="line261"
       y2="105"
       y1="83"
       x2="165"
       x1="165"
       text-rendering="optimizeLegibility"
       clip-path="url(#clipPath25)"
       transform="translate(-22,-36)" />
    <line
       style="font-size:11px;fill:none;stroke-width:1.10000002;stroke-linecap:butt;font-family:Tahoma"
       id="line263"
       y2="105"
       y1="95"
       x2="165"
       x1="161"
       text-rendering="optimizeLegibility"
       clip-path="url(#clipPath30)"
       transform="translate(-22,-36)" />
    <line
       style="font-size:11px;fill:none;stroke-width:1.10000002;stroke-linecap:butt;font-family:Tahoma"
       id="line265"
       y2="95"
       y1="105"
       x2="169"
       x1="165"
       text-rendering="optimizeLegibility"
       clip-path="url(#clipPath30)"
       transform="translate(-22,-36)" />
    <text
       style="font-size:11px;stroke:none;font-family:Tahoma"
       id="text267"
       xml:space="preserve"
       text-rendering="optimizeLegibility"
       clip-path="url(#clipPath31)"
       y="99"
       x="143"
       transform="translate(-22,-36)"> </text>
    <text
       style="font-size:11px;stroke:none;font-family:Tahoma"
       id="text269"
       xml:space="preserve"
       text-rendering="optimizeLegibility"
       clip-path="url(#clipPath32)"
       y="91"
       x="143"
       transform="translate(-22,-36)"> </text>
    <line
       style="font-size:11px;fill:none;stroke-width:1.10000002;stroke-linecap:butt;font-family:Tahoma"
       id="line271"
       y2="227"
       y1="205"
       x2="160"
       x1="146"
       text-rendering="optimizeLegibility"
       clip-path="url(#clipPath25)"
       transform="translate(-22,-36)" />
    <line
       style="font-size:11px;fill:none;stroke-width:1.10000002;stroke-linecap:butt;font-family:Tahoma"
       id="line273"
       y2="227"
       y1="221"
       x2="160"
       x1="151"
       text-rendering="optimizeLegibility"
       clip-path="url(#clipPath33)"
       transform="translate(-22,-36)" />
    <line
       style="font-size:11px;fill:none;stroke-width:1.10000002;stroke-linecap:butt;font-family:Tahoma"
       id="line275"
       y2="216"
       y1="227"
       x2="158"
       x1="160"
       text-rendering="optimizeLegibility"
       clip-path="url(#clipPath33)"
       transform="translate(-22,-36)" />
    <text
       style="font-size:11px;stroke:none;font-family:Tahoma"
       id="text277"
       xml:space="preserve"
       text-rendering="optimizeLegibility"
       clip-path="url(#clipPath34)"
       y="223"
       x="130"
       transform="translate(-22,-36)"> </text>
    <line
       style="font-size:11px;fill:none;stroke-width:1.10000002;stroke-linecap:butt;font-family:Tahoma"
       id="line279"
       y2="165"
       y1="128"
       x2="143"
       x1="160"
       text-rendering="optimizeLegibility"
       clip-path="url(#clipPath25)"
       transform="translate(-22,-36)" />
    <line
       style="font-size:11px;fill:none;stroke-width:1.10000002;stroke-linecap:butt;font-family:Tahoma"
       id="line281"
       y2="165"
       y1="154"
       x2="143"
       x1="144"
       text-rendering="optimizeLegibility"
       clip-path="url(#clipPath35)"
       transform="translate(-22,-36)" />
    <line
       style="font-size:11px;fill:none;stroke-width:1.10000002;stroke-linecap:butt;font-family:Tahoma"
       id="line283"
       y2="158"
       y1="165"
       x2="151"
       x1="143"
       text-rendering="optimizeLegibility"
       clip-path="url(#clipPath35)"
       transform="translate(-22,-36)" />
    <text
       transform="translate(32.680927,-34.906382)"
       style="font-size:11px;stroke:none;font-family:Tahoma"
       id="text285"
       xml:space="preserve"
       text-rendering="optimizeLegibility"
       clip-path="url(#clipPath36)"
       y="142"
       x="56">d2false</text>
    <text
       style="font-size:11px;stroke:none;font-family:Tahoma;fill:#000000"
       id="text287"
       xml:space="preserve"
       text-rendering="optimizeLegibility"
       clip-path="url(#clipPath37)"
       y="158"
       x="109"
       transform="translate(-27.468093,-36.546809)">[a&gt;=5]</text>
    <line
       style="font-size:11px;fill:none;stroke-width:1.10000002;stroke-linecap:butt;font-family:Tahoma"
       id="line289"
       y2="270"
       y1="250"
       x2="165"
       x1="165"
       text-rendering="optimizeLegibility"
       clip-path="url(#clipPath25)"
       transform="translate(-22,-36)" />
    <line
       style="font-size:11px;fill:none;stroke-width:1.10000002;stroke-linecap:butt;font-family:Tahoma"
       id="line291"
       y2="270"
       y1="260"
       x2="165"
       x1="161"
       text-rendering="optimizeLegibility"
       clip-path="url(#clipPath38)"
       transform="translate(-22,-36)" />
    <line
       style="font-size:11px;fill:none;stroke-width:1.10000002;stroke-linecap:butt;font-family:Tahoma"
       id="line293"
       y2="260"
       y1="270"
       x2="169"
       x1="165"
       text-rendering="optimizeLegibility"
       clip-path="url(#clipPath38)"
       transform="translate(-22,-36)" />
    <line
       style="font-size:11px;fill:none;stroke-width:1.10000002;stroke-linecap:butt;font-family:Tahoma"
       id="line295"
       y2="226"
       y1="205"
       x2="169"
       x1="181"
       text-rendering="optimizeLegibility"
       clip-path="url(#clipPath25)"
       transform="translate(-22,-36)" />
    <line
       style="font-size:11px;fill:none;stroke-width:1.10000002;stroke-linecap:butt;font-family:Tahoma"
       id="line297"
       y2="226"
       y1="215"
       x2="169"
       x1="170"
       text-rendering="optimizeLegibility"
       clip-path="url(#clipPath39)"
       transform="translate(-22,-36)" />
    <line
       style="font-size:11px;fill:none;stroke-width:1.10000002;stroke-linecap:butt;font-family:Tahoma"
       id="line299"
       y2="219"
       y1="226"
       x2="177"
       x1="169"
       text-rendering="optimizeLegibility"
       clip-path="url(#clipPath39)"
       transform="translate(-22,-36)" />
    <text
       style="font-size:11px;stroke:none;font-family:Tahoma"
       id="text301"
       xml:space="preserve"
       text-rendering="optimizeLegibility"
       clip-path="url(#clipPath40)"
       y="211"
       x="156"
       transform="translate(-22,-36)"> </text>
    <text
       style="font-size:11px;stroke:none;font-family:Tahoma"
       id="text303"
       xml:space="preserve"
       text-rendering="optimizeLegibility"
       clip-path="url(#clipPath41)"
       y="204"
       x="160"
       transform="translate(-22,-36)"> </text>
    <line
       style="font-size:11px;fill:none;stroke-width:1.10000002;stroke-linecap:butt;stroke-dasharray:6.6, 3.3;font-family:Tahoma"
       id="line305"
       y2="220"
       y1="205"
       x2="118"
       x1="125"
       text-rendering="optimizeLegibility"
       clip-path="url(#clipPath25)"
       transform="translate(-22,-36)" />
  </g>
</svg>
