<?xml version="1.0" encoding="UTF-8"?><svg xmlns="http://www.w3.org/2000/svg" xmlns:xlink="http://www.w3.org/1999/xlink" stroke-dasharray="none" shape-rendering="auto" font-family="'Dialog'" width="428" text-rendering="auto" fill-opacity="1" contentScriptType="text/ecmascript" color-interpolation="auto" color-rendering="auto" preserveAspectRatio="xMidYMid meet" font-size="12" viewBox="0 0 428 365" fill="black" stroke="black" image-rendering="auto" stroke-miterlimit="10" zoomAndPan="magnify" version="1.0" stroke-linecap="square" stroke-linejoin="miter" contentStyleType="text/css" font-style="normal" height="365" stroke-width="1" stroke-dashoffset="0" font-weight="normal" stroke-opacity="1">
<!--Generated by the Batik Graphics2D SVG Generator-->
<defs id="genericDefs"/>
<g>
<defs id="defs1">
<clipPath clipPathUnits="userSpaceOnUse" id="clipPath1">
<path d="M29 9 L323 9 L323 341 L29 341 L29 9 Z"/>
</clipPath>
<clipPath clipPathUnits="userSpaceOnUse" id="clipPath2">
<path d="M39 14 L110 14 L110 29 L39 29 L39 14 Z"/>
</clipPath>
<clipPath clipPathUnits="userSpaceOnUse" id="clipPath3">
<path d="M154 104 L176 104 L176 136 L154 136 L154 104 Z"/>
</clipPath>
<clipPath clipPathUnits="userSpaceOnUse" id="clipPath4">
<path d="M104 164 L164 164 L164 206 L104 206 L104 164 Z"/>
</clipPath>
<clipPath clipPathUnits="userSpaceOnUse" id="clipPath5">
<path d="M105 177 L163 177 L163 192 L105 192 L105 177 Z"/>
</clipPath>
<clipPath clipPathUnits="userSpaceOnUse" id="clipPath6">
<path d="M154 219 L176 219 L176 251 L154 251 L154 219 Z"/>
</clipPath>
<clipPath clipPathUnits="userSpaceOnUse" id="clipPath7">
<path d="M154 269 L176 269 L176 291 L154 291 L154 269 Z"/>
</clipPath>
<clipPath clipPathUnits="userSpaceOnUse" id="clipPath8">
<path d="M164 164 L221 164 L221 206 L164 206 L164 164 Z"/>
</clipPath>
<clipPath clipPathUnits="userSpaceOnUse" id="clipPath9">
<path d="M165 177 L220 177 L220 192 L165 192 L165 177 Z"/>
</clipPath>
<clipPath clipPathUnits="userSpaceOnUse" id="clipPath10">
<path d="M149 64 L171 64 L171 86 L149 86 L149 64 Z"/>
</clipPath>
<clipPath clipPathUnits="userSpaceOnUse" id="clipPath11">
<path d="M179 224 L267 224 L267 286 L179 286 L179 224 Z"/>
</clipPath>
<clipPath clipPathUnits="userSpaceOnUse" id="clipPath12">
<path d="M185 230 L252 230 L252 245 L185 245 L185 230 Z"/>
</clipPath>
<clipPath clipPathUnits="userSpaceOnUse" id="clipPath13">
<path d="M185 243 L249 243 L249 258 L185 258 L185 243 Z"/>
</clipPath>
<clipPath clipPathUnits="userSpaceOnUse" id="clipPath14">
<path d="M185 256 L252 256 L252 271 L185 271 L185 256 Z"/>
</clipPath>
<clipPath clipPathUnits="userSpaceOnUse" id="clipPath15">
<path d="M59 219 L152 219 L152 281 L59 281 L59 219 Z"/>
</clipPath>
<clipPath clipPathUnits="userSpaceOnUse" id="clipPath16">
<path d="M65 225 L137 225 L137 240 L65 240 L65 225 Z"/>
</clipPath>
<clipPath clipPathUnits="userSpaceOnUse" id="clipPath17">
<path d="M65 238 L135 238 L135 253 L65 253 L65 238 Z"/>
</clipPath>
<clipPath clipPathUnits="userSpaceOnUse" id="clipPath18">
<path d="M65 251 L137 251 L137 266 L65 266 L65 251 Z"/>
</clipPath>
<clipPath clipPathUnits="userSpaceOnUse" id="clipPath19">
<path d="M57 28 L108 28 L108 43 L57 43 L57 28 Z"/>
</clipPath>
<clipPath clipPathUnits="userSpaceOnUse" id="clipPath20">
<path d="M44 41 L122 41 L122 56 L44 56 L44 41 Z"/>
</clipPath>
<clipPath clipPathUnits="userSpaceOnUse" id="clipPath21">
<path d="M9 309 L62 309 L62 351 L9 351 L9 309 Z"/>
</clipPath>
<clipPath clipPathUnits="userSpaceOnUse" id="clipPath22">
<path d="M10 322 L61 322 L61 337 L10 337 L10 322 Z"/>
</clipPath>
<clipPath clipPathUnits="userSpaceOnUse" id="clipPath23">
<path d="M301 314 L419 314 L419 356 L301 356 L301 314 Z"/>
</clipPath>
<clipPath clipPathUnits="userSpaceOnUse" id="clipPath24">
<path d="M302 327 L418 327 L418 342 L302 342 L302 327 Z"/>
</clipPath>
<clipPath clipPathUnits="userSpaceOnUse" id="clipPath25">
<path d="M-1 -1 L429 -1 L429 366 L-1 366 L-1 -1 Z"/>
</clipPath>
<clipPath clipPathUnits="userSpaceOnUse" id="clipPath26">
<path d="M175 153 L186 153 L186 167 L175 167 L175 153 Z"/>
</clipPath>
<clipPath clipPathUnits="userSpaceOnUse" id="clipPath27">
<path d="M178 130 L274 130 L274 145 L178 145 L178 130 Z"/>
</clipPath>
<clipPath clipPathUnits="userSpaceOnUse" id="clipPath28">
<path d="M155 148 L161 148 L161 163 L155 163 L155 148 Z"/>
</clipPath>
<clipPath clipPathUnits="userSpaceOnUse" id="clipPath29">
<path d="M193 149 L224 149 L224 164 L193 164 L193 149 Z"/>
</clipPath>
<clipPath clipPathUnits="userSpaceOnUse" id="clipPath30">
<path d="M160 94 L171 94 L171 107 L160 107 L160 94 Z"/>
</clipPath>
<clipPath clipPathUnits="userSpaceOnUse" id="clipPath31">
<path d="M142 87 L148 87 L148 102 L142 102 L142 87 Z"/>
</clipPath>
<clipPath clipPathUnits="userSpaceOnUse" id="clipPath32">
<path d="M142 79 L148 79 L148 94 L142 94 L142 79 Z"/>
</clipPath>
<clipPath clipPathUnits="userSpaceOnUse" id="clipPath33">
<path d="M150 215 L162 215 L162 229 L150 229 L150 215 Z"/>
</clipPath>
<clipPath clipPathUnits="userSpaceOnUse" id="clipPath34">
<path d="M129 211 L135 211 L135 226 L129 226 L129 211 Z"/>
</clipPath>
<clipPath clipPathUnits="userSpaceOnUse" id="clipPath35">
<path d="M142 153 L153 153 L153 167 L142 167 L142 153 Z"/>
</clipPath>
<clipPath clipPathUnits="userSpaceOnUse" id="clipPath36">
<path d="M55 130 L154 130 L154 145 L55 145 L55 130 Z"/>
</clipPath>
<clipPath clipPathUnits="userSpaceOnUse" id="clipPath37">
<path d="M108 146 L147 146 L147 161 L108 161 L108 146 Z"/>
</clipPath>
<clipPath clipPathUnits="userSpaceOnUse" id="clipPath38">
<path d="M160 259 L171 259 L171 272 L160 272 L160 259 Z"/>
</clipPath>
<clipPath clipPathUnits="userSpaceOnUse" id="clipPath39">
<path d="M168 214 L179 214 L179 228 L168 228 L168 214 Z"/>
</clipPath>
<clipPath clipPathUnits="userSpaceOnUse" id="clipPath40">
<path d="M155 199 L161 199 L161 214 L155 214 L155 199 Z"/>
</clipPath>
<clipPath clipPathUnits="userSpaceOnUse" id="clipPath41">
<path d="M159 192 L165 192 L165 207 L159 207 L159 192 Z"/>
</clipPath>
</defs>
<g font-size="11" fill="white" font-family="'Tahoma'" stroke-linejoin="round" stroke="white" stroke-width="0" stroke-miterlimit="0">
<rect x="30" y="10" clip-path="url(#clipPath1)" width="292" rx="7.5" ry="7.5" height="330" stroke="none"/>
<text x="40" y="26" clip-path="url(#clipPath2)" fill="black" stroke="none" xml:space="preserve">simpleDecision</text>
<polygon clip-path="url(#clipPath3)" points=" 164 105 174 119 164 134 155 119" stroke="none"/>
</g>
<g stroke-width="0.1" font-size="11" font-family="'Tahoma'" stroke-linecap="butt">
<polygon fill="none" clip-path="url(#clipPath3)" points=" 164 105 174 119 164 134 155 119"/>
<polygon fill="white" clip-path="url(#clipPath3)" points=" 164 105 174 119 164 134 155 119" stroke="none"/>
<polygon fill="none" stroke-width="1.1" clip-path="url(#clipPath3)" points=" 164 105 174 119 164 134 155 119"/>
<rect x="105" y="165" clip-path="url(#clipPath4)" fill="white" width="58" rx="7.5" ry="7.5" height="40" stroke="none" stroke-width="1.1"/>
<text x="106" y="189" clip-path="url(#clipPath5)" stroke="none" stroke-width="1.1" xml:space="preserve">return false</text>
<rect x="105" y="165" clip-path="url(#clipPath4)" fill="none" width="57" rx="7.5" ry="7.5" height="39" stroke-width="1.1"/>
<polygon fill="white" stroke-width="1.1" clip-path="url(#clipPath6)" points=" 164 220 174 234 164 249 155 234" stroke="none"/>
<polygon fill="none" clip-path="url(#clipPath6)" points=" 164 220 174 234 164 249 155 234"/>
<polygon fill="white" clip-path="url(#clipPath6)" points=" 164 220 174 234 164 249 155 234" stroke="none"/>
<polygon fill="none" stroke-width="1.1" clip-path="url(#clipPath6)" points=" 164 220 174 234 164 249 155 234"/>
<circle clip-path="url(#clipPath7)" fill="white" r="9.5" cx="164.5" cy="279.5" stroke="none" stroke-width="1.1"/>
<circle fill="none" r="9.5" clip-path="url(#clipPath7)" cx="164.5" cy="279.5"/>
<circle fill="none" r="9.5" clip-path="url(#clipPath7)" cx="164.5" cy="279.5"/>
<circle r="4" clip-path="url(#clipPath7)" cx="164" cy="279" stroke="none"/>
<rect x="165" y="165" clip-path="url(#clipPath8)" fill="white" width="55" rx="7.5" ry="7.5" height="40" stroke="none"/>
<text xml:space="preserve" x="166" y="189" clip-path="url(#clipPath9)" stroke="none">return true</text>
<rect x="165" y="165" clip-path="url(#clipPath8)" fill="none" width="54" rx="7.5" ry="7.5" height="39" stroke-width="1.1"/>
<circle clip-path="url(#clipPath10)" fill="white" r="9.5" cx="159.5" cy="74.5" stroke="none" stroke-width="1.1"/>
<circle fill="none" r="9.5" clip-path="url(#clipPath10)" cx="159.5" cy="74.5"/>
<circle r="9.5" clip-path="url(#clipPath10)" cx="159.5" cy="74.5" stroke="none"/>
<path fill="white" d="M180 225 L180 225 L253 225 L265 237 L265 284 L180 284 L180 225 Z" clip-path="url(#clipPath11)" fill-rule="evenodd" stroke="none"/>
<text xml:space="preserve" x="187" y="242" clip-path="url(#clipPath12)" stroke="none">«LocalPost...</text>
<text xml:space="preserve" x="186" y="255" clip-path="url(#clipPath13)" stroke="none">converted...</text>
<text xml:space="preserve" x="186" y="268" clip-path="url(#clipPath14)" stroke="none">{return=true}</text>
<line clip-path="url(#clipPath11)" fill="none" x1="180" x2="253" y1="225" y2="225" stroke-width="1.1"/>
<line clip-path="url(#clipPath11)" fill="none" x1="253" x2="265" y1="225" y2="237" stroke-width="1.1"/>
<line clip-path="url(#clipPath11)" fill="none" x1="265" x2="265" y1="237" y2="284" stroke-width="1.1"/>
<line clip-path="url(#clipPath11)" fill="none" x1="265" x2="180" y1="284" y2="284" stroke-width="1.1"/>
<line clip-path="url(#clipPath11)" fill="none" x1="180" x2="180" y1="284" y2="225" stroke-width="1.1"/>
<line clip-path="url(#clipPath11)" fill="none" x1="180" x2="180" y1="225" y2="225" stroke-width="1.1"/>
<line clip-path="url(#clipPath11)" fill="none" x1="253" x2="253" y1="225" y2="237" stroke-width="1.1"/>
<line clip-path="url(#clipPath11)" fill="none" x1="253" x2="266" y1="237" y2="237" stroke-width="1.1"/>
<path clip-path="url(#clipPath15)" fill="white" fill-rule="evenodd" d="M60 220 L60 220 L138 220 L150 232 L150 279 L60 279 L60 220 Z" stroke="none" stroke-width="1.1"/>
<text x="69" y="237" clip-path="url(#clipPath16)" stroke="none" stroke-width="1.1" xml:space="preserve">«LocalPost...</text>
<text x="66" y="250" clip-path="url(#clipPath17)" stroke="none" stroke-width="1.1" xml:space="preserve">convertedP...</text>
<text x="66" y="263" clip-path="url(#clipPath18)" stroke="none" stroke-width="1.1" xml:space="preserve">{return=false}</text>
<line clip-path="url(#clipPath15)" fill="none" x1="60" x2="138" y1="220" y2="220" stroke-width="1.1"/>
<line clip-path="url(#clipPath15)" fill="none" x1="138" x2="150" y1="220" y2="232" stroke-width="1.1"/>
<line clip-path="url(#clipPath15)" fill="none" x1="150" x2="150" y1="232" y2="279" stroke-width="1.1"/>
<line clip-path="url(#clipPath15)" fill="none" x1="150" x2="60" y1="279" y2="279" stroke-width="1.1"/>
<line clip-path="url(#clipPath15)" fill="none" x1="60" x2="60" y1="279" y2="220" stroke-width="1.1"/>
<line clip-path="url(#clipPath15)" fill="none" x1="60" x2="60" y1="220" y2="220" stroke-width="1.1"/>
<line clip-path="url(#clipPath15)" fill="none" x1="138" x2="138" y1="220" y2="232" stroke-width="1.1"/>
<line clip-path="url(#clipPath15)" fill="none" x1="138" x2="151" y1="232" y2="232" stroke-width="1.1"/>
<text x="58" y="40" clip-path="url(#clipPath19)" stroke="none" stroke-width="1.1" xml:space="preserve">a: Integer</text>
<text x="45" y="53" clip-path="url(#clipPath20)" stroke="none" stroke-width="1.1" xml:space="preserve">return: Boolean</text>
<rect x="30" y="10" clip-path="url(#clipPath1)" fill="none" width="291" rx="7.5" ry="7.5" height="329" stroke-width="1.1"/>
<rect x="10" y="310" clip-path="url(#clipPath21)" fill="white" width="51" height="40" stroke="none" stroke-width="1.1"/>
<text x="11" y="334" clip-path="url(#clipPath22)" stroke="none" stroke-width="1.1" xml:space="preserve">a: Integer</text>
<rect x="10" y="310" clip-path="url(#clipPath21)" fill="none" width="50" height="39" stroke-width="1.1"/>
<rect x="302" y="315" clip-path="url(#clipPath23)" fill="white" width="116" height="40" stroke="none" stroke-width="1.1"/>
<text x="303" y="339" clip-path="url(#clipPath24)" stroke="none" stroke-width="1.1" xml:space="preserve">simpleDecision: Boolean</text>
<rect x="302" y="315" clip-path="url(#clipPath23)" fill="none" width="115" height="39" stroke-width="1.1"/>
<line clip-path="url(#clipPath25)" fill="none" text-rendering="optimizeLegibility" x1="168" x2="184" y1="129" y2="165" stroke-width="1.1"/>
<line clip-path="url(#clipPath26)" fill="none" text-rendering="optimizeLegibility" x1="176" x2="184" y1="157" y2="165" stroke-width="1.1"/>
<line clip-path="url(#clipPath26)" fill="none" text-rendering="optimizeLegibility" x1="184" x2="184" y1="165" y2="154" stroke-width="1.1"/>
<text x="179" y="142" clip-path="url(#clipPath27)" text-rendering="optimizeLegibility" stroke="none" stroke-width="1.1" xml:space="preserve">decision2returntrue</text>
<text x="156" y="160" clip-path="url(#clipPath28)" text-rendering="optimizeLegibility" stroke="none" stroke-width="1.1" xml:space="preserve"> </text>
<text x="194" y="161" clip-path="url(#clipPath29)" text-rendering="optimizeLegibility" stroke="none" stroke-width="1.1" xml:space="preserve">[a&lt;5]</text>
<line clip-path="url(#clipPath25)" fill="none" text-rendering="optimizeLegibility" x1="201" x2="209" y1="205" y2="225" stroke-dasharray="6.6,3.3" stroke-width="1.1"/>
<line clip-path="url(#clipPath25)" fill="none" text-rendering="optimizeLegibility" x1="165" x2="165" y1="83" y2="105" stroke-width="1.1"/>
<line clip-path="url(#clipPath30)" fill="none" text-rendering="optimizeLegibility" x1="161" x2="165" y1="95" y2="105" stroke-width="1.1"/>
<line clip-path="url(#clipPath30)" fill="none" text-rendering="optimizeLegibility" x1="165" x2="169" y1="105" y2="95" stroke-width="1.1"/>
<text x="143" y="99" clip-path="url(#clipPath31)" text-rendering="optimizeLegibility" stroke="none" stroke-width="1.1" xml:space="preserve"> </text>
<text x="143" y="91" clip-path="url(#clipPath32)" text-rendering="optimizeLegibility" stroke="none" stroke-width="1.1" xml:space="preserve"> </text>
<line clip-path="url(#clipPath25)" fill="none" text-rendering="optimizeLegibility" x1="146" x2="160" y1="205" y2="227" stroke-width="1.1"/>
<line clip-path="url(#clipPath33)" fill="none" text-rendering="optimizeLegibility" x1="151" x2="160" y1="221" y2="227" stroke-width="1.1"/>
<line clip-path="url(#clipPath33)" fill="none" text-rendering="optimizeLegibility" x1="160" x2="158" y1="227" y2="216" stroke-width="1.1"/>
<text x="130" y="223" clip-path="url(#clipPath34)" text-rendering="optimizeLegibility" stroke="none" stroke-width="1.1" xml:space="preserve"> </text>
<line clip-path="url(#clipPath25)" fill="none" text-rendering="optimizeLegibility" x1="160" x2="143" y1="128" y2="165" stroke-width="1.1"/>
<line clip-path="url(#clipPath35)" fill="none" text-rendering="optimizeLegibility" x1="144" x2="143" y1="154" y2="165" stroke-width="1.1"/>
<line clip-path="url(#clipPath35)" fill="none" text-rendering="optimizeLegibility" x1="143" x2="151" y1="165" y2="158" stroke-width="1.1"/>
<text x="56" y="142" clip-path="url(#clipPath36)" text-rendering="optimizeLegibility" stroke="none" stroke-width="1.1" xml:space="preserve">decision2returnfalse</text>
<text x="109" y="158" clip-path="url(#clipPath37)" text-rendering="optimizeLegibility" stroke="none" stroke-width="1.1" xml:space="preserve">[a&gt;=5]</text>
<line clip-path="url(#clipPath25)" fill="none" text-rendering="optimizeLegibility" x1="165" x2="165" y1="250" y2="270" stroke-width="1.1"/>
<line clip-path="url(#clipPath38)" fill="none" text-rendering="optimizeLegibility" x1="161" x2="165" y1="260" y2="270" stroke-width="1.1"/>
<line clip-path="url(#clipPath38)" fill="none" text-rendering="optimizeLegibility" x1="165" x2="169" y1="270" y2="260" stroke-width="1.1"/>
<line clip-path="url(#clipPath25)" fill="none" text-rendering="optimizeLegibility" x1="181" x2="169" y1="205" y2="226" stroke-width="1.1"/>
<line clip-path="url(#clipPath39)" fill="none" text-rendering="optimizeLegibility" x1="170" x2="169" y1="215" y2="226" stroke-width="1.1"/>
<line clip-path="url(#clipPath39)" fill="none" text-rendering="optimizeLegibility" x1="169" x2="177" y1="226" y2="219" stroke-width="1.1"/>
<text x="156" y="211" clip-path="url(#clipPath40)" text-rendering="optimizeLegibility" stroke="none" stroke-width="1.1" xml:space="preserve"> </text>
<text x="160" y="204" clip-path="url(#clipPath41)" text-rendering="optimizeLegibility" stroke="none" stroke-width="1.1" xml:space="preserve"> </text>
<line clip-path="url(#clipPath25)" fill="none" text-rendering="optimizeLegibility" x1="125" x2="118" y1="205" y2="220" stroke-dasharray="6.6,3.3" stroke-width="1.1"/>
</g>
</g>
</svg>
