<?xml version="1.0" encoding="UTF-8" standalone="no"?>
<!-- Created with Inkscape (http://www.inkscape.org/) -->

<svg
   xmlns:dc="http://purl.org/dc/elements/1.1/"
   xmlns:cc="http://creativecommons.org/ns#"
   xmlns:rdf="http://www.w3.org/1999/02/22-rdf-syntax-ns#"
   xmlns:svg="http://www.w3.org/2000/svg"
   xmlns="http://www.w3.org/2000/svg"
   xmlns:sodipodi="http://sodipodi.sourceforge.net/DTD/sodipodi-0.dtd"
   xmlns:inkscape="http://www.inkscape.org/namespaces/inkscape"
   id="svg2985"
   version="1.1"
   inkscape:version="0.48.4 r9939"
   width="263.88342"
   height="252.75995"
   xml:space="preserve"
   sodipodi:docname="taxonomyOfMBT.pdf"><metadata
     id="metadata2991"><rdf:RDF><cc:Work
         rdf:about=""><dc:format>image/svg+xml</dc:format><dc:type
           rdf:resource="http://purl.org/dc/dcmitype/StillImage" /><dc:title></dc:title></cc:Work></rdf:RDF></metadata><defs
     id="defs2989"><clipPath
       clipPathUnits="userSpaceOnUse"
       id="clipPath3003"><path
         d="m 0,0 595.28,0 0,841.89 L 0,841.89 0,0 z"
         id="path3005"
         inkscape:connector-curvature="0" /></clipPath><clipPath
       clipPathUnits="userSpaceOnUse"
       id="clipPath3161"><path
         d="M 0,0 378,0 378,353 0,353 0,0 z"
         id="path3163"
         inkscape:connector-curvature="0" /></clipPath><clipPath
       clipPathUnits="userSpaceOnUse"
       id="clipPath3319"><path
         d="M 0,3530 0,0 l 3780,0 0,3530 -3780,0 z m 2419,-292 36,0 0,90.6 -18,-72 -18,72 0,-90.6 z m 36,288 -36,0 0,-90.6 18,72 18,-72 0,90.6 z"
         clip-rule="evenodd"
         id="path3321"
         inkscape:connector-curvature="0" /></clipPath><clipPath
       clipPathUnits="userSpaceOnUse"
       id="clipPath3337"><path
         d="M 0,3530 0,0 l 3780,0 0,3530 -3780,0 z m 2419,-697 36,0 0,90.6 -18,-72 -18,72 0,-90.6 z m 36,288 -36,0 0,-90.6 18,72 18,-72 0,90.6 z"
         clip-rule="evenodd"
         id="path3339"
         inkscape:connector-curvature="0" /></clipPath><clipPath
       clipPathUnits="userSpaceOnUse"
       id="clipPath3161-1"><path
         inkscape:connector-curvature="0"
         d="M 0,0 378,0 378,353 0,353 0,0 z"
         id="path3163-9" /></clipPath><clipPath
       clipPathUnits="userSpaceOnUse"
       id="clipPath3319-6"><path
         inkscape:connector-curvature="0"
         d="M 0,3530 0,0 l 3780,0 0,3530 -3780,0 z m 2419,-292 36,0 0,90.6 -18,-72 -18,72 0,-90.6 z m 36,288 -36,0 0,-90.6 18,72 18,-72 0,90.6 z"
         clip-rule="evenodd"
         id="path3321-0" /></clipPath><clipPath
       clipPathUnits="userSpaceOnUse"
       id="clipPath3337-3"><path
         inkscape:connector-curvature="0"
         d="M 0,3530 0,0 l 3780,0 0,3530 -3780,0 z m 2419,-697 36,0 0,90.6 -18,-72 -18,72 0,-90.6 z m 36,288 -36,0 0,-90.6 18,72 18,-72 0,90.6 z"
         clip-rule="evenodd"
         id="path3339-9" /></clipPath><clipPath
       clipPathUnits="userSpaceOnUse"
       id="clipPath3161-2"><path
         inkscape:connector-curvature="0"
         d="M 0,0 378,0 378,353 0,353 0,0 z"
         id="path3163-95" /></clipPath><clipPath
       clipPathUnits="userSpaceOnUse"
       id="clipPath3319-64"><path
         inkscape:connector-curvature="0"
         d="M 0,3530 0,0 l 3780,0 0,3530 -3780,0 z m 2419,-292 36,0 0,90.6 -18,-72 -18,72 0,-90.6 z m 36,288 -36,0 0,-90.6 18,72 18,-72 0,90.6 z"
         clip-rule="evenodd"
         id="path3321-5" /></clipPath><clipPath
       clipPathUnits="userSpaceOnUse"
       id="clipPath3337-31"><path
         inkscape:connector-curvature="0"
         d="M 0,3530 0,0 l 3780,0 0,3530 -3780,0 z m 2419,-697 36,0 0,90.6 -18,-72 -18,72 0,-90.6 z m 36,288 -36,0 0,-90.6 18,72 18,-72 0,90.6 z"
         clip-rule="evenodd"
         id="path3339-8" /></clipPath></defs><sodipodi:namedview
     pagecolor="#ffffff"
     bordercolor="#666666"
     borderopacity="1"
     objecttolerance="10"
     gridtolerance="10"
     guidetolerance="10"
     inkscape:pageopacity="0"
     inkscape:pageshadow="2"
     inkscape:window-width="1609"
     inkscape:window-height="1045"
     id="namedview2987"
     showgrid="false"
     fit-margin-top="0"
     fit-margin-left="0"
     fit-margin-right="0"
     fit-margin-bottom="0"
     inkscape:zoom="0.89702947"
     inkscape:cx="329.00123"
     inkscape:cy="-82.246583"
     inkscape:window-x="0"
     inkscape:window-y="0"
     inkscape:window-maximized="0"
     inkscape:current-layer="g2993" /><g
     id="g2993"
     inkscape:groupmode="layer"
     inkscape:label="taxonomyOfMBT"
     transform="matrix(1.25,0,0,-1.25,-153.4142,991.907)"><g
       transform="matrix(0.57535407,0,0,0.57535407,122.45829,591.04412)"
       id="g3153"><g
         id="g3155"><g
           id="g3157"><g
             clip-path="url(#clipPath3161-2)"
             id="g3159"><g
               transform="scale(0.1,0.1)"
               id="g3165"><g
                 transform="scale(10,10)"
                 id="g3167"><text
                   id="text3169"
                   transform="matrix(1,0,0,-1,122.2,293.2)"><tspan
                     id="tspan3171"
                     sodipodi:role="line"
                     y="0"
                     x="0 7.1478 12.6522 18.156601 23.660999 29.1654 34.6698 40.174198 45.6786 50.628601"
                     style="font-size:9.89999962px;font-variant:normal;font-weight:normal;writing-mode:lr-tb;fill:#000000;fill-opacity:1;fill-rule:nonzero;stroke:none;font-family:Helvetica;-inkscape-font-specification:Helvetica">Redundancy</tspan><tspan
                     id="tspan3173"
                     sodipodi:role="line"
                     y="229.5"
                     x="0 6.0489001 11.5533 16.5033 22.0077 27.5121 33.016499 35.214298 40.7187 46.223099"
                     style="font-size:9.89999962px;font-variant:normal;font-weight:normal;writing-mode:lr-tb;fill:#000000;fill-opacity:1;fill-rule:nonzero;stroke:none;font-family:Helvetica;-inkscape-font-specification:Helvetica">Technology</tspan></text>
</g><path
                 inkscape:connector-curvature="0"
                 id="path3175"
                 style="fill:none;stroke:#000000;stroke-width:4.5;stroke-linecap:butt;stroke-linejoin:miter;stroke-miterlimit:10;stroke-opacity:1;stroke-dasharray:none"
                 d="m 1177,52.0039 720,0 0,180 -720,0 0,-180 z" /><g
                 transform="scale(10,10)"
                 id="g3177"><text
                   id="text3179"
                   transform="matrix(1,0,0,-1,122.2,9.70039)"><tspan
                     id="tspan3181"
                     sodipodi:role="line"
                     y="0"
                     x="0 7.7021999 13.2066 15.9588 23.660999 26.4132 29.1654 31.363199 33.561001 39.065399"
                     style="font-size:9.89999962px;font-variant:normal;font-weight:normal;writing-mode:lr-tb;fill:#000000;fill-opacity:1;fill-rule:nonzero;stroke:none;font-family:Helvetica;-inkscape-font-specification:Helvetica">On/Offline</tspan></text>
</g><path
                 inkscape:connector-curvature="0"
                 id="path3183"
                 style="fill:none;stroke:#000000;stroke-width:4.5;stroke-linecap:butt;stroke-linejoin:miter;stroke-miterlimit:10;stroke-opacity:1;stroke-dasharray:none"
                 d="m 276.996,7.00391 585,0 0,315 -585,0 0,-315 z" /><g
                 transform="scale(10,10)"
                 id="g3185"><text
                   id="text3187"
                   transform="matrix(1,0,0,-1,32.1996,5.20039)"><tspan
                     id="tspan3189"
                     sodipodi:role="line"
                     y="0"
                     x="0 6.6033001 11.5533 17.057699 22.0077 27.5121 30.264299 32.462101 37.966499"
                     style="font-size:9.89999962px;font-variant:normal;font-weight:normal;writing-mode:lr-tb;fill:#000000;fill-opacity:1;fill-rule:nonzero;stroke:none;font-family:Helvetica;-inkscape-font-specification:Helvetica">Execution</tspan><tspan
                     id="tspan3191"
                     sodipodi:role="line"
                     y="-13.5"
                     x="0 6.0489001 11.5533 16.5033"
                     style="font-size:9.89999962px;font-variant:normal;font-weight:normal;writing-mode:lr-tb;fill:#000000;fill-opacity:1;fill-rule:nonzero;stroke:none;font-family:Helvetica;-inkscape-font-specification:Helvetica">Test</tspan></text>
</g><path
                 inkscape:connector-curvature="0"
                 id="path3193"
                 style="fill:none;stroke:#000000;stroke-width:4.5;stroke-linecap:butt;stroke-linejoin:miter;stroke-miterlimit:10;stroke-opacity:1;stroke-dasharray:none"
                 d="m 1177,1132 720,0 0,315 -720,0 0,-315 z" /><g
                 transform="scale(10,10)"
                 id="g3195"><text
                   id="text3197"
                   transform="matrix(1,0,0,-1,122.2,131.2)"><tspan
                     id="tspan3199"
                     sodipodi:role="line"
                     y="0"
                     x="0 6.0489001 11.5533 16.5033 19.255501 22.0077 28.611 34.115398 36.313202 41.8176 46.767601 49.519798 51.717602 57.222"
                     style="font-size:9.89999962px;font-variant:normal;font-weight:normal;writing-mode:lr-tb;fill:#000000;fill-opacity:1;fill-rule:nonzero;stroke:none;font-family:Helvetica;-inkscape-font-specification:Helvetica">Test Selection</tspan><tspan
                     id="tspan3201"
                     sodipodi:role="line"
                     y="13.5"
                     x="0 7.1478 10.4445 12.6423 15.3945 20.898899 24.195601 26.3934"
                     style="font-size:9.89999962px;font-variant:normal;font-weight:normal;writing-mode:lr-tb;fill:#000000;fill-opacity:1;fill-rule:nonzero;stroke:none;font-family:Helvetica;-inkscape-font-specification:Helvetica">Criteria</tspan></text>
</g><path
                 inkscape:connector-curvature="0"
                 id="path3203"
                 style="fill:none;stroke:#000000;stroke-width:4.5;stroke-linecap:butt;stroke-linejoin:miter;stroke-miterlimit:10;stroke-opacity:1;stroke-dasharray:none"
                 d="m 1177,1852 720,0 0,180 -720,0 0,-180 z" /><g
                 transform="scale(10,10)"
                 id="g3205"><text
                   id="text3207"
                   transform="matrix(1,0,0,-1,122.2,189.7)"><tspan
                     id="tspan3209"
                     sodipodi:role="line"
                     y="0"
                     x="0 6.6033001 12.1077 15.4044 20.9088 26.4132 28.611 34.115398"
                     style="font-size:9.89999962px;font-variant:normal;font-weight:normal;writing-mode:lr-tb;fill:#000000;fill-opacity:1;fill-rule:nonzero;stroke:none;font-family:Helvetica;-inkscape-font-specification:Helvetica">Paradigm</tspan></text>
</g><path
                 inkscape:connector-curvature="0"
                 id="path3211"
                 style="fill:none;stroke:#000000;stroke-width:4.5;stroke-linecap:butt;stroke-linejoin:miter;stroke-miterlimit:10;stroke-opacity:1;stroke-dasharray:none"
                 d="m 276.996,862.004 585,0 0,315 -585,0 0,-315 z" /><g
                 transform="scale(10,10)"
                 id="g3213"><text
                   id="text3215"
                   transform="matrix(1,0,0,-1,32.1996,90.7004)"><tspan
                     id="tspan3217"
                     sodipodi:role="line"
                     y="0"
                     x="0 7.7021999 13.2066 18.711 24.215401 27.5121 33.016499 35.7687 37.966499 43.470901"
                     style="font-size:9.89999962px;font-variant:normal;font-weight:normal;writing-mode:lr-tb;fill:#000000;fill-opacity:1;fill-rule:nonzero;stroke:none;font-family:Helvetica;-inkscape-font-specification:Helvetica">Generation</tspan><tspan
                     id="tspan3219"
                     sodipodi:role="line"
                     y="-13.5"
                     x="0 6.0489001 11.5533 16.5033"
                     style="font-size:9.89999962px;font-variant:normal;font-weight:normal;writing-mode:lr-tb;fill:#000000;fill-opacity:1;fill-rule:nonzero;stroke:none;font-family:Helvetica;-inkscape-font-specification:Helvetica">Test</tspan></text>
</g><path
                 inkscape:connector-curvature="0"
                 id="path3221"
                 style="fill:none;stroke:#000000;stroke-width:4.5;stroke-linecap:butt;stroke-linejoin:miter;stroke-miterlimit:10;stroke-opacity:1;stroke-dasharray:none"
                 d="m 1177,3292 720,0 0,180 -720,0 0,-180 z" /><g
                 transform="scale(10,10)"
                 id="g3223"><text
                   id="text3225"
                   transform="matrix(1,0,0,-1,122.2,333.7)"><tspan
                     id="tspan3227"
                     sodipodi:role="line"
                     y="0"
                     x="0 6.6033001 12.1077 17.612101 19.8099 25.314301 30.264299"
                     style="font-size:9.89999962px;font-variant:normal;font-weight:normal;writing-mode:lr-tb;fill:#000000;fill-opacity:1;fill-rule:nonzero;stroke:none;font-family:Helvetica;-inkscape-font-specification:Helvetica">Subject</tspan></text>
</g><path
                 inkscape:connector-curvature="0"
                 id="path3229"
                 style="fill:none;stroke:#000000;stroke-width:4.5;stroke-linecap:butt;stroke-linejoin:miter;stroke-miterlimit:10;stroke-opacity:1;stroke-dasharray:none"
                 d="m 321.996,2572 495,0 0,270 -495,0 0,-270 z" /><g
                 transform="scale(10,10)"
                 id="g3231"><text
                   id="text3233"
                   transform="matrix(1,0,0,-1,36.6996,263.98)"><tspan
                     id="tspan3235"
                     sodipodi:role="line"
                     y="0"
                     x="0 8.2467003 13.7511 19.255501 24.759899"
                     style="font-size:9.89999962px;font-variant:normal;font-weight:normal;writing-mode:lr-tb;fill:#000000;fill-opacity:1;fill-rule:nonzero;stroke:none;font-family:Helvetica;-inkscape-font-specification:Helvetica">Model</tspan></text>
</g><path
                 inkscape:connector-curvature="0"
                 id="path3237"
                 style="fill:none;stroke:#000000;stroke-width:4.5;stroke-linecap:butt;stroke-linejoin:miter;stroke-miterlimit:10;stroke-opacity:1;stroke-dasharray:none"
                 d="m 2076.72,682.234 c 90.87,-87.125 211.89,-135.773 337.78,-135.773 7.38,0 14.77,0.172 22.15,0.504" /><path
                 inkscape:connector-curvature="0"
                 id="path3239"
                 style="fill:none;stroke:#000000;stroke-width:4.5;stroke-linecap:butt;stroke-linejoin:miter;stroke-miterlimit:10;stroke-opacity:1;stroke-dasharray:none"
                 d="m 2076.1,682.266 c 110.27,-30.161 224.08,-45.446 338.4,-45.446 7.46,0 14.93,0.067 22.38,0.196" /><path
                 inkscape:connector-curvature="0"
                 id="path3241"
                 style="fill:none;stroke:#000000;stroke-width:4.5;stroke-linecap:butt;stroke-linejoin:miter;stroke-miterlimit:10;stroke-opacity:1;stroke-dasharray:none"
                 d="m 2076.1,681.738 c 110.27,30.16 224.08,45.446 338.4,45.446 7.46,0 14.93,-0.067 22.38,-0.196" /><path
                 inkscape:connector-curvature="0"
                 id="path3243"
                 style="fill:none;stroke:#000000;stroke-width:4.5;stroke-linecap:butt;stroke-linejoin:miter;stroke-miterlimit:10;stroke-opacity:1;stroke-dasharray:none"
                 d="m 2076.72,681.77 c 90.87,87.125 211.89,135.773 337.78,135.773 7.38,0 14.77,-0.172 22.15,-0.504" /><path
                 inkscape:connector-curvature="0"
                 id="path3245"
                 style="fill:none;stroke:#000000;stroke-width:4.5;stroke-linecap:butt;stroke-linejoin:miter;stroke-miterlimit:10;stroke-opacity:1;stroke-dasharray:none"
                 d="m 2077.08,682.266 c 56.53,136.472 189.7,225.457 337.42,225.457 7.43,0 14.87,-0.231 22.29,-0.684" /><path
                 inkscape:connector-curvature="0"
                 id="path3247"
                 style="fill:none;stroke:#000000;stroke-width:4.5;stroke-linecap:butt;stroke-linejoin:miter;stroke-miterlimit:10;stroke-opacity:1;stroke-dasharray:none"
                 d="m 2077.08,681.738 c 56.53,-136.472 189.7,-225.457 337.42,-225.457 7.43,0 14.87,0.231 22.29,0.684" /><path
                 inkscape:connector-curvature="0"
                 id="path3249"
                 style="fill:none;stroke:#000000;stroke-width:4.5;stroke-linecap:butt;stroke-linejoin:miter;stroke-miterlimit:10;stroke-opacity:1;stroke-dasharray:none"
                 d="m 2077.08,1311.74 c 56.53,-136.47 189.7,-225.46 337.42,-225.46 7.43,0 14.87,0.23 22.29,0.68" /><path
                 inkscape:connector-curvature="0"
                 id="path3251"
                 style="fill:none;stroke:#000000;stroke-width:4.5;stroke-linecap:butt;stroke-linejoin:miter;stroke-miterlimit:10;stroke-opacity:1;stroke-dasharray:none"
                 d="m 2076.72,1312.23 c 90.87,-87.12 211.89,-135.77 337.78,-135.77 7.38,0 14.77,0.17 22.15,0.5" /><path
                 inkscape:connector-curvature="0"
                 id="path3253"
                 style="fill:none;stroke:#000000;stroke-width:4.5;stroke-linecap:butt;stroke-linejoin:miter;stroke-miterlimit:10;stroke-opacity:1;stroke-dasharray:none"
                 d="m 2076.1,1312.27 c 110.27,-30.16 224.08,-45.45 338.4,-45.45 7.46,0 14.93,0.07 22.38,0.2" /><path
                 inkscape:connector-curvature="0"
                 id="path3255"
                 style="fill:none;stroke:#000000;stroke-width:4.5;stroke-linecap:butt;stroke-linejoin:miter;stroke-miterlimit:10;stroke-opacity:1;stroke-dasharray:none"
                 d="m 2076.1,1311.74 c 110.27,30.16 224.08,45.44 338.4,45.44 7.46,0 14.93,-0.06 22.38,-0.19" /><path
                 inkscape:connector-curvature="0"
                 id="path3257"
                 style="fill:none;stroke:#000000;stroke-width:4.5;stroke-linecap:butt;stroke-linejoin:miter;stroke-miterlimit:10;stroke-opacity:1;stroke-dasharray:none"
                 d="m 2076.72,1311.77 c 90.87,87.12 211.89,135.77 337.78,135.77 7.38,0 14.77,-0.17 22.15,-0.5" /><path
                 inkscape:connector-curvature="0"
                 id="path3259"
                 style="fill:none;stroke:#000000;stroke-width:4.5;stroke-linecap:butt;stroke-linejoin:miter;stroke-miterlimit:10;stroke-opacity:1;stroke-dasharray:none"
                 d="m 2077.08,1312.27 c 56.53,136.47 189.7,225.45 337.42,225.45 7.43,0 14.87,-0.23 22.29,-0.68" /><path
                 inkscape:connector-curvature="0"
                 id="path3261"
                 style="fill:none;stroke:#000000;stroke-width:4.5;stroke-linecap:butt;stroke-linejoin:miter;stroke-miterlimit:10;stroke-opacity:1;stroke-dasharray:none"
                 d="m 2076.72,1942.23 c 90.87,-87.12 211.89,-135.77 337.78,-135.77 7.38,0 14.77,0.17 22.15,0.5" /><path
                 inkscape:connector-curvature="0"
                 id="path3263"
                 style="fill:none;stroke:#000000;stroke-width:4.5;stroke-linecap:butt;stroke-linejoin:miter;stroke-miterlimit:10;stroke-opacity:1;stroke-dasharray:none"
                 d="m 2076.1,1942.27 c 110.27,-30.16 224.08,-45.45 338.4,-45.45 7.46,0 14.93,0.07 22.38,0.2" /><path
                 inkscape:connector-curvature="0"
                 id="path3265"
                 style="fill:none;stroke:#000000;stroke-width:4.5;stroke-linecap:butt;stroke-linejoin:miter;stroke-miterlimit:10;stroke-opacity:1;stroke-dasharray:none"
                 d="m 2076.1,1941.74 c 110.27,30.16 224.08,45.44 338.4,45.44 7.46,0 14.93,-0.06 22.38,-0.19" /><path
                 inkscape:connector-curvature="0"
                 id="path3267"
                 style="fill:none;stroke:#000000;stroke-width:4.5;stroke-linecap:butt;stroke-linejoin:miter;stroke-miterlimit:10;stroke-opacity:1;stroke-dasharray:none"
                 d="m 2076.72,1941.77 c 90.87,87.12 211.89,135.77 337.78,135.77 7.38,0 14.77,-0.17 22.15,-0.5" /><path
                 inkscape:connector-curvature="0"
                 id="path3269"
                 style="fill:none;stroke:#000000;stroke-width:4.5;stroke-linecap:butt;stroke-linejoin:miter;stroke-miterlimit:10;stroke-opacity:1;stroke-dasharray:none"
                 d="m 2077.08,1942.27 c 56.53,136.47 189.7,225.45 337.42,225.45 7.43,0 14.87,-0.23 22.29,-0.68" /><path
                 inkscape:connector-curvature="0"
                 id="path3271"
                 style="fill:none;stroke:#000000;stroke-width:4.5;stroke-linecap:butt;stroke-linejoin:miter;stroke-miterlimit:10;stroke-opacity:1;stroke-dasharray:none"
                 d="m 2076.72,2526.77 c 90.87,87.12 211.89,135.77 337.78,135.77 7.38,0 14.77,-0.17 22.15,-0.5" /><path
                 inkscape:connector-curvature="0"
                 id="path3273"
                 style="fill:none;stroke:#000000;stroke-width:4.5;stroke-linecap:butt;stroke-linejoin:miter;stroke-miterlimit:10;stroke-opacity:1;stroke-dasharray:none"
                 d="m 2076.72,2527.23 c 90.87,-87.12 211.89,-135.77 337.78,-135.77 7.38,0 14.77,0.17 22.15,0.5" /><path
                 inkscape:connector-curvature="0"
                 id="path3275"
                 style="fill:none;stroke:#000000;stroke-width:4.5;stroke-linecap:butt;stroke-linejoin:miter;stroke-miterlimit:10;stroke-opacity:1;stroke-dasharray:none"
                 d="m 2437,142.004 -540,0" /><path
                 inkscape:connector-curvature="0"
                 id="path3277"
                 style="fill:none;stroke:#000000;stroke-width:4.5;stroke-linecap:butt;stroke-linejoin:miter;stroke-miterlimit:10;stroke-opacity:1;stroke-dasharray:none"
                 d="m 1897,2977 540,0" /><path
                 inkscape:connector-curvature="0"
                 id="path3279"
                 style="fill:none;stroke:#000000;stroke-width:4.5;stroke-linecap:butt;stroke-linejoin:miter;stroke-miterlimit:10;stroke-opacity:1;stroke-dasharray:none"
                 d="m 1897,2527 540,0" /><path
                 inkscape:connector-curvature="0"
                 id="path3281"
                 style="fill:none;stroke:#000000;stroke-width:4.5;stroke-linecap:butt;stroke-linejoin:miter;stroke-miterlimit:10;stroke-opacity:1;stroke-dasharray:none"
                 d="m 1897,3382 540,0" /><path
                 inkscape:connector-curvature="0"
                 id="path3283"
                 style="fill:none;stroke:#000000;stroke-width:4.5;stroke-linecap:butt;stroke-linejoin:miter;stroke-miterlimit:10;stroke-opacity:1;stroke-dasharray:none"
                 d="M 141.996,1492 6.99609,1492" /><path
                 inkscape:connector-curvature="0"
                 id="path3285"
                 style="fill:none;stroke:#000000;stroke-width:4.5;stroke-linecap:butt;stroke-linejoin:miter;stroke-miterlimit:10;stroke-opacity:1;stroke-dasharray:none"
                 d="m 1177,3382 -180.004,0 0,-1440" /><path
                 inkscape:connector-curvature="0"
                 id="path3287"
                 style="fill:none;stroke:#000000;stroke-width:4.5;stroke-linecap:butt;stroke-linejoin:miter;stroke-miterlimit:10;stroke-opacity:1;stroke-dasharray:none"
                 d="m 1177,1267 -180.004,0 0,-584.996 180.004,0" /><path
                 inkscape:connector-curvature="0"
                 id="path3289"
                 style="fill:none;stroke:#000000;stroke-width:4.5;stroke-linecap:butt;stroke-linejoin:miter;stroke-miterlimit:10;stroke-opacity:1;stroke-dasharray:none"
                 d="m 996.996,997.004 -135,0" /><path
                 inkscape:connector-curvature="0"
                 id="path3291"
                 style="fill:none;stroke:#000000;stroke-width:4.5;stroke-linecap:butt;stroke-linejoin:miter;stroke-miterlimit:10;stroke-opacity:1;stroke-dasharray:none"
                 d="m 276.996,997.004 -135,0" /><path
                 inkscape:connector-curvature="0"
                 id="path3293"
                 style="fill:none;stroke:#000000;stroke-width:4.5;stroke-linecap:butt;stroke-linejoin:miter;stroke-miterlimit:10;stroke-opacity:1;stroke-dasharray:none"
                 d="m 861.996,142.004 315.004,0" /><path
                 inkscape:connector-curvature="0"
                 id="path3295"
                 style="fill:none;stroke:#000000;stroke-width:4.5;stroke-linecap:butt;stroke-linejoin:miter;stroke-miterlimit:10;stroke-opacity:1;stroke-dasharray:none"
                 d="m 321.996,2707 -180,0 0,-2564.996 135,0" /><path
                 inkscape:connector-curvature="0"
                 id="path3297"
                 style="fill:none;stroke:#000000;stroke-width:4.5;stroke-linecap:butt;stroke-linejoin:miter;stroke-miterlimit:10;stroke-opacity:1;stroke-dasharray:none"
                 d="m 2077,682.004 -180,0" /><path
                 inkscape:connector-curvature="0"
                 id="path3299"
                 style="fill:none;stroke:#000000;stroke-width:4.5;stroke-linecap:butt;stroke-linejoin:miter;stroke-miterlimit:10;stroke-opacity:1;stroke-dasharray:none"
                 d="m 2077,1312 -180,0" /><path
                 inkscape:connector-curvature="0"
                 id="path3301"
                 style="fill:none;stroke:#000000;stroke-width:4.5;stroke-linecap:butt;stroke-linejoin:miter;stroke-miterlimit:10;stroke-opacity:1;stroke-dasharray:none"
                 d="m 1177,1942 -180.004,0" /><path
                 inkscape:connector-curvature="0"
                 id="path3303"
                 style="fill:none;stroke:#000000;stroke-width:4.5;stroke-linecap:butt;stroke-linejoin:miter;stroke-miterlimit:10;stroke-opacity:1;stroke-dasharray:none"
                 d="m 2077,1942 -180,0" /><path
                 inkscape:connector-curvature="0"
                 id="path3305"
                 style="fill:none;stroke:#000000;stroke-width:4.5;stroke-linecap:butt;stroke-linejoin:miter;stroke-miterlimit:10;stroke-opacity:1;stroke-dasharray:none"
                 d="m 1177,2527 -180.004,0" /><path
                 inkscape:connector-curvature="0"
                 id="path3307"
                 style="fill:none;stroke:#000000;stroke-width:4.5;stroke-linecap:butt;stroke-linejoin:miter;stroke-miterlimit:10;stroke-opacity:1;stroke-dasharray:none"
                 d="m 816.996,2707 180,0" /><path
                 inkscape:connector-curvature="0"
                 id="path3309"
                 style="fill:none;stroke:#000000;stroke-width:4.5;stroke-linecap:butt;stroke-linejoin:miter;stroke-miterlimit:10;stroke-opacity:1;stroke-dasharray:none"
                 d="m 1177,2977 -180.004,0" /><path
                 inkscape:connector-curvature="0"
                 id="path3311"
                 style="fill:none;stroke:#000000;stroke-width:4.5;stroke-linecap:butt;stroke-linejoin:miter;stroke-miterlimit:10;stroke-opacity:1;stroke-dasharray:none"
                 d="m 1177,2437 720,0 0,180 -720,0 0,-180 z" /><path
                 inkscape:connector-curvature="0"
                 id="path3313"
                 style="fill:none;stroke:#000000;stroke-width:4.5;stroke-linecap:butt;stroke-linejoin:miter;stroke-miterlimit:10;stroke-opacity:1;stroke-dasharray:none"
                 d="m 1177,2887 720,0 0,180 -720,0 0,-180 z" /><g
                 id="g3315"><g
                   clip-path="url(#clipPath3319-64)"
                   id="g3317"><path
                     inkscape:connector-curvature="0"
                     id="path3323"
                     style="fill:none;stroke:#000000;stroke-width:4.5;stroke-linecap:butt;stroke-linejoin:miter;stroke-miterlimit:10;stroke-opacity:1;stroke-dasharray:none"
                     d="m 2437,3517 0,-270" /></g></g><path
                 inkscape:connector-curvature="0"
                 id="path3325"
                 style="fill:#000000;fill-opacity:1;fill-rule:evenodd;stroke:none"
                 d="m 2455,3435.4 -18,72 -18,-72 36,0" /><path
                 inkscape:connector-curvature="0"
                 id="path3327"
                 style="fill:none;stroke:#000000;stroke-width:4.5;stroke-linecap:butt;stroke-linejoin:miter;stroke-miterlimit:10;stroke-opacity:1;stroke-dasharray:none"
                 d="m 2455,3435.4 -18,72 -18,-72 36,0 z" /><path
                 inkscape:connector-curvature="0"
                 id="path3329"
                 style="fill:#000000;fill-opacity:1;fill-rule:evenodd;stroke:none"
                 d="m 2419,3328.6 18,-72 18,72 -36,0" /><path
                 inkscape:connector-curvature="0"
                 id="path3331"
                 style="fill:none;stroke:#000000;stroke-width:4.5;stroke-linecap:butt;stroke-linejoin:miter;stroke-miterlimit:10;stroke-opacity:1;stroke-dasharray:none"
                 d="m 2419,3328.6 18,-72 18,72 -36,0 z" /><g
                 id="g3333"><g
                   clip-path="url(#clipPath3337-31)"
                   id="g3335"><path
                     inkscape:connector-curvature="0"
                     id="path3341"
                     style="fill:none;stroke:#000000;stroke-width:4.5;stroke-linecap:butt;stroke-linejoin:miter;stroke-miterlimit:10;stroke-opacity:1;stroke-dasharray:none"
                     d="m 2437,3112 0,-270" /></g></g><path
                 inkscape:connector-curvature="0"
                 id="path3343"
                 style="fill:#000000;fill-opacity:1;fill-rule:evenodd;stroke:none"
                 d="m 2455,3030.4 -18,72 -18,-72 36,0" /><path
                 inkscape:connector-curvature="0"
                 id="path3345"
                 style="fill:none;stroke:#000000;stroke-width:4.5;stroke-linecap:butt;stroke-linejoin:miter;stroke-miterlimit:10;stroke-opacity:1;stroke-dasharray:none"
                 d="m 2455,3030.4 -18,72 -18,-72 36,0 z" /><path
                 inkscape:connector-curvature="0"
                 id="path3347"
                 style="fill:#000000;fill-opacity:1;fill-rule:evenodd;stroke:none"
                 d="m 2419,2923.6 18,-72 18,72 -36,0" /><path
                 inkscape:connector-curvature="0"
                 id="path3349"
                 style="fill:none;stroke:#000000;stroke-width:4.5;stroke-linecap:butt;stroke-linejoin:miter;stroke-miterlimit:10;stroke-opacity:1;stroke-dasharray:none"
                 d="m 2419,2923.6 18,-72 18,72 -36,0 z" /><g
                 transform="scale(10,10)"
                 id="g3351"><text
                   id="text3353"
                   transform="matrix(1,0,0,-1,248.2,234.7)"><tspan
                     id="tspan3355"
                     sodipodi:role="line"
                     y="0"
                     x="0 6.4980001 8.4960003 12.996 17.496 20.493 25.497 27.999001 33.002998 35.505001 38.007 40.508999 47.007 51.507 56.511002 59.507999 61.506001 66.510002 69.012001 71.514 74.015999 80.514 85.517998 90.522003 93.024002 95.022003 100.026 105.03 110.034 115.038"
                     style="font-size:9px;font-variant:normal;font-weight:normal;writing-mode:lr-tb;fill:#000000;fill-opacity:1;fill-rule:nonzero;stroke:none;font-family:Helvetica;-inkscape-font-specification:Helvetica">Discrete / Hybrid / Continuous</tspan><tspan
                     id="tspan3357"
                     sodipodi:role="line"
                     y="148.5"
                     x="0 7.4970002 12.501 17.504999 22.509001 27.513"
                     style="font-size:9px;font-variant:normal;font-weight:normal;writing-mode:lr-tb;fill:#000000;fill-opacity:1;fill-rule:nonzero;stroke:none;font-family:Helvetica;-inkscape-font-specification:Helvetica">Manual</tspan><tspan
                     id="tspan3359"
                     sodipodi:role="line"
                     y="157.5"
                     x="0 6.4980001 11.502 16.506001 21.51 26.514 34.011002 36.513 41.516998 46.521 51.525002 56.528999 59.526001 64.529999 67.031998 69.029999 74.033997"
                     style="font-size:9px;font-variant:normal;font-weight:normal;writing-mode:lr-tb;fill:#000000;fill-opacity:1;fill-rule:nonzero;stroke:none;font-family:Helvetica;-inkscape-font-specification:Helvetica">Random generation</tspan><tspan
                     id="tspan3361"
                     sodipodi:role="line"
                     y="166.5"
                     x="0 7.0019999 9.9989996 15.003 20.007 25.011 27.513 32.013 37.016998 42.021 45.018002 49.518002 54.521999 57.023998 62.028 64.026001 69.029999 74.033997 77.030998 79.028999 81.530998 86.535004 94.031998"
                     style="font-size:9px;font-variant:normal;font-weight:normal;writing-mode:lr-tb;fill:#000000;fill-opacity:1;fill-rule:nonzero;stroke:none;font-family:Helvetica;-inkscape-font-specification:Helvetica">Graph search algorithms</tspan><tspan
                     id="tspan3363"
                     sodipodi:role="line"
                     y="175.5"
                     x="0 7.4970002 12.501 17.504999 22.509001 24.507 29.763 34.263 39.266998 44.271 48.771 53.271 55.269001 60.272999"
                     style="font-size:9px;font-variant:normal;font-weight:normal;writing-mode:lr-tb;fill:#000000;fill-opacity:1;fill-rule:nonzero;stroke:none;font-family:Helvetica;-inkscape-font-specification:Helvetica">Model−checking</tspan><tspan
                     id="tspan3365"
                     sodipodi:role="line"
                     y="184.5"
                     x="0 6.0029998 10.503 18 23.004 28.007999 30.006001 32.004002 36.504002 39.006001 44.009998 48.509998 53.514 58.014 63.018002 65.519997 67.517998 72.522003"
                     style="font-size:9px;font-variant:normal;font-weight:normal;writing-mode:lr-tb;fill:#000000;fill-opacity:1;fill-rule:nonzero;stroke:none;font-family:Helvetica;-inkscape-font-specification:Helvetica">Symbolic execution</tspan><tspan
                     id="tspan3367"
                     sodipodi:role="line"
                     y="193.5"
                     x="0 5.4990001 10.503 15.507 20.511 23.507999 28.511999 36.008999 38.511002 43.514999 46.512001 51.515999 56.015999 58.014 63.018002"
                     style="font-size:9px;font-variant:normal;font-weight:normal;writing-mode:lr-tb;fill:#000000;fill-opacity:1;fill-rule:nonzero;stroke:none;font-family:Helvetica;-inkscape-font-specification:Helvetica">Theorem proving</tspan><tspan
                     id="tspan3369"
                     sodipodi:role="line"
                     y="85.5"
                     x="0 6.0029998 8.5050001 11.502 16.506001 21.006001 23.507999 28.511999 31.509001 36.513 38.511002 41.013 48.509998 53.514 58.518002 63.521999 65.519997 68.022003 74.519997 79.524002 84.024002 89.028 92.025002 97.028999 102.033"
                     style="font-size:9px;font-variant:normal;font-weight:normal;writing-mode:lr-tb;fill:#000000;fill-opacity:1;fill-rule:nonzero;stroke:none;font-family:Helvetica;-inkscape-font-specification:Helvetica">Structural Model Coverage</tspan><tspan
                     id="tspan3371"
                     sodipodi:role="line"
                     y="94.5"
                     x="0 6.4980001 11.502 14.004 19.007999 21.51 28.007999 33.012001 37.512001 42.515999 45.513 50.516998 55.521"
                     style="font-size:9px;font-variant:normal;font-weight:normal;writing-mode:lr-tb;fill:#000000;fill-opacity:1;fill-rule:nonzero;stroke:none;font-family:Helvetica;-inkscape-font-specification:Helvetica">Data Coverage</tspan><tspan
                     id="tspan3373"
                     sodipodi:role="line"
                     y="103.5"
                     x="0 6.4980001 11.502 16.506001 21.51 23.507999 26.504999 31.509001 39.006001 44.009998 49.014 51.515999 56.015999 58.518002 65.015999 70.019997 74.519997 79.524002 82.521004 87.525002 92.528999"
                     style="font-size:9px;font-variant:normal;font-weight:normal;writing-mode:lr-tb;fill:#000000;fill-opacity:1;fill-rule:nonzero;stroke:none;font-family:Helvetica;-inkscape-font-specification:Helvetica">Requirements Coverage</tspan><tspan
                     id="tspan3375"
                     sodipodi:role="line"
                     y="112.5"
                     x="0 5.4990001 10.503 15.003 17.504999 20.007 26.504999 31.509001 36.008999 41.013 43.514999 49.518002 54.521999 59.526001 64.026001 66.024002 68.526001 70.524002 75.024002 80.028 82.529999 84.528 89.531998 94.536003"
                     style="font-size:9px;font-variant:normal;font-weight:normal;writing-mode:lr-tb;fill:#000000;fill-opacity:1;fill-rule:nonzero;stroke:none;font-family:Helvetica;-inkscape-font-specification:Helvetica">Test Case Specifications</tspan><tspan
                     id="tspan3377"
                     sodipodi:role="line"
                     y="130.5"
                     x="0 5.4990001 10.503 15.507 17.504999 20.007 25.263 31.266001 36.27 40.77 45.773998"
                     style="font-size:9px;font-variant:normal;font-weight:normal;writing-mode:lr-tb;fill:#000000;fill-opacity:1;fill-rule:nonzero;stroke:none;font-family:Helvetica;-inkscape-font-specification:Helvetica">Fault−Based</tspan><tspan
                     id="tspan3379"
                     sodipodi:role="line"
                     y="31.5"
                     x="0 5.4990001 8.4960003 13.5 18.504 23.004 25.002001 27.504 29.502001 34.506001 39.509998 44.765999 50.769001 55.772999 60.272999 65.277"
                     style="font-size:9px;font-variant:normal;font-weight:normal;writing-mode:lr-tb;fill:#000000;fill-opacity:1;fill-rule:nonzero;stroke:none;font-family:Helvetica;-inkscape-font-specification:Helvetica">Transition−Based</tspan><tspan
                     id="tspan3381"
                     sodipodi:role="line"
                     y="40.5"
                     x="0 6.4980001 8.4960003 12.996 15.498 20.502001 23.499001 27.999001 33.255001 39.257999 44.262001 48.762001 53.765999"
                     style="font-size:9px;font-variant:normal;font-weight:normal;writing-mode:lr-tb;fill:#000000;fill-opacity:1;fill-rule:nonzero;stroke:none;font-family:Helvetica;-inkscape-font-specification:Helvetica">History−Based</tspan><tspan
                     id="tspan3383"
                     sodipodi:role="line"
                     y="49.5"
                     x="0 5.4990001 10.503 15.507 20.007 22.509001 24.507 29.511 34.514999 39.519001"
                     style="font-size:9px;font-variant:normal;font-weight:normal;writing-mode:lr-tb;fill:#000000;fill-opacity:1;fill-rule:nonzero;stroke:none;font-family:Helvetica;-inkscape-font-specification:Helvetica">Functional</tspan><tspan
                     id="tspan3385"
                     sodipodi:role="line"
                     y="58.5"
                     x="0 7.0019999 12.006 17.01 20.007 25.011 27.513 29.511 34.514999 39.519001 44.522999"
                     style="font-size:9px;font-variant:normal;font-weight:normal;writing-mode:lr-tb;fill:#000000;fill-opacity:1;fill-rule:nonzero;stroke:none;font-family:Helvetica;-inkscape-font-specification:Helvetica">Operational</tspan><tspan
                     id="tspan3387"
                     sodipodi:role="line"
                     y="225"
                     x="0 7.0019999 12.006 14.004 16.002001 21.006001 26.01 28.511999 31.014 33.515999 40.518002 43.02 45.521999 47.52 49.518002 54.521999"
                     style="font-size:9px;font-variant:normal;font-weight:normal;writing-mode:lr-tb;fill:#000000;fill-opacity:1;fill-rule:nonzero;stroke:none;font-family:Helvetica;-inkscape-font-specification:Helvetica">Online / Offline</tspan><tspan
                     id="tspan3389"
                     sodipodi:role="line"
                     y="-67.5"
                     x="0 6.0029998 11.007 16.011 19.007999 24.011999 29.016001 31.518 34.02 39.023998 43.523998 46.026001 52.028999 57.033001 62.036999 66.537003 69.039001 76.536003 81.540001 86.543999 91.547997"
                     style="font-size:9px;font-variant:normal;font-weight:normal;writing-mode:lr-tb;fill:#000000;fill-opacity:1;fill-rule:nonzero;stroke:none;font-family:Helvetica;-inkscape-font-specification:Helvetica">Shared test&amp;dev model</tspan><tspan
                     id="tspan3391"
                     sodipodi:role="line"
                     y="-49.5"
                     x="0 6.0029998 11.007 16.011 21.014999 24.011999 29.016001 31.518 36.521999 39.023998 41.526001 46.529999 51.029999 53.532001 56.034 63.530998 68.535004 73.539001 78.542999"
                     style="font-size:9px;font-variant:normal;font-weight:normal;writing-mode:lr-tb;fill:#000000;fill-opacity:1;fill-rule:nonzero;stroke:none;font-family:Helvetica;-inkscape-font-specification:Helvetica">Separate test model</tspan><tspan
                     id="tspan3393"
                     sodipodi:role="line"
                     y="-13.5"
                     x="0 5.4990001 7.4970002 14.994 19.997999 25.002001 27.504 30.006001 32.507999 39.006001 44.009998 46.512001 48.509998 56.007 61.011002"
                     style="font-size:9px;font-variant:normal;font-weight:normal;writing-mode:lr-tb;fill:#000000;fill-opacity:1;fill-rule:nonzero;stroke:none;font-family:Helvetica;-inkscape-font-specification:Helvetica">Timed / Untimed</tspan><tspan
                     id="tspan3395"
                     sodipodi:role="line"
                     y="-90"
                     x="0 6.0029998 12.501"
                     style="font-size:9px;font-variant:normal;font-weight:normal;writing-mode:lr-tb;fill:#000000;fill-opacity:1;fill-rule:nonzero;stroke:none;font-family:Helvetica;-inkscape-font-specification:Helvetica">SUT</tspan><tspan
                     id="tspan3397"
                     sodipodi:role="line"
                     y="-108"
                     x="0 6.0029998 11.007 15.507 17.504999 20.502001 25.506001 30.51 38.007 43.011002 48.014999"
                     style="font-size:9px;font-variant:normal;font-weight:normal;writing-mode:lr-tb;fill:#000000;fill-opacity:1;fill-rule:nonzero;stroke:none;font-family:Helvetica;-inkscape-font-specification:Helvetica">Environment</tspan><tspan
                     id="tspan3399"
                     sodipodi:role="line"
                     y="-27"
                     x="0 6.4980001 11.502 14.004 19.007999 22.004999 29.502001 31.5 36.504002 38.501999 43.001999 45.504002 47.501999 52.001999 54.504002 57.006001 59.507999 66.005997 71.010002 76.014 81.269997 87.767998 92.772003 95.274002"
                     style="font-size:9px;font-variant:normal;font-weight:normal;writing-mode:lr-tb;fill:#000000;fill-opacity:1;fill-rule:nonzero;stroke:none;font-family:Helvetica;-inkscape-font-specification:Helvetica">Deterministic / Non−Det.</tspan><tspan
                     id="tspan3401"
                     sodipodi:role="line"
                     y="22.5"
                     x="0 6.0029998 9 14.004 19.26 25.263 30.267 34.766998"
                     style="font-size:9px;font-variant:normal;font-weight:normal;writing-mode:lr-tb;fill:#000000;fill-opacity:1;fill-rule:nonzero;stroke:none;font-family:Helvetica;-inkscape-font-specification:Helvetica">Pre−Post</tspan><tspan
                     id="tspan3403"
                     sodipodi:role="line"
                     y="121.5"
                     x="0 6.4980001 11.502 16.506001 21.51 26.514 34.011002 40.014 46.016998 48.519001 53.522999 58.022999 63.027 68.030998 72.530998 75.032997 77.030998"
                     style="font-size:9px;font-variant:normal;font-weight:normal;writing-mode:lr-tb;fill:#000000;fill-opacity:1;fill-rule:nonzero;stroke:none;font-family:Helvetica;-inkscape-font-specification:Helvetica">Random&amp;Stochastic</tspan></text>
<text
                   id="text3405"
                   transform="matrix(1,0,0,-1,122.2,248.2)"><tspan
                     id="tspan3407"
                     sodipodi:role="line"
                     y="0"
                     x="0 7.1478 12.6522 18.156601 21.4533 26.957701 31.9077 34.659901 40.164299 43.460999 45.658798 50.608799 53.361 55.5588 60.508801"
                     style="font-size:9.89999962px;font-variant:normal;font-weight:normal;writing-mode:lr-tb;fill:#000000;fill-opacity:1;fill-rule:nonzero;stroke:none;font-family:Helvetica;-inkscape-font-specification:Helvetica">Characteristics</tspan></text>
</g><path
                 inkscape:connector-curvature="0"
                 id="path3409"
                 style="fill:none;stroke:#000000;stroke-width:4.5;stroke-linecap:butt;stroke-linejoin:miter;stroke-miterlimit:10;stroke-opacity:1;stroke-dasharray:none"
                 d="m 1177,592.004 720,0 0,180 -720,0 0,-180 z" /></g></g></g></g></g></g></svg>