<?xml version="1.0" encoding="UTF-8" standalone="no"?>
<!-- Created with Inkscape (http://www.inkscape.org/) -->

<svg
   xmlns:dc="http://purl.org/dc/elements/1.1/"
   xmlns:cc="http://creativecommons.org/ns#"
   xmlns:rdf="http://www.w3.org/1999/02/22-rdf-syntax-ns#"
   xmlns:svg="http://www.w3.org/2000/svg"
   xmlns="http://www.w3.org/2000/svg"
   xmlns:sodipodi="http://sodipodi.sourceforge.net/DTD/sodipodi-0.dtd"
   xmlns:inkscape="http://www.inkscape.org/namespaces/inkscape"
   width="968.42535"
   height="459.90256"
   id="svg2"
   version="1.1"
   inkscape:version="0.48.4 r9939"
   sodipodi:docname="VennTree.svg">
  <defs
     id="defs4">
    <marker
       inkscape:stockid="Arrow1Lend"
       orient="auto"
       refY="0"
       refX="0"
       id="Arrow1Lend"
       style="overflow:visible">
      <path
         id="path4166"
         d="M 0,0 5,-5 -12.5,0 5,5 0,0 z"
         style="fill-rule:evenodd;stroke:#000000;stroke-width:1pt"
         transform="matrix(-0.8,0,0,-0.8,-10,0)"
         inkscape:connector-curvature="0" />
    </marker>
  </defs>
  <sodipodi:namedview
     id="base"
     pagecolor="#ffffff"
     bordercolor="#666666"
     borderopacity="1.0"
     inkscape:pageopacity="0.0"
     inkscape:pageshadow="2"
     inkscape:zoom="0.5"
     inkscape:cx="435.82008"
     inkscape:cy="251.21096"
     inkscape:document-units="px"
     inkscape:current-layer="layer1"
     showgrid="false"
     inkscape:window-width="1234"
     inkscape:window-height="834"
     inkscape:window-x="157"
     inkscape:window-y="154"
     inkscape:window-maximized="0"
     fit-margin-top="0"
     fit-margin-left="0"
     fit-margin-right="0"
     fit-margin-bottom="0" />
  <metadata
     id="metadata7">
    <rdf:RDF>
      <cc:Work
         rdf:about="">
        <dc:format>image/svg+xml</dc:format>
        <dc:type
           rdf:resource="http://purl.org/dc/dcmitype/StillImage" />
        <dc:title />
      </cc:Work>
    </rdf:RDF>
  </metadata>
  <g
     inkscape:label="Ebene 1"
     inkscape:groupmode="layer"
     id="layer1"
     transform="translate(111.11727,-20)">
    <path
       style="fill:#b3b3b3;fill-opacity:1;stroke:none"
       d="m 283,20 c -7.91429,0 -14.3125,6.366964 -14.3125,14.28125 l 0,76.46875 c 0,7.91428 6.39821,14.28125 14.3125,14.28125 l 160.0625,0 17.4375,0 c 7.91429,0 14.28125,-6.36697 14.28125,-14.28125 l 0,-76.46875 C 474.78125,26.366964 468.41429,20 460.5,20 L 389.375,20 283,20 z"
       id="path3115"
       inkscape:connector-curvature="0" />
    <g
       id="g4117"
       transform="translate(86.873119,-9.0944125)">
      <g
         id="g4003">
        <path
           inkscape:connector-curvature="0"
           style="fill:#000000;fill-opacity:1;stroke:none"
           d="m 616.79474,278.58533 -160.0622,0 c -7.91429,0 -14.28572,-6.37143 -14.28572,-14.28571 l 0,-76.48443 c 0,-7.91429 6.37143,-14.28572 14.28572,-14.28572 l 0,0 0,0 106.37481,0"
           id="path3115-5" />
        <path
           inkscape:connector-curvature="0"
           style="fill:#b3b3b3;fill-opacity:1;stroke:none"
           d="m 563.10735,173.52947 71.12486,0 c 7.91429,0 14.28572,6.37143 14.28572,14.28572 l 0,76.48443 c 0,7.91428 -6.37143,14.28571 -14.28572,14.28571 l -17.43747,0"
           id="rect3058-1" />
      </g>
    </g>
    <g
       id="g4122"
       transform="translate(-66.670068,-5.0538025)">
      <g
         id="g3999">
        <path
           inkscape:connector-curvature="0"
           style="fill:#b3b3b3;fill-opacity:1;stroke:none"
           d="m 251.11952,274.54472 -160.062201,0 c -7.91429,0 -14.285721,-6.37143 -14.285721,-14.28571 l 0,-76.48444 c 0,-7.91428 6.371431,-14.28571 14.285721,-14.28571 l 0,0 0,0 106.374811,0"
           id="path3115-7" />
        <path
           inkscape:connector-curvature="0"
           style="fill:#000000;fill-opacity:1;stroke:none"
           d="m 197.43213,169.48886 71.12486,0 c 7.91429,0 14.28572,6.37143 14.28572,14.28571 l 0,76.48444 c 0,7.91428 -6.37143,14.28571 -14.28572,14.28571 l -17.43747,0"
           id="rect3058-11" />
      </g>
    </g>
    <g
       id="g4137"
       transform="translate(-22.896803,0)">
      <path
         id="rect3058-1-3"
         d="m 538.86369,308.88991 71.12486,0 c 7.91429,0 14.28572,6.37143 14.28572,14.28572 l 0,76.48443 c 0,7.91428 -6.37143,14.28571 -14.28572,14.28571 l -17.43747,0"
         style="fill:#000000;fill-opacity:1;stroke:none"
         inkscape:connector-curvature="0" />
      <path
         id="rect3058-1-3-4"
         d="m 541.1875,308.875 c -0.48371,0.5943 -0.94499,1.20988 -1.375,1.84375 l 20.71875,40.5 c 0.70316,0.0523 1.40791,0.0937 2.125,0.0937 15.06308,0 27.28125,-11.74481 27.28125,-26.25 0,-6.10391 -2.18524,-11.72783 -5.8125,-16.1875 l -42.9375,0 z"
         style="fill:#b3b3b3;fill-opacity:1;stroke:none"
         inkscape:connector-curvature="0" />
      <path
         id="path3115-5-2"
         d="m 592.55108,413.94577 -160.0622,0 c -7.91429,0 -14.28572,-6.37143 -14.28572,-14.28571 l 0,-76.48443 c 0,-7.91429 6.37143,-14.28572 14.28572,-14.28572 l 0,0 0,0 106.37481,0"
         style="fill:#000000;fill-opacity:1;stroke:none"
         inkscape:connector-curvature="0" />
    </g>
    <g
       id="g4132"
       transform="translate(-13.468199,-8.09375)">
      <path
         id="path3115-7-6-6"
         d="m 169.84375,316.96875 c -7.91429,0 -14.28125,6.36697 -14.28125,14.28125 l 0,76.5 c 0,7.91428 6.36696,14.28125 14.28125,14.28125 l 160.0625,0 -53.6875,-105.0625 -106.375,0 z M 251.875,342.75 c 3.51408,-0.11613 5.08562,3.44018 6.28125,6.46875 1.94731,0.92584 4.25696,4.40998 4.53125,6.375 l 8.03125,34.09375 -10.09375,4.0625 c -4.3138,1.0425 -8.75421,2.17593 -12.8125,3.59375 -4.59682,0.61097 -9.15429,0.029 -13.125,2.6875 -4.77572,-0.0135 -9.58223,-0.39656 -14.375,-0.25 -8.91094,0.0103 -17.85833,0.39171 -26.75,-0.125 -3.4401,-0.43391 -6.95583,-2.48231 -8,-5.96875 -3.76954,-1.34038 -5.24167,-5.39558 -7.5,-8.25 -0.77002,-4.29802 -1.06058,-8.99558 0.46875,-13.15625 2.79219,-4.06624 -0.92532,-9.73431 3.78125,-12.53125 3.22892,-2.04512 6.47809,-5.52486 9.65625,-8.0625 2.21543,-1.81394 5.24364,-4.49667 8.03125,-1.4375 0.25321,4.25394 -0.0757,8.86354 -0.0625,13.28125 0.51472,3.47342 6.83909,4.35341 10.25,4.0625 5.275,0.4066 10.47095,-1.304 15.34375,-3.09375 2.90423,-2.83928 3.55145,-7.26375 6.96875,-9.75 1.60217,-3.77909 5.17794,-4.69893 8.03125,-7.125 3.25257,-1.55595 6.39664,-3.14568 9.71875,-4.5625 0.58605,-0.17882 1.12299,-0.29591 1.625,-0.3125 z"
         style="fill:#000000;fill-opacity:1;stroke:none"
         inkscape:connector-curvature="0" />
      <path
         id="rect3058-11-8"
         d="m 276.22402,316.97113 71.12486,0 c 7.91429,0 14.28572,6.37143 14.28572,14.28571 l 0,76.48444 c 0,7.91428 -6.37143,14.28571 -14.28572,14.28571 l -17.43747,0"
         style="fill:#000000;fill-opacity:1;stroke:none"
         inkscape:connector-curvature="0" />
      <path
         inkscape:connector-curvature="0"
         id="path3994"
         d="m 270.72088,389.70212 c -3.36717,1.34687 -6.73435,2.69374 -10.10152,4.04061 -4.3138,1.0425 -8.73938,2.1695 -12.79767,3.58732 -4.59682,0.61097 -9.17561,0.0356 -13.14632,2.69413 -4.77572,-0.0135 -9.56702,-0.39647 -14.35979,-0.24991 -8.91094,0.0103 -17.85019,0.38508 -26.74186,-0.13163 -3.4401,-0.43391 -6.98068,-2.46346 -8.02485,-5.9499 -3.76954,-1.34038 -5.23567,-5.39926 -7.494,-8.25368 -0.77002,-4.29802 -1.04466,-9.00132 0.48467,-13.16199 2.79219,-4.06624 -0.92416,-9.73 3.78241,-12.52694 3.22892,-2.04512 6.47152,-5.51374 9.64968,-8.05138 2.21543,-1.81394 5.23784,-4.50434 8.02545,-1.44517 0.25321,4.25394 -0.0744,8.87152 -0.0612,13.28923 0.51472,3.47342 6.84581,4.35423 10.25672,4.06332 5.275,0.4066 10.46157,-1.31577 15.33437,-3.10552 2.90423,-2.83928 3.56085,-7.27723 6.97815,-9.76348 1.60217,-3.77909 5.17717,-4.67057 8.03048,-7.09664 3.25257,-1.55595 6.39523,-3.17378 9.71734,-4.5906 4.68839,-1.43059 6.54068,2.72254 7.90711,6.18376 2.4991,1.18819 5.58475,6.58808 4.21515,7.58594 0.0157,-0.50059 0.21053,-0.96806 0.26443,-1.46271"
         style="fill:#b3b3b1;fill-opacity:1;stroke:none" />
    </g>
    <g
       id="g4127"
       transform="translate(0,-4.0522)">
      <path
         inkscape:connector-curvature="0"
         id="path3994-2"
         d="m 4.0411114,385.66057 c -3.36717004,1.34687 -6.73435,2.69374 -10.10152,4.04061 -4.3138004,1.0425 -8.7393804,2.1695 -12.7976704,3.58732 -4.59682,0.61097 -9.17561,0.0356 -13.14632,2.69413 -4.77572,-0.0135 -9.56702,-0.39647 -14.35979,-0.24991 -8.91094,0.0103 -17.85019,0.38508 -26.74186,-0.13163 -3.4401,-0.43391 -6.98068,-2.46346 -8.02485,-5.9499 -3.76954,-1.34038 -5.23567,-5.39926 -7.494,-8.25368 -0.77002,-4.29802 -1.04466,-9.00132 0.48467,-13.16199 2.79219,-4.06624 -0.92416,-9.73 3.78241,-12.52694 3.22892,-2.04512 6.47152,-5.51374 9.64968,-8.05138 2.21543,-1.81394 5.23784,-4.50434 8.02545,-1.44517 0.25321,4.25394 -0.0744,8.87152 -0.0612,13.28923 0.51472,3.47342 6.84581,4.35423 10.25672,4.06332 5.275,0.4066 10.46157,-1.31577 15.33437,-3.10552 2.90423,-2.83928 3.56085,-7.27723 6.97815,-9.76348 1.60217,-3.77909 5.17717,-4.67057 8.03048,-7.09664 3.25257,-1.55595 6.39523,-3.17378 9.71734,-4.5906 4.68839,-1.43059 6.5406804,2.72254 7.9071104,6.18376 2.4991,1.18819 5.58475,6.58808 4.21515,7.58594 0.0157,-0.50059 0.21053,-0.96806 0.26443,-1.46271"
         style="fill:#000000;fill-opacity:1;stroke:none" />
      <path
         id="path3115-7-6-6-7"
         d="m -96.836019,312.9272 c -7.914291,0 -14.281251,6.36697 -14.281251,14.28125 l 0,76.5 c 0,7.91428 6.36696,14.28125 14.281251,14.28125 l 160.062498,0 -53.6874976,-105.0625 -106.3750004,0 z m 82.03125,25.78125 c 3.51408,-0.11613 5.0856204,3.44018 6.2812504,6.46875 1.94731,0.92584 4.25696,4.40998 4.53125,6.375 l 8.03125,34.09375 -10.09375,4.0625 c -4.3138004,1.0425 -8.7542104,2.17593 -12.8125004,3.59375 -4.59682,0.61097 -9.15429,0.029 -13.125,2.6875 -4.77572,-0.0135 -9.58223,-0.39656 -14.375,-0.25 -8.91094,0.0103 -17.85833,0.39171 -26.75,-0.125 -3.4401,-0.43391 -6.95583,-2.48231 -8,-5.96875 -3.76954,-1.34038 -5.24167,-5.39558 -7.5,-8.25 -0.77002,-4.29802 -1.06058,-8.99558 0.46875,-13.15625 2.79219,-4.06624 -0.92532,-9.73431 3.78125,-12.53125 3.22892,-2.04512 6.47809,-5.52486 9.65625,-8.0625 2.21543,-1.81394 5.24364,-4.49667 8.03125,-1.4375 0.25321,4.25394 -0.0757,8.86354 -0.0625,13.28125 0.51472,3.47342 6.83909,4.35341 10.25,4.0625 5.275,0.4066 10.47095,-1.304 15.34375,-3.09375 2.90423,-2.83928 3.55145,-7.26375 6.96875,-9.75 1.60217,-3.77909 5.17794,-4.69893 8.03125,-7.125 3.25257,-1.55595 6.39664,-3.14568 9.71875,-4.5625 0.58605,-0.17882 1.12299,-0.29591 1.625,-0.3125 z"
         style="fill:#b3b3b3;fill-opacity:1;stroke:none"
         inkscape:connector-curvature="0" />
      <path
         id="rect3058-11-8-9"
         d="m 9.5442514,312.92958 71.1248576,0 c 7.91429,0 14.28572,6.37143 14.28572,14.28571 l 0,76.48444 c 0,7.91428 -6.37143,14.28571 -14.28572,14.28571 l -17.43747,0"
         style="fill:#000000;fill-opacity:1;stroke:none"
         inkscape:connector-curvature="0" />
    </g>
    <g
       id="g4142"
       transform="translate(1.9073486e-6,-3.03042)">
      <path
         id="path3115-5-2-1"
         d="m 822.86586,416.97625 -160.0622,0 c -7.91429,0 -14.28572,-6.37143 -14.28572,-14.28571 l 0,-76.48444 c 0,-7.91429 6.37143,-14.28572 14.28572,-14.28572 l 0,0 0,0 106.37481,0"
         style="fill:#000000;fill-opacity:1;stroke:none"
         inkscape:connector-curvature="0" />
      <path
         id="rect3058-1-3-2"
         d="m 769.17847,311.92038 71.12486,0 c 7.91429,0 14.28572,6.37143 14.28572,14.28572 l 0,76.48444 c 0,7.91428 -6.37143,14.28571 -14.28572,14.28571 l -17.43747,0"
         style="fill:#b3b3b3;fill-opacity:1;stroke:none"
         inkscape:connector-curvature="0" />
      <path
         id="rect3058-1-3-4-3"
         d="m 771.50228,311.90547 c -0.48371,0.5943 -0.94499,1.20988 -1.375,1.84375 l 20.71875,40.5 c 0.70316,0.0523 1.40791,0.0937 2.125,0.0937 15.06308,0 27.28125,-11.74481 27.28125,-26.25 0,-6.10391 -2.18524,-11.72783 -5.8125,-16.1875 l -42.9375,0 z"
         style="fill:#000000;fill-opacity:1;stroke:none"
         inkscape:connector-curvature="0" />
    </g>
    <path
       style="fill:none;stroke:#000000;stroke-width:2.08599997;stroke-linecap:butt;stroke-linejoin:miter;stroke-miterlimit:4;stroke-opacity:1;stroke-dasharray:none;marker-end:url(#Arrow1Lend);display:inline"
       d="m 278.81986,124.41585 -72.74984,40.63663"
       id="path4147"
       inkscape:connector-type="polyline"
       inkscape:connector-curvature="0"
       inkscape:connection-start="#path3115"
       inkscape:connection-start-point="d4"
       inkscape:connection-end="#g4122"
       inkscape:connection-end-point="d4" />
    <path
       style="fill:none;stroke:#000000;stroke-width:2.08599997;stroke-linecap:butt;stroke-linejoin:miter;stroke-miterlimit:4;stroke-opacity:1;stroke-dasharray:none;marker-end:url(#Arrow1Lend)"
       d="m 465.11973,124.27378 73.84302,40.92696"
       id="path4149"
       inkscape:connector-type="polyline"
       inkscape:connector-curvature="0"
       inkscape:connection-start="#path3115"
       inkscape:connection-start-point="d4"
       inkscape:connection-end="#g4117"
       inkscape:connection-end-point="d4" />
    <path
       style="fill:none;stroke:#000000;stroke-width:2.08599997;stroke-linecap:butt;stroke-linejoin:miter;stroke-miterlimit:4;stroke-opacity:1;stroke-dasharray:none;marker-end:url(#Arrow1Lend)"
       d="m 583.62179,269.49092 -36.53923,39.38403"
       id="path4151"
       inkscape:connector-type="polyline"
       inkscape:connector-curvature="0"
       inkscape:connection-start="#g4117"
       inkscape:connection-start-point="d4"
       inkscape:connection-end="#g4137"
       inkscape:connection-end-point="d4" />
    <path
       style="fill:none;stroke:#000000;stroke-width:2.08599997;stroke-linecap:butt;stroke-linejoin:miter;stroke-miterlimit:4;stroke-opacity:1;stroke-dasharray:none;marker-end:url(#Arrow1Lend)"
       d="m 675.70154,269.49092 32.51208,39.39904"
       id="path4153"
       inkscape:connector-type="polyline"
       inkscape:connector-curvature="0"
       inkscape:connection-start="#g4117"
       inkscape:connection-start-point="d4"
       inkscape:connection-end="#g4142"
       inkscape:connection-end-point="d4" />
    <path
       style="fill:none;stroke:#000000;stroke-width:2.08599997;stroke-linecap:butt;stroke-linejoin:miter;stroke-miterlimit:4;stroke-opacity:1;stroke-dasharray:none;marker-end:url(#Arrow1Lend)"
       d="M 161.13748,269.49092 197.12693,308.875"
       id="path4155"
       inkscape:connector-type="polyline"
       inkscape:connector-curvature="0"
       inkscape:connection-start="#g4122"
       inkscape:connection-start-point="d4"
       inkscape:connection-end="#g4132"
       inkscape:connection-end-point="d4" />
    <path
       style="fill:none;stroke:#000000;stroke-width:2.08599997;stroke-linecap:butt;stroke-linejoin:miter;stroke-miterlimit:4;stroke-opacity:1;stroke-dasharray:none;marker-end:url(#Arrow1Lend)"
       d="M 69.055094,269.49092 36.00156,308.87738"
       id="path4157"
       inkscape:connector-type="polyline"
       inkscape:connector-curvature="0"
       inkscape:connection-start="#g4122"
       inkscape:connection-start-point="d4"
       inkscape:connection-end="#g4127"
       inkscape:connection-end-point="d4" />
    <path
       style="fill:none;stroke:#000000;stroke-width:2.08599997;stroke-linecap:butt;stroke-linejoin:miter;stroke-miterlimit:4;stroke-opacity:1;stroke-dasharray:6.2579999, 6.2579999;stroke-dashoffset:0;marker-end:url(#Arrow1Lend)"
       d="m 246.3632,413.9375 2.13383,64.92206"
       id="path4825"
       inkscape:connector-type="polyline"
       inkscape:connector-curvature="0"
       sodipodi:nodetypes="cc" />
    <text
       xml:space="preserve"
       style="font-size:40px;font-style:normal;font-weight:normal;line-height:125%;letter-spacing:0px;word-spacing:0px;fill:#000000;fill-opacity:1;stroke:none;font-family:Sans"
       x="-109.09696"
       y="450.66602"
       id="text5523"
       sodipodi:linespacing="125%"><tspan
         sodipodi:role="line"
         id="tspan5525"
         x="-109.09696"
         y="450.66602">1</tspan></text>
    <text
       xml:space="preserve"
       style="font-size:40px;font-style:normal;font-weight:normal;line-height:125%;letter-spacing:0px;word-spacing:0px;fill:#000000;fill-opacity:1;stroke:none;font-family:Sans"
       x="404.53314"
       y="450.66602"
       id="text5523-4"
       sodipodi:linespacing="125%"><tspan
         sodipodi:role="line"
         id="tspan5525-1"
         x="404.53314"
         y="450.66602">6</tspan></text>
    <text
       xml:space="preserve"
       style="font-size:40px;font-style:normal;font-weight:normal;line-height:125%;letter-spacing:0px;word-spacing:0px;fill:#000000;fill-opacity:1;stroke:none;font-family:Sans"
       x="651.01038"
       y="450.66602"
       id="text5523-1"
       sodipodi:linespacing="125%"><tspan
         sodipodi:role="line"
         id="tspan5525-3"
         x="651.01038"
         y="450.66602">7</tspan><tspan
         sodipodi:role="line"
         x="651.01038"
         y="500.66602"
         id="tspan5584" /></text>
    <text
       xml:space="preserve"
       style="font-size:40px;font-style:normal;font-variant:normal;font-weight:normal;font-stretch:normal;text-indent:0;text-align:start;text-decoration:none;line-height:125%;letter-spacing:0px;word-spacing:0px;text-transform:none;direction:ltr;block-progression:tb;writing-mode:lr-tb;text-anchor:start;baseline-shift:baseline;color:#000000;fill:#000000;fill-opacity:1;fill-rule:nonzero;stroke:none;marker:none;visibility:visible;display:inline;overflow:visible;enable-background:accumulate;font-family:Sans;-inkscape-font-specification:Sans"
       x="65.121887"
       y="450.66602"
       id="text5523-8"
       sodipodi:linespacing="125%"><tspan
         sodipodi:role="line"
         id="tspan5525-7"
         x="65.121887"
         y="450.66602">1</tspan></text>
    <text
       xml:space="preserve"
       style="font-size:40px;font-style:normal;font-weight:normal;line-height:125%;letter-spacing:0px;word-spacing:0px;fill:#000000;fill-opacity:1;stroke:none;font-family:Sans"
       x="590.40118"
       y="450.66602"
       id="text5523-42"
       sodipodi:linespacing="125%"><tspan
         sodipodi:role="line"
         id="tspan5525-77"
         x="590.40118"
         y="450.66602">2</tspan></text>
    <text
       xml:space="preserve"
       style="font-size:40px;font-style:normal;font-weight:normal;line-height:125%;letter-spacing:0px;word-spacing:0px;fill:#000000;fill-opacity:1;stroke:none;font-family:Sans"
       x="836.87842"
       y="450.66602"
       id="text5523-9"
       sodipodi:linespacing="125%"><tspan
         sodipodi:role="line"
         id="tspan5525-31"
         x="836.87842"
         y="450.66602">3</tspan></text>
    <text
       xml:space="preserve"
       style="font-size:40px;font-style:normal;font-variant:normal;font-weight:normal;font-stretch:normal;text-indent:0;text-align:start;text-decoration:none;line-height:125%;letter-spacing:0px;word-spacing:0px;text-transform:none;direction:ltr;block-progression:tb;writing-mode:lr-tb;text-anchor:start;baseline-shift:baseline;color:#000000;fill:#000000;fill-opacity:1;fill-rule:nonzero;stroke:none;marker:none;visibility:visible;display:inline;overflow:visible;enable-background:accumulate;font-family:Sans;-inkscape-font-specification:Sans"
       x="151.12189"
       y="450.66602"
       id="text5523-8-6"
       sodipodi:linespacing="125%"><tspan
         sodipodi:role="line"
         id="tspan5525-7-5"
         x="151.12189"
         y="450.66602">2-5</tspan></text>
    <text
       xml:space="preserve"
       style="font-size:40px;font-style:normal;font-variant:normal;font-weight:normal;font-stretch:normal;text-indent:0;text-align:start;text-decoration:none;line-height:125%;letter-spacing:0px;word-spacing:0px;text-transform:none;direction:ltr;block-progression:tb;writing-mode:lr-tb;text-anchor:start;baseline-shift:baseline;color:#000000;fill:#000000;fill-opacity:1;fill-rule:nonzero;stroke:none;marker:none;visibility:visible;display:inline;overflow:visible;enable-background:accumulate;font-family:Sans;-inkscape-font-specification:Sans"
       x="281.12189"
       y="450.66602"
       id="text5523-8-6-0"
       sodipodi:linespacing="125%"><tspan
         sodipodi:role="line"
         id="tspan5525-7-5-2"
         x="281.12189"
         y="450.66602">4-7</tspan></text>
  </g>
</svg>
